0
SECTION
2
HEADER
9
$INSUNITS
70
4
9
$ACADVER
1
AC1014
9
$HANDSEED
5
FFFF
0
ENDSEC
0
SECTION
2
TABLES
0
TABLE
2
VPORT
5
8
100
AcDbSymbolTable
0
ENDTAB
0
TABLE
2
LTYPE
5
5
100
AcDbSymbolTable
0
LTYPE
5
14
100
AcDbSymbolTableRecord
100
AcDbLinetypeTableRecord
2
BYBLOCK
70
0
0
LTYPE
5
15
100
AcDbSymbolTableRecord
100
AcDbLinetypeTableRecord
2
BYLAYER
70
0
0
ENDTAB
0
TABLE
2
LAYER
5
2
100
AcDbSymbolTable
70
2
0
LAYER
5
50
100
AcDbSymbolTableRecord
100
AcDbLayerTableRecord
2
0
70
0
6
CONTINUOUS
0
ENDTAB
0
TABLE
2
STYLE
5
3
100
AcDbSymbolTable
70
1
0
STYLE
5
11
100
AcDbSymbolTableRecord
100
AcDbTextStyleTableRecord
2
STANDARD
70
0
0
ENDTAB
0
TABLE
2
VIEW
5
6
100
AcDbSymbolTable
70
0
0
ENDTAB
0
TABLE
2
UCS
5
7
100
AcDbSymbolTable
70
0
0
ENDTAB
0
TABLE
2
APPID
5
9
100
AcDbSymbolTable
70
2
0
APPID
5
12
100
AcDbSymbolTableRecord
100
AcDbRegAppTableRecord
2
ACAD
70
0
0
ENDTAB
0
TABLE
2
DIMSTYLE
5
A
100
AcDbSymbolTable
70
1
0
ENDTAB
0
TABLE
2
BLOCK_RECORD
5
1
100
AcDbSymbolTable
70
1
0
BLOCK_RECORD
5
1F
100
AcDbSymbolTableRecord
100
AcDbBlockTableRecord
2
*MODEL_SPACE
0
BLOCK_RECORD
5
1B
100
AcDbSymbolTableRecord
100
AcDbBlockTableRecord
2
*PAPER_SPACE
0
ENDTAB
0
ENDSEC
0
SECTION
2
BLOCKS
0
BLOCK
5
20
100
AcDbEntity
100
AcDbBlockBegin
2
*MODEL_SPACE
0
ENDBLK
5
21
100
AcDbEntity
100
AcDbBlockEnd
0
BLOCK
5
1C
100
AcDbEntity
100
AcDbBlockBegin
2
*PAPER_SPACE
0
ENDBLK
5
1D
100
AcDbEntity
100
AcDbBlockEnd
0
ENDSEC
0
SECTION
2
ENTITIES
0
LWPOLYLINE
5
100
100
AcDbEntity
8
0
100
AcDbPolyline
90
4
70
1
43
0.0
10
30.354999999999471
20
64.25
10
-30.604999999999464
20
64.250000000000014
10
-30.604999999999471
20
-64.25
10
30.354999999999464
20
-64.25
0
LWPOLYLINE
5
101
100
AcDbEntity
8
0
100
AcDbPolyline
90
4
70
1
43
0.0
10
30.104999999999468
20
64.249999999999986
10
-30.354999999999478
20
64.250000000000014
10
-30.354999999999485
20
-64.25
10
30.104999999999464
20
-64.250000000000028
0
LWPOLYLINE
5
102
100
AcDbEntity
8
0
100
AcDbPolyline
90
4
70
1
43
0.0
10
29.854999999999471
20
53.250000000000021
10
-30.104999999999468
20
53.250000000000021
10
-30.104999999999471
20
-53.249999999999986
10
29.854999999999468
20
-53.25
0
CIRCLE
5
103
100
AcDbEntity
8
0
100
AcDbCircle
10
-23.104999999999464
20
61.250000000000014
30
0
40
1.5000000000000009
0
CIRCLE
5
104
100
AcDbEntity
8
0
100
AcDbCircle
10
22.61500000000003
20
61.25
30
0
40
1.5000000000000002
0
LINE
5
105
100
AcDbEntity
8
0
100
AcDbLine
10
30.104999999999464
20
-1.8215133376913581e-14
30
0
11
-30.104999999999468
21
1.8215133376913578e-14
31
0
0
CIRCLE
5
106
100
AcDbEntity
8
0
100
AcDbCircle
10
-23.104999999999464
20
-61.250000000000028
30
0
40
1.5000000000000013
0
CIRCLE
5
107
100
AcDbEntity
8
0
100
AcDbCircle
10
22.615000000000535
20
-61.250000000000028
30
0
40
1.4999999999999989
0
LINE
5
108
100
AcDbEntity
8
0
100
AcDbLine
10
-24.604999999999464
20
61.250000000000014
30
0
11
-21.604999999999595
21
61.249999999998963
31
0
0
CIRCLE
5
109
100
AcDbEntity
8
0
100
AcDbCircle
10
-24.604999999999464
20
61.250000000000014
30
0
40
1.4999999999999989
0
CIRCLE
5
110
100
AcDbEntity
8
0
100
AcDbCircle
10
-21.604999999999595
20
61.249999999998963
30
0
40
1.4999999999999978
0
LINE
5
111
100
AcDbEntity
8
0
100
AcDbLine
10
-24.604999999999166
20
62.750000000000476
30
0
11
-21.604999999998547
21
62.749999999998956
31
0
0
LINE
5
112
100
AcDbEntity
8
0
100
AcDbLine
10
21.115000000000038
20
62.749999999999993
30
0
11
24.115000000000041
21
62.749999999999986
31
0
0
LINE
5
113
100
AcDbEntity
8
0
100
AcDbLine
10
-21.604996296393303
20
59.749999999949573
30
0
11
-24.60499999999967
21
59.750000000001187
31
0
0
CIRCLE
5
114
100
AcDbEntity
8
0
100
AcDbCircle
10
21.11500000000003
20
61.25
30
0
40
1.4999999999999989
0
LINE
5
115
100
AcDbEntity
8
0
100
AcDbLine
10
21.11500000000003
20
61.25
30
0
11
24.115000000000034
21
61.249999999999993
31
0
0
CIRCLE
5
116
100
AcDbEntity
8
0
100
AcDbCircle
10
24.115000000000034
20
61.249999999999993
30
0
40
1.4999999999999978
0
LINE
5
117
100
AcDbEntity
8
0
100
AcDbLine
10
24.114986203007014
20
59.749999997373649
30
0
11
21.114999999998826
21
59.75
31
0
0
LINE
5
118
100
AcDbEntity
8
0
100
AcDbLine
10
-24.604999999999457
20
-61.250000000000028
30
0
11
-21.604999999999457
21
-61.250000000000028
31
0
0
CIRCLE
5
119
100
AcDbEntity
8
0
100
AcDbCircle
10
-24.604999999999457
20
-61.250000000000028
30
0
40
1.4999999999999989
0
CIRCLE
5
120
100
AcDbEntity
8
0
100
AcDbCircle
10
-21.604999999999457
20
-61.250000000000028
30
0
40
1.4999999999999978
0
LINE
5
121
100
AcDbEntity
8
0
100
AcDbLine
10
-24.605000000001176
20
-59.750000000000682
30
0
11
-21.605000000000913
21
-59.749999999999929
31
0
0
LINE
5
122
100
AcDbEntity
8
0
100
AcDbLine
10
21.115000000000158
20
-59.75000000000221
30
0
11
24.114999999999768
21
-59.750000000002814
31
0
0
LINE
5
123
100
AcDbEntity
8
0
100
AcDbLine
10
-21.604996855874994
20
-62.749999999996682
30
0
11
-24.604999999999222
21
-62.749999999999979
31
0
0
CIRCLE
5
124
100
AcDbEntity
8
0
100
AcDbCircle
10
21.115000000000535
20
-61.250000000000014
30
0
40
1.4999999999999989
0
LINE
5
125
100
AcDbEntity
8
0
100
AcDbLine
10
21.115000000000535
20
-61.250000000000014
30
0
11
24.115000000000535
21
-61.250000000000028
31
0
0
CIRCLE
5
126
100
AcDbEntity
8
0
100
AcDbCircle
10
24.115000000000535
20
-61.250000000000028
30
0
40
1.4999999999999978
0
LINE
5
127
100
AcDbEntity
8
0
100
AcDbLine
10
24.115049862516091
20
-62.749999999171273
30
0
11
21.115000000414401
21
-62.750000000000014
31
0
0
LINE
5
128
100
AcDbEntity
8
0
100
AcDbLine
10
22.73499999999947
20
64.25
30
0
11
22.734999999999459
21
-64.250000000000014
31
0
0
CIRCLE
5
129
100
AcDbEntity
8
0
100
AcDbCircle
10
22.734999999999456
20
44.449999999999989
30
0
40
3.1000000000000005
0
CIRCLE
5
130
100
AcDbEntity
8
0
100
AcDbCircle
10
22.734999999999456
20
31.749999999999989
30
0
40
3.1000000000000005
0
CIRCLE
5
131
100
AcDbEntity
8
0
100
AcDbCircle
10
22.734999999999452
20
19.049999999999986
30
0
40
3.1000000000000005
0
CIRCLE
5
132
100
AcDbEntity
8
0
100
AcDbCircle
10
22.734999999999452
20
6.3499999999999872
30
0
40
3.1000000000000005
0
CIRCLE
5
133
100
AcDbEntity
8
0
100
AcDbCircle
10
22.734999999999452
20
-6.3500000000000139
30
0
40
3.1000000000000005
0
CIRCLE
5
134
100
AcDbEntity
8
0
100
AcDbCircle
10
22.734999999999452
20
-19.050000000000008
30
0
40
3.1000000000000005
0
CIRCLE
5
135
100
AcDbEntity
8
0
100
AcDbCircle
10
22.734999999999452
20
-31.750000000000011
30
0
40
3.1000000000000005
0
CIRCLE
5
136
100
AcDbEntity
8
0
100
AcDbCircle
10
22.734999999999452
20
-44.450000000000017
30
0
40
3.1000000000000005
0
LINE
5
137
100
AcDbEntity
8
0
100
AcDbLine
10
12.574999999999459
20
64.25
30
0
11
12.574999999999461
21
-64.250000000000014
31
0
0
CIRCLE
5
138
100
AcDbEntity
8
0
100
AcDbCircle
10
12.574999999999456
20
44.449999999999577
30
0
40
2.75
0
CIRCLE
5
139
100
AcDbEntity
8
0
100
AcDbCircle
10
12.574999999999459
20
31.749999999999581
30
0
40
2.75
0
CIRCLE
5
140
100
AcDbEntity
8
0
100
AcDbCircle
10
12.574999999999461
20
19.049999999999578
30
0
40
2.75
0
CIRCLE
5
141
100
AcDbEntity
8
0
100
AcDbCircle
10
12.574999999999461
20
6.3499999999995786
30
0
40
2.75
0
CIRCLE
5
142
100
AcDbEntity
8
0
100
AcDbCircle
10
12.574999999999461
20
-6.3500000000004224
30
0
40
2.75
0
CIRCLE
5
143
100
AcDbEntity
8
0
100
AcDbCircle
10
12.574999999999461
20
-19.050000000000416
30
0
40
2.75
0
CIRCLE
5
144
100
AcDbEntity
8
0
100
AcDbCircle
10
12.574999999999463
20
-31.750000000000419
30
0
40
2.75
0
CIRCLE
5
145
100
AcDbEntity
8
0
100
AcDbCircle
10
12.574999999999466
20
-44.450000000000429
30
0
40
2.75
0
LWPOLYLINE
5
146
100
AcDbEntity
8
0
100
AcDbPolyline
90
4
70
1
43
0.0
10
3.7150000000005612
20
50.459632789527625
10
-24.284999999999442
20
50.459632789527625
10
-24.284999999999442
20
11.239632789527619
10
3.7150000000005612
20
11.239632789527615
0
LINE
5
147
100
AcDbEntity
8
0
100
AcDbLine
10
-22.984999999999467
20
9.7199068748530624e-15
30
0
11
-22.984999999999467
21
-64.25
31
0
0
LINE
5
148
100
AcDbEntity
8
0
100
AcDbLine
10
-10.284999999999457
20
2.4881587111999249e-15
30
0
11
-10.284999999999464
21
-64.25
31
0
0
LINE
5
149
100
AcDbEntity
8
0
100
AcDbLine
10
29.854999999999468
20
-44.450000000000017
30
0
11
-30.104999999999468
21
-44.450000000000017
31
0
0
CIRCLE
5
150
100
AcDbEntity
8
0
100
AcDbCircle
10
-22.984999999999467
20
-44.450000000000017
30
0
40
3.1000000000000005
0
CIRCLE
5
151
100
AcDbEntity
8
0
100
AcDbCircle
10
-10.284999999999462
20
-44.450000000000017
30
0
40
3.1000000000000005
0
LINE
5
152
100
AcDbEntity
8
0
100
AcDbLine
10
30.354999999999464
20
6.239632789527616
30
0
11
-30.354999999999475
21
6.2396327895276205
31
0
0
LINE
5
153
100
AcDbEntity
8
0
100
AcDbLine
10
-22.984999999999467
20
9.7199068748530624e-15
30
0
11
-22.984999999999467
21
6.2396327895276205
31
0
0
LINE
5
154
100
AcDbEntity
8
0
100
AcDbLine
10
-10.284999999999457
20
2.4881587111999249e-15
30
0
11
-10.284999999999457
21
6.2396327895276196
31
0
0
CIRCLE
5
155
100
AcDbEntity
8
0
100
AcDbCircle
10
-10.284999999999457
20
6.2396327895276196
30
0
40
2.75
0
LINE
5
156
100
AcDbEntity
8
0
100
AcDbLine
10
29.854999999999468
20
-31.860367210472383
30
0
11
-30.60499999999946
21
-31.860367210472383
31
0
0
CIRCLE
5
157
100
AcDbEntity
8
0
100
AcDbCircle
10
-22.984999999999467
20
-31.860367210472383
30
0
40
3.1000000000000005
0
CIRCLE
5
158
100
AcDbEntity
8
0
100
AcDbCircle
10
-10.28499999999946
20
-31.860367210472383
30
0
40
3.100000000000001
0
LINE
5
159
100
AcDbEntity
8
0
100
AcDbLine
10
2.4150000000005445
20
6.2396327895276187
30
0
11
2.4150000000005445
21
-44.450000000000017
31
0
0
CIRCLE
5
160
100
AcDbEntity
8
0
100
AcDbCircle
10
2.4150000000005445
20
-31.860367210472379
30
0
40
3.1000000000000005
0
CIRCLE
5
161
100
AcDbEntity
8
0
100
AcDbCircle
10
2.4150000000005445
20
-44.450000000000017
30
0
40
3.1000000000000028
0
CIRCLE
5
162
100
AcDbEntity
8
0
100
AcDbCircle
10
-20.444999999999457
20
6.2396327895276196
30
0
40
2.7499999999999987
0
CIRCLE
5
163
100
AcDbEntity
8
0
100
AcDbCircle
10
-0.12499999999945444
20
6.2396327895276187
30
0
40
2.75
0
LINE
5
164
100
AcDbEntity
8
0
100
AcDbLine
10
-22.984999999999467
20
-12.81036721047238
30
0
11
2.4150000000005445
21
-12.810367210472375
31
0
0
CIRCLE
5
165
100
AcDbEntity
8
0
100
AcDbCircle
10
-10.28499999999946
20
-12.810367210472378
30
0
40
3.6000000000000014
0
LINE
5
166
100
AcDbEntity
8
0
100
AcDbLine
10
-10.284999999999441
20
50.459632789527625
30
0
11
-10.284999999999441
21
11.239632789527615
31
0
0
LINE
5
167
100
AcDbEntity
8
0
100
AcDbLine
10
-24.284999999999442
20
30.849632789527625
30
0
11
3.7150000000005612
21
30.849632789527618
31
0
0
ENDSEC
0
SECTION
2
OBJECTS
0
DICTIONARY
5
C
100
AcDbDictionary
3
ACAD_GROUP
350
D
3
ACAD_MLINESTYLE
350
17
0
DICTIONARY
5
D
100
AcDbDictionary
0
DICTIONARY
5
1A
330
C
100
AcDbDictionary
0
DICTIONARY
5
17
100
AcDbDictionary
0
ENDSEC
0
EOF
