G04 #@! TF.GenerationSoftware,KiCad,Pcbnew,(5.1.0-0)*
G04 #@! TF.CreationDate,2019-05-28T00:09:16+08:00*
G04 #@! TF.ProjectId,Beats,42656174-732e-46b6-9963-61645f706362,rev?*
G04 #@! TF.SameCoordinates,Original*
G04 #@! TF.FileFunction,Soldermask,Top*
G04 #@! TF.FilePolarity,Negative*
%FSLAX46Y46*%
G04 Gerber Fmt 4.6, Leading zero omitted, Abs format (unit mm)*
G04 Created by KiCad (PCBNEW (5.1.0-0)) date 2019-05-28 00:09:16*
%MOMM*%
%LPD*%
G04 APERTURE LIST*
%ADD10C,0.100000*%
G04 APERTURE END LIST*
D10*
G36*
X124600000Y-97587000D02*
G01*
X127648000Y-100381000D01*
X127648000Y-109652000D01*
X121552000Y-109652000D01*
X121552000Y-92380000D01*
X124600000Y-92380000D01*
X124600000Y-97587000D01*
G37*
X124600000Y-97587000D02*
X127648000Y-100381000D01*
X127648000Y-109652000D01*
X121552000Y-109652000D01*
X121552000Y-92380000D01*
X124600000Y-92380000D01*
X124600000Y-97587000D01*
G36*
X173361571Y-148572863D02*
G01*
X173440023Y-148580590D01*
X173540682Y-148611125D01*
X173591013Y-148626392D01*
X173730165Y-148700771D01*
X173852133Y-148800867D01*
X173952229Y-148922835D01*
X174026608Y-149061987D01*
X174026608Y-149061988D01*
X174072410Y-149212977D01*
X174087875Y-149370000D01*
X174072410Y-149527023D01*
X174041875Y-149627682D01*
X174026608Y-149678013D01*
X173952229Y-149817165D01*
X173852133Y-149939133D01*
X173730165Y-150039229D01*
X173591013Y-150113608D01*
X173540682Y-150128875D01*
X173440023Y-150159410D01*
X173361571Y-150167137D01*
X173322346Y-150171000D01*
X172143654Y-150171000D01*
X172104429Y-150167137D01*
X172025977Y-150159410D01*
X171925318Y-150128875D01*
X171874987Y-150113608D01*
X171735835Y-150039229D01*
X171613867Y-149939133D01*
X171513771Y-149817165D01*
X171439392Y-149678013D01*
X171424125Y-149627682D01*
X171393590Y-149527023D01*
X171378125Y-149370000D01*
X171393590Y-149212977D01*
X171439392Y-149061988D01*
X171439392Y-149061987D01*
X171513771Y-148922835D01*
X171613867Y-148800867D01*
X171735835Y-148700771D01*
X171874987Y-148626392D01*
X171925318Y-148611125D01*
X172025977Y-148580590D01*
X172104429Y-148572863D01*
X172143654Y-148569000D01*
X173322346Y-148569000D01*
X173361571Y-148572863D01*
X173361571Y-148572863D01*
G37*
G36*
X153041571Y-148572863D02*
G01*
X153120023Y-148580590D01*
X153220682Y-148611125D01*
X153271013Y-148626392D01*
X153410165Y-148700771D01*
X153532133Y-148800867D01*
X153632229Y-148922835D01*
X153706608Y-149061987D01*
X153706608Y-149061988D01*
X153752410Y-149212977D01*
X153767875Y-149370000D01*
X153752410Y-149527023D01*
X153721875Y-149627682D01*
X153706608Y-149678013D01*
X153632229Y-149817165D01*
X153532133Y-149939133D01*
X153410165Y-150039229D01*
X153271013Y-150113608D01*
X153220682Y-150128875D01*
X153120023Y-150159410D01*
X153041571Y-150167137D01*
X153002346Y-150171000D01*
X151823654Y-150171000D01*
X151784429Y-150167137D01*
X151705977Y-150159410D01*
X151605318Y-150128875D01*
X151554987Y-150113608D01*
X151415835Y-150039229D01*
X151293867Y-149939133D01*
X151193771Y-149817165D01*
X151119392Y-149678013D01*
X151104125Y-149627682D01*
X151073590Y-149527023D01*
X151058125Y-149370000D01*
X151073590Y-149212977D01*
X151119392Y-149061988D01*
X151119392Y-149061987D01*
X151193771Y-148922835D01*
X151293867Y-148800867D01*
X151415835Y-148700771D01*
X151554987Y-148626392D01*
X151605318Y-148611125D01*
X151705977Y-148580590D01*
X151784429Y-148572863D01*
X151823654Y-148569000D01*
X153002346Y-148569000D01*
X153041571Y-148572863D01*
X153041571Y-148572863D01*
G37*
G36*
X140341571Y-148572863D02*
G01*
X140420023Y-148580590D01*
X140520682Y-148611125D01*
X140571013Y-148626392D01*
X140710165Y-148700771D01*
X140832133Y-148800867D01*
X140932229Y-148922835D01*
X141006608Y-149061987D01*
X141006608Y-149061988D01*
X141052410Y-149212977D01*
X141067875Y-149370000D01*
X141052410Y-149527023D01*
X141021875Y-149627682D01*
X141006608Y-149678013D01*
X140932229Y-149817165D01*
X140832133Y-149939133D01*
X140710165Y-150039229D01*
X140571013Y-150113608D01*
X140520682Y-150128875D01*
X140420023Y-150159410D01*
X140341571Y-150167137D01*
X140302346Y-150171000D01*
X139123654Y-150171000D01*
X139084429Y-150167137D01*
X139005977Y-150159410D01*
X138905318Y-150128875D01*
X138854987Y-150113608D01*
X138715835Y-150039229D01*
X138593867Y-149939133D01*
X138493771Y-149817165D01*
X138419392Y-149678013D01*
X138404125Y-149627682D01*
X138373590Y-149527023D01*
X138358125Y-149370000D01*
X138373590Y-149212977D01*
X138419392Y-149061988D01*
X138419392Y-149061987D01*
X138493771Y-148922835D01*
X138593867Y-148800867D01*
X138715835Y-148700771D01*
X138854987Y-148626392D01*
X138905318Y-148611125D01*
X139005977Y-148580590D01*
X139084429Y-148572863D01*
X139123654Y-148569000D01*
X140302346Y-148569000D01*
X140341571Y-148572863D01*
X140341571Y-148572863D01*
G37*
G36*
X127641571Y-148572863D02*
G01*
X127720023Y-148580590D01*
X127820682Y-148611125D01*
X127871013Y-148626392D01*
X128010165Y-148700771D01*
X128132133Y-148800867D01*
X128232229Y-148922835D01*
X128306608Y-149061987D01*
X128306608Y-149061988D01*
X128352410Y-149212977D01*
X128367875Y-149370000D01*
X128352410Y-149527023D01*
X128321875Y-149627682D01*
X128306608Y-149678013D01*
X128232229Y-149817165D01*
X128132133Y-149939133D01*
X128010165Y-150039229D01*
X127871013Y-150113608D01*
X127820682Y-150128875D01*
X127720023Y-150159410D01*
X127641571Y-150167137D01*
X127602346Y-150171000D01*
X126423654Y-150171000D01*
X126384429Y-150167137D01*
X126305977Y-150159410D01*
X126205318Y-150128875D01*
X126154987Y-150113608D01*
X126015835Y-150039229D01*
X125893867Y-149939133D01*
X125793771Y-149817165D01*
X125719392Y-149678013D01*
X125704125Y-149627682D01*
X125673590Y-149527023D01*
X125658125Y-149370000D01*
X125673590Y-149212977D01*
X125719392Y-149061988D01*
X125719392Y-149061987D01*
X125793771Y-148922835D01*
X125893867Y-148800867D01*
X126015835Y-148700771D01*
X126154987Y-148626392D01*
X126205318Y-148611125D01*
X126305977Y-148580590D01*
X126384429Y-148572863D01*
X126423654Y-148569000D01*
X127602346Y-148569000D01*
X127641571Y-148572863D01*
X127641571Y-148572863D01*
G37*
G36*
X165093564Y-146741389D02*
G01*
X165284833Y-146820615D01*
X165284835Y-146820616D01*
X165456973Y-146935635D01*
X165603365Y-147082027D01*
X165718385Y-147254167D01*
X165797611Y-147445436D01*
X165838000Y-147648484D01*
X165838000Y-147855516D01*
X165797611Y-148058564D01*
X165718385Y-148249833D01*
X165718384Y-148249835D01*
X165603365Y-148421973D01*
X165456973Y-148568365D01*
X165284835Y-148683384D01*
X165284834Y-148683385D01*
X165284833Y-148683385D01*
X165093564Y-148762611D01*
X164890516Y-148803000D01*
X164683484Y-148803000D01*
X164480436Y-148762611D01*
X164289167Y-148683385D01*
X164289166Y-148683385D01*
X164289165Y-148683384D01*
X164117027Y-148568365D01*
X163970635Y-148421973D01*
X163855616Y-148249835D01*
X163855615Y-148249833D01*
X163776389Y-148058564D01*
X163736000Y-147855516D01*
X163736000Y-147648484D01*
X163776389Y-147445436D01*
X163855615Y-147254167D01*
X163970635Y-147082027D01*
X164117027Y-146935635D01*
X164289165Y-146820616D01*
X164289167Y-146820615D01*
X164480436Y-146741389D01*
X164683484Y-146701000D01*
X164890516Y-146701000D01*
X165093564Y-146741389D01*
X165093564Y-146741389D01*
G37*
G36*
X160593564Y-146741389D02*
G01*
X160784833Y-146820615D01*
X160784835Y-146820616D01*
X160956973Y-146935635D01*
X161103365Y-147082027D01*
X161218385Y-147254167D01*
X161297611Y-147445436D01*
X161338000Y-147648484D01*
X161338000Y-147855516D01*
X161297611Y-148058564D01*
X161218385Y-148249833D01*
X161218384Y-148249835D01*
X161103365Y-148421973D01*
X160956973Y-148568365D01*
X160784835Y-148683384D01*
X160784834Y-148683385D01*
X160784833Y-148683385D01*
X160593564Y-148762611D01*
X160390516Y-148803000D01*
X160183484Y-148803000D01*
X159980436Y-148762611D01*
X159789167Y-148683385D01*
X159789166Y-148683385D01*
X159789165Y-148683384D01*
X159617027Y-148568365D01*
X159470635Y-148421973D01*
X159355616Y-148249835D01*
X159355615Y-148249833D01*
X159276389Y-148058564D01*
X159236000Y-147855516D01*
X159236000Y-147648484D01*
X159276389Y-147445436D01*
X159355615Y-147254167D01*
X159470635Y-147082027D01*
X159617027Y-146935635D01*
X159789165Y-146820616D01*
X159789167Y-146820615D01*
X159980436Y-146741389D01*
X160183484Y-146701000D01*
X160390516Y-146701000D01*
X160593564Y-146741389D01*
X160593564Y-146741389D01*
G37*
G36*
X166307000Y-145390000D02*
G01*
X164681000Y-145390000D01*
X164681000Y-143764000D01*
X166307000Y-143764000D01*
X166307000Y-145390000D01*
X166307000Y-145390000D01*
G37*
G36*
X159762142Y-143795242D02*
G01*
X159910101Y-143856529D01*
X160043255Y-143945499D01*
X160156501Y-144058745D01*
X160245471Y-144191899D01*
X160306758Y-144339858D01*
X160338000Y-144496925D01*
X160338000Y-144657075D01*
X160306758Y-144814142D01*
X160245471Y-144962101D01*
X160156501Y-145095255D01*
X160043255Y-145208501D01*
X159910101Y-145297471D01*
X159762142Y-145358758D01*
X159605075Y-145390000D01*
X159444925Y-145390000D01*
X159287858Y-145358758D01*
X159139899Y-145297471D01*
X159006745Y-145208501D01*
X158893499Y-145095255D01*
X158804529Y-144962101D01*
X158743242Y-144814142D01*
X158712000Y-144657075D01*
X158712000Y-144496925D01*
X158743242Y-144339858D01*
X158804529Y-144191899D01*
X158893499Y-144058745D01*
X159006745Y-143945499D01*
X159139899Y-143856529D01*
X159287858Y-143795242D01*
X159444925Y-143764000D01*
X159605075Y-143764000D01*
X159762142Y-143795242D01*
X159762142Y-143795242D01*
G37*
G36*
X165093564Y-140241389D02*
G01*
X165284833Y-140320615D01*
X165284835Y-140320616D01*
X165456973Y-140435635D01*
X165603365Y-140582027D01*
X165611983Y-140594924D01*
X165718385Y-140754167D01*
X165797611Y-140945436D01*
X165838000Y-141148484D01*
X165838000Y-141355516D01*
X165797611Y-141558564D01*
X165749523Y-141674659D01*
X165718384Y-141749835D01*
X165603365Y-141921973D01*
X165456973Y-142068365D01*
X165284835Y-142183384D01*
X165284834Y-142183385D01*
X165284833Y-142183385D01*
X165093564Y-142262611D01*
X164890516Y-142303000D01*
X164683484Y-142303000D01*
X164480436Y-142262611D01*
X164289167Y-142183385D01*
X164289166Y-142183385D01*
X164289165Y-142183384D01*
X164117027Y-142068365D01*
X163970635Y-141921973D01*
X163855616Y-141749835D01*
X163824477Y-141674659D01*
X163776389Y-141558564D01*
X163736000Y-141355516D01*
X163736000Y-141148484D01*
X163776389Y-140945436D01*
X163855615Y-140754167D01*
X163962018Y-140594924D01*
X163970635Y-140582027D01*
X164117027Y-140435635D01*
X164289165Y-140320616D01*
X164289167Y-140320615D01*
X164480436Y-140241389D01*
X164683484Y-140201000D01*
X164890516Y-140201000D01*
X165093564Y-140241389D01*
X165093564Y-140241389D01*
G37*
G36*
X160593564Y-140241389D02*
G01*
X160784833Y-140320615D01*
X160784835Y-140320616D01*
X160956973Y-140435635D01*
X161103365Y-140582027D01*
X161111983Y-140594924D01*
X161218385Y-140754167D01*
X161297611Y-140945436D01*
X161338000Y-141148484D01*
X161338000Y-141355516D01*
X161297611Y-141558564D01*
X161249523Y-141674659D01*
X161218384Y-141749835D01*
X161103365Y-141921973D01*
X160956973Y-142068365D01*
X160784835Y-142183384D01*
X160784834Y-142183385D01*
X160784833Y-142183385D01*
X160593564Y-142262611D01*
X160390516Y-142303000D01*
X160183484Y-142303000D01*
X159980436Y-142262611D01*
X159789167Y-142183385D01*
X159789166Y-142183385D01*
X159789165Y-142183384D01*
X159617027Y-142068365D01*
X159470635Y-141921973D01*
X159355616Y-141749835D01*
X159324477Y-141674659D01*
X159276389Y-141558564D01*
X159236000Y-141355516D01*
X159236000Y-141148484D01*
X159276389Y-140945436D01*
X159355615Y-140754167D01*
X159462018Y-140594924D01*
X159470635Y-140582027D01*
X159617027Y-140435635D01*
X159789165Y-140320616D01*
X159789167Y-140320615D01*
X159980436Y-140241389D01*
X160183484Y-140201000D01*
X160390516Y-140201000D01*
X160593564Y-140241389D01*
X160593564Y-140241389D01*
G37*
G36*
X127679823Y-140231313D02*
G01*
X127840242Y-140279976D01*
X127916272Y-140320615D01*
X127988078Y-140358996D01*
X128117659Y-140465341D01*
X128224004Y-140594922D01*
X128224005Y-140594924D01*
X128303024Y-140742758D01*
X128351687Y-140903177D01*
X128368117Y-141070000D01*
X128351687Y-141236823D01*
X128303024Y-141397242D01*
X128232114Y-141529906D01*
X128224004Y-141545078D01*
X128117659Y-141674659D01*
X127988078Y-141781004D01*
X127988076Y-141781005D01*
X127840242Y-141860024D01*
X127679823Y-141908687D01*
X127554804Y-141921000D01*
X126471196Y-141921000D01*
X126346177Y-141908687D01*
X126185758Y-141860024D01*
X126037924Y-141781005D01*
X126037922Y-141781004D01*
X125908341Y-141674659D01*
X125801996Y-141545078D01*
X125793886Y-141529906D01*
X125722976Y-141397242D01*
X125674313Y-141236823D01*
X125657883Y-141070000D01*
X125674313Y-140903177D01*
X125722976Y-140742758D01*
X125801995Y-140594924D01*
X125801996Y-140594922D01*
X125908341Y-140465341D01*
X126037922Y-140358996D01*
X126109728Y-140320615D01*
X126185758Y-140279976D01*
X126346177Y-140231313D01*
X126471196Y-140219000D01*
X127554804Y-140219000D01*
X127679823Y-140231313D01*
X127679823Y-140231313D01*
G37*
G36*
X173399823Y-140231313D02*
G01*
X173560242Y-140279976D01*
X173636272Y-140320615D01*
X173708078Y-140358996D01*
X173837659Y-140465341D01*
X173944004Y-140594922D01*
X173944005Y-140594924D01*
X174023024Y-140742758D01*
X174071687Y-140903177D01*
X174088117Y-141070000D01*
X174071687Y-141236823D01*
X174023024Y-141397242D01*
X173952114Y-141529906D01*
X173944004Y-141545078D01*
X173837659Y-141674659D01*
X173708078Y-141781004D01*
X173708076Y-141781005D01*
X173560242Y-141860024D01*
X173399823Y-141908687D01*
X173274804Y-141921000D01*
X172191196Y-141921000D01*
X172066177Y-141908687D01*
X171905758Y-141860024D01*
X171757924Y-141781005D01*
X171757922Y-141781004D01*
X171628341Y-141674659D01*
X171521996Y-141545078D01*
X171513886Y-141529906D01*
X171442976Y-141397242D01*
X171394313Y-141236823D01*
X171377883Y-141070000D01*
X171394313Y-140903177D01*
X171442976Y-140742758D01*
X171521995Y-140594924D01*
X171521996Y-140594922D01*
X171628341Y-140465341D01*
X171757922Y-140358996D01*
X171829728Y-140320615D01*
X171905758Y-140279976D01*
X172066177Y-140231313D01*
X172191196Y-140219000D01*
X173274804Y-140219000D01*
X173399823Y-140231313D01*
X173399823Y-140231313D01*
G37*
G36*
X153079823Y-140231313D02*
G01*
X153240242Y-140279976D01*
X153316272Y-140320615D01*
X153388078Y-140358996D01*
X153517659Y-140465341D01*
X153624004Y-140594922D01*
X153624005Y-140594924D01*
X153703024Y-140742758D01*
X153751687Y-140903177D01*
X153768117Y-141070000D01*
X153751687Y-141236823D01*
X153703024Y-141397242D01*
X153632114Y-141529906D01*
X153624004Y-141545078D01*
X153517659Y-141674659D01*
X153388078Y-141781004D01*
X153388076Y-141781005D01*
X153240242Y-141860024D01*
X153079823Y-141908687D01*
X152954804Y-141921000D01*
X151871196Y-141921000D01*
X151746177Y-141908687D01*
X151585758Y-141860024D01*
X151437924Y-141781005D01*
X151437922Y-141781004D01*
X151308341Y-141674659D01*
X151201996Y-141545078D01*
X151193886Y-141529906D01*
X151122976Y-141397242D01*
X151074313Y-141236823D01*
X151057883Y-141070000D01*
X151074313Y-140903177D01*
X151122976Y-140742758D01*
X151201995Y-140594924D01*
X151201996Y-140594922D01*
X151308341Y-140465341D01*
X151437922Y-140358996D01*
X151509728Y-140320615D01*
X151585758Y-140279976D01*
X151746177Y-140231313D01*
X151871196Y-140219000D01*
X152954804Y-140219000D01*
X153079823Y-140231313D01*
X153079823Y-140231313D01*
G37*
G36*
X140379823Y-140231313D02*
G01*
X140540242Y-140279976D01*
X140616272Y-140320615D01*
X140688078Y-140358996D01*
X140817659Y-140465341D01*
X140924004Y-140594922D01*
X140924005Y-140594924D01*
X141003024Y-140742758D01*
X141051687Y-140903177D01*
X141068117Y-141070000D01*
X141051687Y-141236823D01*
X141003024Y-141397242D01*
X140932114Y-141529906D01*
X140924004Y-141545078D01*
X140817659Y-141674659D01*
X140688078Y-141781004D01*
X140688076Y-141781005D01*
X140540242Y-141860024D01*
X140379823Y-141908687D01*
X140254804Y-141921000D01*
X139171196Y-141921000D01*
X139046177Y-141908687D01*
X138885758Y-141860024D01*
X138737924Y-141781005D01*
X138737922Y-141781004D01*
X138608341Y-141674659D01*
X138501996Y-141545078D01*
X138493886Y-141529906D01*
X138422976Y-141397242D01*
X138374313Y-141236823D01*
X138357883Y-141070000D01*
X138374313Y-140903177D01*
X138422976Y-140742758D01*
X138501995Y-140594924D01*
X138501996Y-140594922D01*
X138608341Y-140465341D01*
X138737922Y-140358996D01*
X138809728Y-140320615D01*
X138885758Y-140279976D01*
X139046177Y-140231313D01*
X139171196Y-140219000D01*
X140254804Y-140219000D01*
X140379823Y-140231313D01*
X140379823Y-140231313D01*
G37*
G36*
X173179228Y-137113483D02*
G01*
X173367922Y-137170723D01*
X173541815Y-137263671D01*
X173694239Y-137388761D01*
X173819329Y-137541185D01*
X173912277Y-137715078D01*
X173969517Y-137903772D01*
X173988843Y-138100000D01*
X173969517Y-138296228D01*
X173912277Y-138484922D01*
X173819329Y-138658815D01*
X173694239Y-138811239D01*
X173541815Y-138936329D01*
X173367922Y-139029277D01*
X173179228Y-139086517D01*
X173032175Y-139101000D01*
X172433825Y-139101000D01*
X172286772Y-139086517D01*
X172098078Y-139029277D01*
X171924185Y-138936329D01*
X171771761Y-138811239D01*
X171646671Y-138658815D01*
X171553723Y-138484922D01*
X171496483Y-138296228D01*
X171477157Y-138100000D01*
X171496483Y-137903772D01*
X171553723Y-137715078D01*
X171646671Y-137541185D01*
X171771761Y-137388761D01*
X171924185Y-137263671D01*
X172098078Y-137170723D01*
X172286772Y-137113483D01*
X172433825Y-137099000D01*
X173032175Y-137099000D01*
X173179228Y-137113483D01*
X173179228Y-137113483D01*
G37*
G36*
X152859228Y-137113483D02*
G01*
X153047922Y-137170723D01*
X153221815Y-137263671D01*
X153374239Y-137388761D01*
X153499329Y-137541185D01*
X153592277Y-137715078D01*
X153649517Y-137903772D01*
X153668843Y-138100000D01*
X153649517Y-138296228D01*
X153592277Y-138484922D01*
X153499329Y-138658815D01*
X153374239Y-138811239D01*
X153221815Y-138936329D01*
X153047922Y-139029277D01*
X152859228Y-139086517D01*
X152712175Y-139101000D01*
X152113825Y-139101000D01*
X151966772Y-139086517D01*
X151778078Y-139029277D01*
X151604185Y-138936329D01*
X151451761Y-138811239D01*
X151326671Y-138658815D01*
X151233723Y-138484922D01*
X151176483Y-138296228D01*
X151157157Y-138100000D01*
X151176483Y-137903772D01*
X151233723Y-137715078D01*
X151326671Y-137541185D01*
X151451761Y-137388761D01*
X151604185Y-137263671D01*
X151778078Y-137170723D01*
X151966772Y-137113483D01*
X152113825Y-137099000D01*
X152712175Y-137099000D01*
X152859228Y-137113483D01*
X152859228Y-137113483D01*
G37*
G36*
X140159228Y-137113483D02*
G01*
X140347922Y-137170723D01*
X140521815Y-137263671D01*
X140674239Y-137388761D01*
X140799329Y-137541185D01*
X140892277Y-137715078D01*
X140949517Y-137903772D01*
X140968843Y-138100000D01*
X140949517Y-138296228D01*
X140892277Y-138484922D01*
X140799329Y-138658815D01*
X140674239Y-138811239D01*
X140521815Y-138936329D01*
X140347922Y-139029277D01*
X140159228Y-139086517D01*
X140012175Y-139101000D01*
X139413825Y-139101000D01*
X139266772Y-139086517D01*
X139078078Y-139029277D01*
X138904185Y-138936329D01*
X138751761Y-138811239D01*
X138626671Y-138658815D01*
X138533723Y-138484922D01*
X138476483Y-138296228D01*
X138457157Y-138100000D01*
X138476483Y-137903772D01*
X138533723Y-137715078D01*
X138626671Y-137541185D01*
X138751761Y-137388761D01*
X138904185Y-137263671D01*
X139078078Y-137170723D01*
X139266772Y-137113483D01*
X139413825Y-137099000D01*
X140012175Y-137099000D01*
X140159228Y-137113483D01*
X140159228Y-137113483D01*
G37*
G36*
X127459228Y-137113483D02*
G01*
X127647922Y-137170723D01*
X127821815Y-137263671D01*
X127974239Y-137388761D01*
X128099329Y-137541185D01*
X128192277Y-137715078D01*
X128249517Y-137903772D01*
X128268843Y-138100000D01*
X128249517Y-138296228D01*
X128192277Y-138484922D01*
X128099329Y-138658815D01*
X127974239Y-138811239D01*
X127821815Y-138936329D01*
X127647922Y-139029277D01*
X127459228Y-139086517D01*
X127312175Y-139101000D01*
X126713825Y-139101000D01*
X126566772Y-139086517D01*
X126378078Y-139029277D01*
X126204185Y-138936329D01*
X126051761Y-138811239D01*
X125926671Y-138658815D01*
X125833723Y-138484922D01*
X125776483Y-138296228D01*
X125757157Y-138100000D01*
X125776483Y-137903772D01*
X125833723Y-137715078D01*
X125926671Y-137541185D01*
X126051761Y-137388761D01*
X126204185Y-137263671D01*
X126378078Y-137170723D01*
X126566772Y-137113483D01*
X126713825Y-137099000D01*
X127312175Y-137099000D01*
X127459228Y-137113483D01*
X127459228Y-137113483D01*
G37*
G36*
X153079823Y-134418313D02*
G01*
X153240242Y-134466976D01*
X153349435Y-134525341D01*
X153388078Y-134545996D01*
X153517659Y-134652341D01*
X153624004Y-134781922D01*
X153624005Y-134781924D01*
X153703024Y-134929758D01*
X153751687Y-135090177D01*
X153768117Y-135257000D01*
X153751687Y-135423823D01*
X153703024Y-135584242D01*
X153632612Y-135715973D01*
X153624004Y-135732078D01*
X153517659Y-135861659D01*
X153388078Y-135968004D01*
X153388076Y-135968005D01*
X153240242Y-136047024D01*
X153079823Y-136095687D01*
X152954804Y-136108000D01*
X151871196Y-136108000D01*
X151746177Y-136095687D01*
X151585758Y-136047024D01*
X151437924Y-135968005D01*
X151437922Y-135968004D01*
X151308341Y-135861659D01*
X151201996Y-135732078D01*
X151193388Y-135715973D01*
X151122976Y-135584242D01*
X151074313Y-135423823D01*
X151057883Y-135257000D01*
X151074313Y-135090177D01*
X151122976Y-134929758D01*
X151201995Y-134781924D01*
X151201996Y-134781922D01*
X151308341Y-134652341D01*
X151437922Y-134545996D01*
X151476565Y-134525341D01*
X151585758Y-134466976D01*
X151746177Y-134418313D01*
X151871196Y-134406000D01*
X152954804Y-134406000D01*
X153079823Y-134418313D01*
X153079823Y-134418313D01*
G37*
G36*
X140379823Y-134418313D02*
G01*
X140540242Y-134466976D01*
X140649435Y-134525341D01*
X140688078Y-134545996D01*
X140817659Y-134652341D01*
X140924004Y-134781922D01*
X140924005Y-134781924D01*
X141003024Y-134929758D01*
X141051687Y-135090177D01*
X141068117Y-135257000D01*
X141051687Y-135423823D01*
X141003024Y-135584242D01*
X140932612Y-135715973D01*
X140924004Y-135732078D01*
X140817659Y-135861659D01*
X140688078Y-135968004D01*
X140688076Y-135968005D01*
X140540242Y-136047024D01*
X140379823Y-136095687D01*
X140254804Y-136108000D01*
X139171196Y-136108000D01*
X139046177Y-136095687D01*
X138885758Y-136047024D01*
X138737924Y-135968005D01*
X138737922Y-135968004D01*
X138608341Y-135861659D01*
X138501996Y-135732078D01*
X138493388Y-135715973D01*
X138422976Y-135584242D01*
X138374313Y-135423823D01*
X138357883Y-135257000D01*
X138374313Y-135090177D01*
X138422976Y-134929758D01*
X138501995Y-134781924D01*
X138501996Y-134781922D01*
X138608341Y-134652341D01*
X138737922Y-134545996D01*
X138776565Y-134525341D01*
X138885758Y-134466976D01*
X139046177Y-134418313D01*
X139171196Y-134406000D01*
X140254804Y-134406000D01*
X140379823Y-134418313D01*
X140379823Y-134418313D01*
G37*
G36*
X127679823Y-134418313D02*
G01*
X127840242Y-134466976D01*
X127949435Y-134525341D01*
X127988078Y-134545996D01*
X128117659Y-134652341D01*
X128224004Y-134781922D01*
X128224005Y-134781924D01*
X128303024Y-134929758D01*
X128351687Y-135090177D01*
X128368117Y-135257000D01*
X128351687Y-135423823D01*
X128303024Y-135584242D01*
X128232612Y-135715973D01*
X128224004Y-135732078D01*
X128117659Y-135861659D01*
X127988078Y-135968004D01*
X127988076Y-135968005D01*
X127840242Y-136047024D01*
X127679823Y-136095687D01*
X127554804Y-136108000D01*
X126471196Y-136108000D01*
X126346177Y-136095687D01*
X126185758Y-136047024D01*
X126037924Y-135968005D01*
X126037922Y-135968004D01*
X125908341Y-135861659D01*
X125801996Y-135732078D01*
X125793388Y-135715973D01*
X125722976Y-135584242D01*
X125674313Y-135423823D01*
X125657883Y-135257000D01*
X125674313Y-135090177D01*
X125722976Y-134929758D01*
X125801995Y-134781924D01*
X125801996Y-134781922D01*
X125908341Y-134652341D01*
X126037922Y-134545996D01*
X126076565Y-134525341D01*
X126185758Y-134466976D01*
X126346177Y-134418313D01*
X126471196Y-134406000D01*
X127554804Y-134406000D01*
X127679823Y-134418313D01*
X127679823Y-134418313D01*
G37*
G36*
X160593564Y-134035389D02*
G01*
X160784833Y-134114615D01*
X160784835Y-134114616D01*
X160956973Y-134229635D01*
X161103365Y-134376027D01*
X161216935Y-134545996D01*
X161218385Y-134548167D01*
X161297611Y-134739436D01*
X161338000Y-134942484D01*
X161338000Y-135149516D01*
X161297611Y-135352564D01*
X161254253Y-135457239D01*
X161218384Y-135543835D01*
X161103365Y-135715973D01*
X160956973Y-135862365D01*
X160784835Y-135977384D01*
X160784834Y-135977385D01*
X160784833Y-135977385D01*
X160593564Y-136056611D01*
X160390516Y-136097000D01*
X160183484Y-136097000D01*
X159980436Y-136056611D01*
X159789167Y-135977385D01*
X159789166Y-135977385D01*
X159789165Y-135977384D01*
X159617027Y-135862365D01*
X159470635Y-135715973D01*
X159355616Y-135543835D01*
X159319747Y-135457239D01*
X159276389Y-135352564D01*
X159236000Y-135149516D01*
X159236000Y-134942484D01*
X159276389Y-134739436D01*
X159355615Y-134548167D01*
X159357066Y-134545996D01*
X159470635Y-134376027D01*
X159617027Y-134229635D01*
X159789165Y-134114616D01*
X159789167Y-134114615D01*
X159980436Y-134035389D01*
X160183484Y-133995000D01*
X160390516Y-133995000D01*
X160593564Y-134035389D01*
X160593564Y-134035389D01*
G37*
G36*
X165093564Y-134035389D02*
G01*
X165284833Y-134114615D01*
X165284835Y-134114616D01*
X165456973Y-134229635D01*
X165603365Y-134376027D01*
X165716935Y-134545996D01*
X165718385Y-134548167D01*
X165797611Y-134739436D01*
X165838000Y-134942484D01*
X165838000Y-135149516D01*
X165797611Y-135352564D01*
X165754253Y-135457239D01*
X165718384Y-135543835D01*
X165603365Y-135715973D01*
X165456973Y-135862365D01*
X165284835Y-135977384D01*
X165284834Y-135977385D01*
X165284833Y-135977385D01*
X165093564Y-136056611D01*
X164890516Y-136097000D01*
X164683484Y-136097000D01*
X164480436Y-136056611D01*
X164289167Y-135977385D01*
X164289166Y-135977385D01*
X164289165Y-135977384D01*
X164117027Y-135862365D01*
X163970635Y-135715973D01*
X163855616Y-135543835D01*
X163819747Y-135457239D01*
X163776389Y-135352564D01*
X163736000Y-135149516D01*
X163736000Y-134942484D01*
X163776389Y-134739436D01*
X163855615Y-134548167D01*
X163857066Y-134545996D01*
X163970635Y-134376027D01*
X164117027Y-134229635D01*
X164289165Y-134114616D01*
X164289167Y-134114615D01*
X164480436Y-134035389D01*
X164683484Y-133995000D01*
X164890516Y-133995000D01*
X165093564Y-134035389D01*
X165093564Y-134035389D01*
G37*
G36*
X173399823Y-134291313D02*
G01*
X173560242Y-134339976D01*
X173683764Y-134406000D01*
X173708078Y-134418996D01*
X173837659Y-134525341D01*
X173944004Y-134654922D01*
X173944005Y-134654924D01*
X174023024Y-134802758D01*
X174071687Y-134963177D01*
X174088117Y-135130000D01*
X174071687Y-135296823D01*
X174023024Y-135457242D01*
X173976740Y-135543833D01*
X173944004Y-135605078D01*
X173837659Y-135734659D01*
X173708078Y-135841004D01*
X173708076Y-135841005D01*
X173560242Y-135920024D01*
X173399823Y-135968687D01*
X173274804Y-135981000D01*
X172191196Y-135981000D01*
X172066177Y-135968687D01*
X171905758Y-135920024D01*
X171757924Y-135841005D01*
X171757922Y-135841004D01*
X171628341Y-135734659D01*
X171521996Y-135605078D01*
X171489260Y-135543833D01*
X171442976Y-135457242D01*
X171394313Y-135296823D01*
X171377883Y-135130000D01*
X171394313Y-134963177D01*
X171442976Y-134802758D01*
X171521995Y-134654924D01*
X171521996Y-134654922D01*
X171628341Y-134525341D01*
X171757922Y-134418996D01*
X171782236Y-134406000D01*
X171905758Y-134339976D01*
X172066177Y-134291313D01*
X172191196Y-134279000D01*
X173274804Y-134279000D01*
X173399823Y-134291313D01*
X173399823Y-134291313D01*
G37*
G36*
X159762142Y-131089242D02*
G01*
X159910101Y-131150529D01*
X160043255Y-131239499D01*
X160156501Y-131352745D01*
X160245471Y-131485899D01*
X160306758Y-131633858D01*
X160338000Y-131790925D01*
X160338000Y-131951075D01*
X160306758Y-132108142D01*
X160245471Y-132256101D01*
X160156501Y-132389255D01*
X160043255Y-132502501D01*
X159910101Y-132591471D01*
X159762142Y-132652758D01*
X159605075Y-132684000D01*
X159444925Y-132684000D01*
X159287858Y-132652758D01*
X159139899Y-132591471D01*
X159006745Y-132502501D01*
X158893499Y-132389255D01*
X158804529Y-132256101D01*
X158743242Y-132108142D01*
X158712000Y-131951075D01*
X158712000Y-131790925D01*
X158743242Y-131633858D01*
X158804529Y-131485899D01*
X158893499Y-131352745D01*
X159006745Y-131239499D01*
X159139899Y-131150529D01*
X159287858Y-131089242D01*
X159444925Y-131058000D01*
X159605075Y-131058000D01*
X159762142Y-131089242D01*
X159762142Y-131089242D01*
G37*
G36*
X166307000Y-132684000D02*
G01*
X164681000Y-132684000D01*
X164681000Y-131058000D01*
X166307000Y-131058000D01*
X166307000Y-132684000D01*
X166307000Y-132684000D01*
G37*
G36*
X160593564Y-127535389D02*
G01*
X160784833Y-127614615D01*
X160784835Y-127614616D01*
X160802215Y-127626229D01*
X160956973Y-127729635D01*
X161103365Y-127876027D01*
X161218385Y-128048167D01*
X161297611Y-128239436D01*
X161338000Y-128442484D01*
X161338000Y-128649516D01*
X161297611Y-128852564D01*
X161218385Y-129043833D01*
X161218384Y-129043835D01*
X161103365Y-129215973D01*
X160956973Y-129362365D01*
X160784835Y-129477384D01*
X160784834Y-129477385D01*
X160784833Y-129477385D01*
X160593564Y-129556611D01*
X160390516Y-129597000D01*
X160183484Y-129597000D01*
X159980436Y-129556611D01*
X159789167Y-129477385D01*
X159789166Y-129477385D01*
X159789165Y-129477384D01*
X159617027Y-129362365D01*
X159470635Y-129215973D01*
X159355616Y-129043835D01*
X159355615Y-129043833D01*
X159276389Y-128852564D01*
X159236000Y-128649516D01*
X159236000Y-128442484D01*
X159276389Y-128239436D01*
X159355615Y-128048167D01*
X159470635Y-127876027D01*
X159617027Y-127729635D01*
X159771785Y-127626229D01*
X159789165Y-127614616D01*
X159789167Y-127614615D01*
X159980436Y-127535389D01*
X160183484Y-127495000D01*
X160390516Y-127495000D01*
X160593564Y-127535389D01*
X160593564Y-127535389D01*
G37*
G36*
X165093564Y-127535389D02*
G01*
X165284833Y-127614615D01*
X165284835Y-127614616D01*
X165302215Y-127626229D01*
X165456973Y-127729635D01*
X165603365Y-127876027D01*
X165718385Y-128048167D01*
X165797611Y-128239436D01*
X165838000Y-128442484D01*
X165838000Y-128649516D01*
X165797611Y-128852564D01*
X165718385Y-129043833D01*
X165718384Y-129043835D01*
X165603365Y-129215973D01*
X165456973Y-129362365D01*
X165284835Y-129477384D01*
X165284834Y-129477385D01*
X165284833Y-129477385D01*
X165093564Y-129556611D01*
X164890516Y-129597000D01*
X164683484Y-129597000D01*
X164480436Y-129556611D01*
X164289167Y-129477385D01*
X164289166Y-129477385D01*
X164289165Y-129477384D01*
X164117027Y-129362365D01*
X163970635Y-129215973D01*
X163855616Y-129043835D01*
X163855615Y-129043833D01*
X163776389Y-128852564D01*
X163736000Y-128649516D01*
X163736000Y-128442484D01*
X163776389Y-128239436D01*
X163855615Y-128048167D01*
X163970635Y-127876027D01*
X164117027Y-127729635D01*
X164271785Y-127626229D01*
X164289165Y-127614616D01*
X164289167Y-127614615D01*
X164480436Y-127535389D01*
X164683484Y-127495000D01*
X164890516Y-127495000D01*
X165093564Y-127535389D01*
X165093564Y-127535389D01*
G37*
G36*
X140341571Y-126159863D02*
G01*
X140420023Y-126167590D01*
X140520682Y-126198125D01*
X140571013Y-126213392D01*
X140710165Y-126287771D01*
X140832133Y-126387867D01*
X140932229Y-126509835D01*
X141006608Y-126648987D01*
X141006608Y-126648988D01*
X141052410Y-126799977D01*
X141067875Y-126957000D01*
X141052410Y-127114023D01*
X141021875Y-127214682D01*
X141006608Y-127265013D01*
X140932229Y-127404165D01*
X140832133Y-127526133D01*
X140710165Y-127626229D01*
X140571013Y-127700608D01*
X140520682Y-127715875D01*
X140420023Y-127746410D01*
X140341571Y-127754137D01*
X140302346Y-127758000D01*
X139123654Y-127758000D01*
X139084429Y-127754137D01*
X139005977Y-127746410D01*
X138905318Y-127715875D01*
X138854987Y-127700608D01*
X138715835Y-127626229D01*
X138593867Y-127526133D01*
X138493771Y-127404165D01*
X138419392Y-127265013D01*
X138404125Y-127214682D01*
X138373590Y-127114023D01*
X138358125Y-126957000D01*
X138373590Y-126799977D01*
X138419392Y-126648988D01*
X138419392Y-126648987D01*
X138493771Y-126509835D01*
X138593867Y-126387867D01*
X138715835Y-126287771D01*
X138854987Y-126213392D01*
X138905318Y-126198125D01*
X139005977Y-126167590D01*
X139084429Y-126159863D01*
X139123654Y-126156000D01*
X140302346Y-126156000D01*
X140341571Y-126159863D01*
X140341571Y-126159863D01*
G37*
G36*
X127641571Y-126159863D02*
G01*
X127720023Y-126167590D01*
X127820682Y-126198125D01*
X127871013Y-126213392D01*
X128010165Y-126287771D01*
X128132133Y-126387867D01*
X128232229Y-126509835D01*
X128306608Y-126648987D01*
X128306608Y-126648988D01*
X128352410Y-126799977D01*
X128367875Y-126957000D01*
X128352410Y-127114023D01*
X128321875Y-127214682D01*
X128306608Y-127265013D01*
X128232229Y-127404165D01*
X128132133Y-127526133D01*
X128010165Y-127626229D01*
X127871013Y-127700608D01*
X127820682Y-127715875D01*
X127720023Y-127746410D01*
X127641571Y-127754137D01*
X127602346Y-127758000D01*
X126423654Y-127758000D01*
X126384429Y-127754137D01*
X126305977Y-127746410D01*
X126205318Y-127715875D01*
X126154987Y-127700608D01*
X126015835Y-127626229D01*
X125893867Y-127526133D01*
X125793771Y-127404165D01*
X125719392Y-127265013D01*
X125704125Y-127214682D01*
X125673590Y-127114023D01*
X125658125Y-126957000D01*
X125673590Y-126799977D01*
X125719392Y-126648988D01*
X125719392Y-126648987D01*
X125793771Y-126509835D01*
X125893867Y-126387867D01*
X126015835Y-126287771D01*
X126154987Y-126213392D01*
X126205318Y-126198125D01*
X126305977Y-126167590D01*
X126384429Y-126159863D01*
X126423654Y-126156000D01*
X127602346Y-126156000D01*
X127641571Y-126159863D01*
X127641571Y-126159863D01*
G37*
G36*
X153041571Y-126159863D02*
G01*
X153120023Y-126167590D01*
X153220682Y-126198125D01*
X153271013Y-126213392D01*
X153410165Y-126287771D01*
X153532133Y-126387867D01*
X153632229Y-126509835D01*
X153706608Y-126648987D01*
X153706608Y-126648988D01*
X153752410Y-126799977D01*
X153767875Y-126957000D01*
X153752410Y-127114023D01*
X153721875Y-127214682D01*
X153706608Y-127265013D01*
X153632229Y-127404165D01*
X153532133Y-127526133D01*
X153410165Y-127626229D01*
X153271013Y-127700608D01*
X153220682Y-127715875D01*
X153120023Y-127746410D01*
X153041571Y-127754137D01*
X153002346Y-127758000D01*
X151823654Y-127758000D01*
X151784429Y-127754137D01*
X151705977Y-127746410D01*
X151605318Y-127715875D01*
X151554987Y-127700608D01*
X151415835Y-127626229D01*
X151293867Y-127526133D01*
X151193771Y-127404165D01*
X151119392Y-127265013D01*
X151104125Y-127214682D01*
X151073590Y-127114023D01*
X151058125Y-126957000D01*
X151073590Y-126799977D01*
X151119392Y-126648988D01*
X151119392Y-126648987D01*
X151193771Y-126509835D01*
X151293867Y-126387867D01*
X151415835Y-126287771D01*
X151554987Y-126213392D01*
X151605318Y-126198125D01*
X151705977Y-126167590D01*
X151784429Y-126159863D01*
X151823654Y-126156000D01*
X153002346Y-126156000D01*
X153041571Y-126159863D01*
X153041571Y-126159863D01*
G37*
G36*
X173361571Y-126032863D02*
G01*
X173440023Y-126040590D01*
X173540682Y-126071125D01*
X173591013Y-126086392D01*
X173730165Y-126160771D01*
X173852133Y-126260867D01*
X173952229Y-126382835D01*
X174026608Y-126521987D01*
X174026608Y-126521988D01*
X174072410Y-126672977D01*
X174087875Y-126830000D01*
X174072410Y-126987023D01*
X174041875Y-127087682D01*
X174026608Y-127138013D01*
X173952229Y-127277165D01*
X173852133Y-127399133D01*
X173730165Y-127499229D01*
X173591013Y-127573608D01*
X173540682Y-127588875D01*
X173440023Y-127619410D01*
X173370787Y-127626229D01*
X173322346Y-127631000D01*
X172143654Y-127631000D01*
X172095213Y-127626229D01*
X172025977Y-127619410D01*
X171925318Y-127588875D01*
X171874987Y-127573608D01*
X171735835Y-127499229D01*
X171613867Y-127399133D01*
X171513771Y-127277165D01*
X171439392Y-127138013D01*
X171424125Y-127087682D01*
X171393590Y-126987023D01*
X171378125Y-126830000D01*
X171393590Y-126672977D01*
X171439392Y-126521988D01*
X171439392Y-126521987D01*
X171513771Y-126382835D01*
X171613867Y-126260867D01*
X171735835Y-126160771D01*
X171874987Y-126086392D01*
X171925318Y-126071125D01*
X172025977Y-126040590D01*
X172104429Y-126032863D01*
X172143654Y-126029000D01*
X173322346Y-126029000D01*
X173361571Y-126032863D01*
X173361571Y-126032863D01*
G37*
G36*
X173361571Y-123172863D02*
G01*
X173440023Y-123180590D01*
X173540682Y-123211125D01*
X173591013Y-123226392D01*
X173730165Y-123300771D01*
X173852133Y-123400867D01*
X173952229Y-123522835D01*
X174026608Y-123661987D01*
X174026608Y-123661988D01*
X174072410Y-123812977D01*
X174087875Y-123970000D01*
X174072410Y-124127023D01*
X174041875Y-124227682D01*
X174026608Y-124278013D01*
X173952229Y-124417165D01*
X173852133Y-124539133D01*
X173730165Y-124639229D01*
X173591013Y-124713608D01*
X173540682Y-124728875D01*
X173440023Y-124759410D01*
X173361571Y-124767137D01*
X173322346Y-124771000D01*
X172143654Y-124771000D01*
X172104429Y-124767137D01*
X172025977Y-124759410D01*
X171925318Y-124728875D01*
X171874987Y-124713608D01*
X171735835Y-124639229D01*
X171613867Y-124539133D01*
X171513771Y-124417165D01*
X171439392Y-124278013D01*
X171424125Y-124227682D01*
X171393590Y-124127023D01*
X171378125Y-123970000D01*
X171393590Y-123812977D01*
X171439392Y-123661988D01*
X171439392Y-123661987D01*
X171513771Y-123522835D01*
X171613867Y-123400867D01*
X171735835Y-123300771D01*
X171874987Y-123226392D01*
X171925318Y-123211125D01*
X172025977Y-123180590D01*
X172104429Y-123172863D01*
X172143654Y-123169000D01*
X173322346Y-123169000D01*
X173361571Y-123172863D01*
X173361571Y-123172863D01*
G37*
G36*
X165093564Y-121341389D02*
G01*
X165284833Y-121420615D01*
X165284835Y-121420616D01*
X165456973Y-121535635D01*
X165603365Y-121682027D01*
X165682971Y-121801165D01*
X165718385Y-121854167D01*
X165797611Y-122045436D01*
X165838000Y-122248484D01*
X165838000Y-122455516D01*
X165797611Y-122658564D01*
X165740338Y-122796833D01*
X165718384Y-122849835D01*
X165603365Y-123021973D01*
X165456973Y-123168365D01*
X165284835Y-123283384D01*
X165284834Y-123283385D01*
X165284833Y-123283385D01*
X165093564Y-123362611D01*
X164890516Y-123403000D01*
X164683484Y-123403000D01*
X164480436Y-123362611D01*
X164289167Y-123283385D01*
X164289166Y-123283385D01*
X164289165Y-123283384D01*
X164117027Y-123168365D01*
X163970635Y-123021973D01*
X163855616Y-122849835D01*
X163833662Y-122796833D01*
X163776389Y-122658564D01*
X163736000Y-122455516D01*
X163736000Y-122248484D01*
X163776389Y-122045436D01*
X163855615Y-121854167D01*
X163891030Y-121801165D01*
X163970635Y-121682027D01*
X164117027Y-121535635D01*
X164289165Y-121420616D01*
X164289167Y-121420615D01*
X164480436Y-121341389D01*
X164683484Y-121301000D01*
X164890516Y-121301000D01*
X165093564Y-121341389D01*
X165093564Y-121341389D01*
G37*
G36*
X160593564Y-121341389D02*
G01*
X160784833Y-121420615D01*
X160784835Y-121420616D01*
X160956973Y-121535635D01*
X161103365Y-121682027D01*
X161182971Y-121801165D01*
X161218385Y-121854167D01*
X161297611Y-122045436D01*
X161338000Y-122248484D01*
X161338000Y-122455516D01*
X161297611Y-122658564D01*
X161240338Y-122796833D01*
X161218384Y-122849835D01*
X161103365Y-123021973D01*
X160956973Y-123168365D01*
X160784835Y-123283384D01*
X160784834Y-123283385D01*
X160784833Y-123283385D01*
X160593564Y-123362611D01*
X160390516Y-123403000D01*
X160183484Y-123403000D01*
X159980436Y-123362611D01*
X159789167Y-123283385D01*
X159789166Y-123283385D01*
X159789165Y-123283384D01*
X159617027Y-123168365D01*
X159470635Y-123021973D01*
X159355616Y-122849835D01*
X159333662Y-122796833D01*
X159276389Y-122658564D01*
X159236000Y-122455516D01*
X159236000Y-122248484D01*
X159276389Y-122045436D01*
X159355615Y-121854167D01*
X159391030Y-121801165D01*
X159470635Y-121682027D01*
X159617027Y-121535635D01*
X159789165Y-121420616D01*
X159789167Y-121420615D01*
X159980436Y-121341389D01*
X160183484Y-121301000D01*
X160390516Y-121301000D01*
X160593564Y-121341389D01*
X160593564Y-121341389D01*
G37*
G36*
X154929564Y-121288389D02*
G01*
X155066771Y-121345222D01*
X155120835Y-121367616D01*
X155292973Y-121482635D01*
X155439365Y-121629027D01*
X155521222Y-121751534D01*
X155554385Y-121801167D01*
X155633611Y-121992436D01*
X155674000Y-122195484D01*
X155674000Y-122402516D01*
X155633611Y-122605564D01*
X155578677Y-122738186D01*
X155554384Y-122796835D01*
X155439365Y-122968973D01*
X155292973Y-123115365D01*
X155120835Y-123230384D01*
X155120834Y-123230385D01*
X155120833Y-123230385D01*
X154929564Y-123309611D01*
X154726516Y-123350000D01*
X154519484Y-123350000D01*
X154316436Y-123309611D01*
X154125167Y-123230385D01*
X154125166Y-123230385D01*
X154125165Y-123230384D01*
X153953027Y-123115365D01*
X153806635Y-122968973D01*
X153691616Y-122796835D01*
X153667323Y-122738186D01*
X153612389Y-122605564D01*
X153572000Y-122402516D01*
X153572000Y-122195484D01*
X153612389Y-121992436D01*
X153691615Y-121801167D01*
X153724779Y-121751534D01*
X153806635Y-121629027D01*
X153953027Y-121482635D01*
X154125165Y-121367616D01*
X154179229Y-121345222D01*
X154316436Y-121288389D01*
X154519484Y-121248000D01*
X154726516Y-121248000D01*
X154929564Y-121288389D01*
X154929564Y-121288389D01*
G37*
G36*
X150429564Y-121288389D02*
G01*
X150566771Y-121345222D01*
X150620835Y-121367616D01*
X150792973Y-121482635D01*
X150939365Y-121629027D01*
X151021222Y-121751534D01*
X151054385Y-121801167D01*
X151133611Y-121992436D01*
X151174000Y-122195484D01*
X151174000Y-122402516D01*
X151133611Y-122605564D01*
X151078677Y-122738186D01*
X151054384Y-122796835D01*
X150939365Y-122968973D01*
X150792973Y-123115365D01*
X150620835Y-123230384D01*
X150620834Y-123230385D01*
X150620833Y-123230385D01*
X150429564Y-123309611D01*
X150226516Y-123350000D01*
X150019484Y-123350000D01*
X149816436Y-123309611D01*
X149625167Y-123230385D01*
X149625166Y-123230385D01*
X149625165Y-123230384D01*
X149453027Y-123115365D01*
X149306635Y-122968973D01*
X149191616Y-122796835D01*
X149167323Y-122738186D01*
X149112389Y-122605564D01*
X149072000Y-122402516D01*
X149072000Y-122195484D01*
X149112389Y-121992436D01*
X149191615Y-121801167D01*
X149224779Y-121751534D01*
X149306635Y-121629027D01*
X149453027Y-121482635D01*
X149625165Y-121367616D01*
X149679229Y-121345222D01*
X149816436Y-121288389D01*
X150019484Y-121248000D01*
X150226516Y-121248000D01*
X150429564Y-121288389D01*
X150429564Y-121288389D01*
G37*
G36*
X125345443Y-121203519D02*
G01*
X125411627Y-121210037D01*
X125581466Y-121261557D01*
X125737991Y-121345222D01*
X125765277Y-121367615D01*
X125875186Y-121457814D01*
X125939051Y-121535635D01*
X125987778Y-121595009D01*
X126071443Y-121751534D01*
X126122963Y-121921373D01*
X126140359Y-122098000D01*
X126122963Y-122274627D01*
X126071443Y-122444466D01*
X125987778Y-122600991D01*
X125984024Y-122605565D01*
X125875186Y-122738186D01*
X125773729Y-122821448D01*
X125737991Y-122850778D01*
X125581466Y-122934443D01*
X125411627Y-122985963D01*
X125345442Y-122992482D01*
X125279260Y-122999000D01*
X125190740Y-122999000D01*
X125124558Y-122992482D01*
X125058373Y-122985963D01*
X124888534Y-122934443D01*
X124732009Y-122850778D01*
X124696271Y-122821448D01*
X124594814Y-122738186D01*
X124485976Y-122605565D01*
X124482222Y-122600991D01*
X124398557Y-122444466D01*
X124347037Y-122274627D01*
X124329641Y-122098000D01*
X124347037Y-121921373D01*
X124398557Y-121751534D01*
X124482222Y-121595009D01*
X124530949Y-121535635D01*
X124594814Y-121457814D01*
X124704723Y-121367615D01*
X124732009Y-121345222D01*
X124888534Y-121261557D01*
X125058373Y-121210037D01*
X125124557Y-121203519D01*
X125190740Y-121197000D01*
X125279260Y-121197000D01*
X125345443Y-121203519D01*
X125345443Y-121203519D01*
G37*
G36*
X123596000Y-122999000D02*
G01*
X121794000Y-122999000D01*
X121794000Y-121197000D01*
X123596000Y-121197000D01*
X123596000Y-122999000D01*
X123596000Y-122999000D01*
G37*
G36*
X139979564Y-119309389D02*
G01*
X140153349Y-119381373D01*
X140170835Y-119388616D01*
X140342973Y-119503635D01*
X140489365Y-119650027D01*
X140595253Y-119808499D01*
X140604385Y-119822167D01*
X140683611Y-120013436D01*
X140724000Y-120216484D01*
X140724000Y-120423516D01*
X140683611Y-120626564D01*
X140604385Y-120817833D01*
X140604384Y-120817835D01*
X140489365Y-120989973D01*
X140342973Y-121136365D01*
X140170835Y-121251384D01*
X140170834Y-121251385D01*
X140170833Y-121251385D01*
X139979564Y-121330611D01*
X139776516Y-121371000D01*
X139569484Y-121371000D01*
X139366436Y-121330611D01*
X139175167Y-121251385D01*
X139175166Y-121251385D01*
X139175165Y-121251384D01*
X139003027Y-121136365D01*
X138856635Y-120989973D01*
X138741616Y-120817835D01*
X138741615Y-120817833D01*
X138662389Y-120626564D01*
X138622000Y-120423516D01*
X138622000Y-120216484D01*
X138662389Y-120013436D01*
X138741615Y-119822167D01*
X138750748Y-119808499D01*
X138856635Y-119650027D01*
X139003027Y-119503635D01*
X139175165Y-119388616D01*
X139192651Y-119381373D01*
X139366436Y-119309389D01*
X139569484Y-119269000D01*
X139776516Y-119269000D01*
X139979564Y-119309389D01*
X139979564Y-119309389D01*
G37*
G36*
X138224000Y-121371000D02*
G01*
X136122000Y-121371000D01*
X136122000Y-119269000D01*
X138224000Y-119269000D01*
X138224000Y-121371000D01*
X138224000Y-121371000D01*
G37*
G36*
X142479564Y-119309389D02*
G01*
X142653349Y-119381373D01*
X142670835Y-119388616D01*
X142842973Y-119503635D01*
X142989365Y-119650027D01*
X143095253Y-119808499D01*
X143104385Y-119822167D01*
X143183611Y-120013436D01*
X143224000Y-120216484D01*
X143224000Y-120423516D01*
X143183611Y-120626564D01*
X143104385Y-120817833D01*
X143104384Y-120817835D01*
X142989365Y-120989973D01*
X142842973Y-121136365D01*
X142670835Y-121251384D01*
X142670834Y-121251385D01*
X142670833Y-121251385D01*
X142479564Y-121330611D01*
X142276516Y-121371000D01*
X142069484Y-121371000D01*
X141866436Y-121330611D01*
X141675167Y-121251385D01*
X141675166Y-121251385D01*
X141675165Y-121251384D01*
X141503027Y-121136365D01*
X141356635Y-120989973D01*
X141241616Y-120817835D01*
X141241615Y-120817833D01*
X141162389Y-120626564D01*
X141122000Y-120423516D01*
X141122000Y-120216484D01*
X141162389Y-120013436D01*
X141241615Y-119822167D01*
X141250748Y-119808499D01*
X141356635Y-119650027D01*
X141503027Y-119503635D01*
X141675165Y-119388616D01*
X141692651Y-119381373D01*
X141866436Y-119309389D01*
X142069484Y-119269000D01*
X142276516Y-119269000D01*
X142479564Y-119309389D01*
X142479564Y-119309389D01*
G37*
G36*
X125345442Y-118663518D02*
G01*
X125411627Y-118670037D01*
X125581466Y-118721557D01*
X125737991Y-118805222D01*
X125773729Y-118834552D01*
X125875186Y-118917814D01*
X125958448Y-119019271D01*
X125987778Y-119055009D01*
X126071443Y-119211534D01*
X126122963Y-119381373D01*
X126140359Y-119558000D01*
X126122963Y-119734627D01*
X126071443Y-119904466D01*
X125987778Y-120060991D01*
X125958448Y-120096729D01*
X125875186Y-120198186D01*
X125773729Y-120281448D01*
X125737991Y-120310778D01*
X125581466Y-120394443D01*
X125411627Y-120445963D01*
X125345443Y-120452481D01*
X125279260Y-120459000D01*
X125190740Y-120459000D01*
X125124557Y-120452481D01*
X125058373Y-120445963D01*
X124888534Y-120394443D01*
X124732009Y-120310778D01*
X124696271Y-120281448D01*
X124594814Y-120198186D01*
X124511552Y-120096729D01*
X124482222Y-120060991D01*
X124398557Y-119904466D01*
X124347037Y-119734627D01*
X124329641Y-119558000D01*
X124347037Y-119381373D01*
X124398557Y-119211534D01*
X124482222Y-119055009D01*
X124511552Y-119019271D01*
X124594814Y-118917814D01*
X124696271Y-118834552D01*
X124732009Y-118805222D01*
X124888534Y-118721557D01*
X125058373Y-118670037D01*
X125124558Y-118663518D01*
X125190740Y-118657000D01*
X125279260Y-118657000D01*
X125345442Y-118663518D01*
X125345442Y-118663518D01*
G37*
G36*
X122805442Y-118663518D02*
G01*
X122871627Y-118670037D01*
X123041466Y-118721557D01*
X123197991Y-118805222D01*
X123233729Y-118834552D01*
X123335186Y-118917814D01*
X123418448Y-119019271D01*
X123447778Y-119055009D01*
X123531443Y-119211534D01*
X123582963Y-119381373D01*
X123600359Y-119558000D01*
X123582963Y-119734627D01*
X123531443Y-119904466D01*
X123447778Y-120060991D01*
X123418448Y-120096729D01*
X123335186Y-120198186D01*
X123233729Y-120281448D01*
X123197991Y-120310778D01*
X123041466Y-120394443D01*
X122871627Y-120445963D01*
X122805443Y-120452481D01*
X122739260Y-120459000D01*
X122650740Y-120459000D01*
X122584557Y-120452481D01*
X122518373Y-120445963D01*
X122348534Y-120394443D01*
X122192009Y-120310778D01*
X122156271Y-120281448D01*
X122054814Y-120198186D01*
X121971552Y-120096729D01*
X121942222Y-120060991D01*
X121858557Y-119904466D01*
X121807037Y-119734627D01*
X121789641Y-119558000D01*
X121807037Y-119381373D01*
X121858557Y-119211534D01*
X121942222Y-119055009D01*
X121971552Y-119019271D01*
X122054814Y-118917814D01*
X122156271Y-118834552D01*
X122192009Y-118805222D01*
X122348534Y-118721557D01*
X122518373Y-118670037D01*
X122584558Y-118663518D01*
X122650740Y-118657000D01*
X122739260Y-118657000D01*
X122805442Y-118663518D01*
X122805442Y-118663518D01*
G37*
G36*
X166307000Y-119990000D02*
G01*
X164681000Y-119990000D01*
X164681000Y-118364000D01*
X166307000Y-118364000D01*
X166307000Y-119990000D01*
X166307000Y-119990000D01*
G37*
G36*
X159762142Y-118395242D02*
G01*
X159910101Y-118456529D01*
X160043255Y-118545499D01*
X160156501Y-118658745D01*
X160245471Y-118791899D01*
X160306758Y-118939858D01*
X160338000Y-119096925D01*
X160338000Y-119257075D01*
X160306758Y-119414142D01*
X160245471Y-119562101D01*
X160156501Y-119695255D01*
X160043255Y-119808501D01*
X159910101Y-119897471D01*
X159762142Y-119958758D01*
X159605075Y-119990000D01*
X159444925Y-119990000D01*
X159287858Y-119958758D01*
X159139899Y-119897471D01*
X159006745Y-119808501D01*
X158893499Y-119695255D01*
X158804529Y-119562101D01*
X158743242Y-119414142D01*
X158712000Y-119257075D01*
X158712000Y-119096925D01*
X158743242Y-118939858D01*
X158804529Y-118791899D01*
X158893499Y-118658745D01*
X159006745Y-118545499D01*
X159139899Y-118456529D01*
X159287858Y-118395242D01*
X159444925Y-118364000D01*
X159605075Y-118364000D01*
X159762142Y-118395242D01*
X159762142Y-118395242D01*
G37*
G36*
X125345442Y-116123518D02*
G01*
X125411627Y-116130037D01*
X125581466Y-116181557D01*
X125737991Y-116265222D01*
X125773729Y-116294552D01*
X125875186Y-116377814D01*
X125949997Y-116468973D01*
X125987778Y-116515009D01*
X126071443Y-116671534D01*
X126122963Y-116841373D01*
X126140359Y-117018000D01*
X126122963Y-117194627D01*
X126071443Y-117364466D01*
X125987778Y-117520991D01*
X125958448Y-117556729D01*
X125875186Y-117658186D01*
X125773729Y-117741448D01*
X125737991Y-117770778D01*
X125581466Y-117854443D01*
X125411627Y-117905963D01*
X125345442Y-117912482D01*
X125279260Y-117919000D01*
X125190740Y-117919000D01*
X125124558Y-117912482D01*
X125058373Y-117905963D01*
X124888534Y-117854443D01*
X124732009Y-117770778D01*
X124696271Y-117741448D01*
X124594814Y-117658186D01*
X124511552Y-117556729D01*
X124482222Y-117520991D01*
X124398557Y-117364466D01*
X124347037Y-117194627D01*
X124329641Y-117018000D01*
X124347037Y-116841373D01*
X124398557Y-116671534D01*
X124482222Y-116515009D01*
X124520003Y-116468973D01*
X124594814Y-116377814D01*
X124696271Y-116294552D01*
X124732009Y-116265222D01*
X124888534Y-116181557D01*
X125058373Y-116130037D01*
X125124558Y-116123518D01*
X125190740Y-116117000D01*
X125279260Y-116117000D01*
X125345442Y-116123518D01*
X125345442Y-116123518D01*
G37*
G36*
X122805442Y-116123518D02*
G01*
X122871627Y-116130037D01*
X123041466Y-116181557D01*
X123197991Y-116265222D01*
X123233729Y-116294552D01*
X123335186Y-116377814D01*
X123409997Y-116468973D01*
X123447778Y-116515009D01*
X123531443Y-116671534D01*
X123582963Y-116841373D01*
X123600359Y-117018000D01*
X123582963Y-117194627D01*
X123531443Y-117364466D01*
X123447778Y-117520991D01*
X123418448Y-117556729D01*
X123335186Y-117658186D01*
X123233729Y-117741448D01*
X123197991Y-117770778D01*
X123041466Y-117854443D01*
X122871627Y-117905963D01*
X122805442Y-117912482D01*
X122739260Y-117919000D01*
X122650740Y-117919000D01*
X122584558Y-117912482D01*
X122518373Y-117905963D01*
X122348534Y-117854443D01*
X122192009Y-117770778D01*
X122156271Y-117741448D01*
X122054814Y-117658186D01*
X121971552Y-117556729D01*
X121942222Y-117520991D01*
X121858557Y-117364466D01*
X121807037Y-117194627D01*
X121789641Y-117018000D01*
X121807037Y-116841373D01*
X121858557Y-116671534D01*
X121942222Y-116515009D01*
X121980003Y-116468973D01*
X122054814Y-116377814D01*
X122156271Y-116294552D01*
X122192009Y-116265222D01*
X122348534Y-116181557D01*
X122518373Y-116130037D01*
X122584558Y-116123518D01*
X122650740Y-116117000D01*
X122739260Y-116117000D01*
X122805442Y-116123518D01*
X122805442Y-116123518D01*
G37*
G36*
X165093564Y-114841389D02*
G01*
X165284833Y-114920615D01*
X165284835Y-114920616D01*
X165456973Y-115035635D01*
X165603365Y-115182027D01*
X165691843Y-115314443D01*
X165718385Y-115354167D01*
X165797611Y-115545436D01*
X165838000Y-115748484D01*
X165838000Y-115955516D01*
X165797611Y-116158564D01*
X165753432Y-116265221D01*
X165718384Y-116349835D01*
X165603365Y-116521973D01*
X165456973Y-116668365D01*
X165284835Y-116783384D01*
X165284834Y-116783385D01*
X165284833Y-116783385D01*
X165093564Y-116862611D01*
X164890516Y-116903000D01*
X164683484Y-116903000D01*
X164480436Y-116862611D01*
X164289167Y-116783385D01*
X164289166Y-116783385D01*
X164289165Y-116783384D01*
X164117027Y-116668365D01*
X163970635Y-116521973D01*
X163855616Y-116349835D01*
X163820568Y-116265221D01*
X163776389Y-116158564D01*
X163736000Y-115955516D01*
X163736000Y-115748484D01*
X163776389Y-115545436D01*
X163855615Y-115354167D01*
X163882158Y-115314443D01*
X163970635Y-115182027D01*
X164117027Y-115035635D01*
X164289165Y-114920616D01*
X164289167Y-114920615D01*
X164480436Y-114841389D01*
X164683484Y-114801000D01*
X164890516Y-114801000D01*
X165093564Y-114841389D01*
X165093564Y-114841389D01*
G37*
G36*
X160593564Y-114841389D02*
G01*
X160784833Y-114920615D01*
X160784835Y-114920616D01*
X160956973Y-115035635D01*
X161103365Y-115182027D01*
X161191843Y-115314443D01*
X161218385Y-115354167D01*
X161297611Y-115545436D01*
X161338000Y-115748484D01*
X161338000Y-115955516D01*
X161297611Y-116158564D01*
X161253432Y-116265221D01*
X161218384Y-116349835D01*
X161103365Y-116521973D01*
X160956973Y-116668365D01*
X160784835Y-116783384D01*
X160784834Y-116783385D01*
X160784833Y-116783385D01*
X160593564Y-116862611D01*
X160390516Y-116903000D01*
X160183484Y-116903000D01*
X159980436Y-116862611D01*
X159789167Y-116783385D01*
X159789166Y-116783385D01*
X159789165Y-116783384D01*
X159617027Y-116668365D01*
X159470635Y-116521973D01*
X159355616Y-116349835D01*
X159320568Y-116265221D01*
X159276389Y-116158564D01*
X159236000Y-115955516D01*
X159236000Y-115748484D01*
X159276389Y-115545436D01*
X159355615Y-115354167D01*
X159382158Y-115314443D01*
X159470635Y-115182027D01*
X159617027Y-115035635D01*
X159789165Y-114920616D01*
X159789167Y-114920615D01*
X159980436Y-114841389D01*
X160183484Y-114801000D01*
X160390516Y-114801000D01*
X160593564Y-114841389D01*
X160593564Y-114841389D01*
G37*
G36*
X154929564Y-114788389D02*
G01*
X155120833Y-114867615D01*
X155120835Y-114867616D01*
X155292973Y-114982635D01*
X155439365Y-115129027D01*
X155507354Y-115230779D01*
X155554385Y-115301167D01*
X155633611Y-115492436D01*
X155674000Y-115695484D01*
X155674000Y-115902516D01*
X155633611Y-116105564D01*
X155563570Y-116274659D01*
X155554384Y-116296835D01*
X155439365Y-116468973D01*
X155292973Y-116615365D01*
X155120835Y-116730384D01*
X155120834Y-116730385D01*
X155120833Y-116730385D01*
X154929564Y-116809611D01*
X154726516Y-116850000D01*
X154519484Y-116850000D01*
X154316436Y-116809611D01*
X154125167Y-116730385D01*
X154125166Y-116730385D01*
X154125165Y-116730384D01*
X153953027Y-116615365D01*
X153806635Y-116468973D01*
X153691616Y-116296835D01*
X153682430Y-116274659D01*
X153612389Y-116105564D01*
X153572000Y-115902516D01*
X153572000Y-115695484D01*
X153612389Y-115492436D01*
X153691615Y-115301167D01*
X153738647Y-115230779D01*
X153806635Y-115129027D01*
X153953027Y-114982635D01*
X154125165Y-114867616D01*
X154125167Y-114867615D01*
X154316436Y-114788389D01*
X154519484Y-114748000D01*
X154726516Y-114748000D01*
X154929564Y-114788389D01*
X154929564Y-114788389D01*
G37*
G36*
X150429564Y-114788389D02*
G01*
X150620833Y-114867615D01*
X150620835Y-114867616D01*
X150792973Y-114982635D01*
X150939365Y-115129027D01*
X151007354Y-115230779D01*
X151054385Y-115301167D01*
X151133611Y-115492436D01*
X151174000Y-115695484D01*
X151174000Y-115902516D01*
X151133611Y-116105564D01*
X151063570Y-116274659D01*
X151054384Y-116296835D01*
X150939365Y-116468973D01*
X150792973Y-116615365D01*
X150620835Y-116730384D01*
X150620834Y-116730385D01*
X150620833Y-116730385D01*
X150429564Y-116809611D01*
X150226516Y-116850000D01*
X150019484Y-116850000D01*
X149816436Y-116809611D01*
X149625167Y-116730385D01*
X149625166Y-116730385D01*
X149625165Y-116730384D01*
X149453027Y-116615365D01*
X149306635Y-116468973D01*
X149191616Y-116296835D01*
X149182430Y-116274659D01*
X149112389Y-116105564D01*
X149072000Y-115902516D01*
X149072000Y-115695484D01*
X149112389Y-115492436D01*
X149191615Y-115301167D01*
X149238647Y-115230779D01*
X149306635Y-115129027D01*
X149453027Y-114982635D01*
X149625165Y-114867616D01*
X149625167Y-114867615D01*
X149816436Y-114788389D01*
X150019484Y-114748000D01*
X150226516Y-114748000D01*
X150429564Y-114788389D01*
X150429564Y-114788389D01*
G37*
G36*
X173399823Y-114831313D02*
G01*
X173560242Y-114879976D01*
X173636272Y-114920615D01*
X173708078Y-114958996D01*
X173837659Y-115065341D01*
X173944004Y-115194922D01*
X173944005Y-115194924D01*
X174023024Y-115342758D01*
X174071687Y-115503177D01*
X174088117Y-115670000D01*
X174071687Y-115836823D01*
X174023024Y-115997242D01*
X173965125Y-116105564D01*
X173944004Y-116145078D01*
X173837659Y-116274659D01*
X173708078Y-116381004D01*
X173708076Y-116381005D01*
X173560242Y-116460024D01*
X173399823Y-116508687D01*
X173274804Y-116521000D01*
X172191196Y-116521000D01*
X172066177Y-116508687D01*
X171905758Y-116460024D01*
X171757924Y-116381005D01*
X171757922Y-116381004D01*
X171628341Y-116274659D01*
X171521996Y-116145078D01*
X171500875Y-116105564D01*
X171442976Y-115997242D01*
X171394313Y-115836823D01*
X171377883Y-115670000D01*
X171394313Y-115503177D01*
X171442976Y-115342758D01*
X171521995Y-115194924D01*
X171521996Y-115194922D01*
X171628341Y-115065341D01*
X171757922Y-114958996D01*
X171829728Y-114920615D01*
X171905758Y-114879976D01*
X172066177Y-114831313D01*
X172191196Y-114819000D01*
X173274804Y-114819000D01*
X173399823Y-114831313D01*
X173399823Y-114831313D01*
G37*
G36*
X125345443Y-113583519D02*
G01*
X125411627Y-113590037D01*
X125581466Y-113641557D01*
X125737991Y-113725222D01*
X125773729Y-113754552D01*
X125875186Y-113837814D01*
X125958448Y-113939271D01*
X125987778Y-113975009D01*
X126071443Y-114131534D01*
X126122963Y-114301373D01*
X126140359Y-114478000D01*
X126122963Y-114654627D01*
X126071443Y-114824466D01*
X125987778Y-114980991D01*
X125958448Y-115016729D01*
X125875186Y-115118186D01*
X125781679Y-115194924D01*
X125737991Y-115230778D01*
X125737989Y-115230779D01*
X125606304Y-115301167D01*
X125581466Y-115314443D01*
X125411627Y-115365963D01*
X125345442Y-115372482D01*
X125279260Y-115379000D01*
X125190740Y-115379000D01*
X125124558Y-115372482D01*
X125058373Y-115365963D01*
X124888534Y-115314443D01*
X124863697Y-115301167D01*
X124732011Y-115230779D01*
X124732009Y-115230778D01*
X124688321Y-115194924D01*
X124594814Y-115118186D01*
X124511552Y-115016729D01*
X124482222Y-114980991D01*
X124398557Y-114824466D01*
X124347037Y-114654627D01*
X124329641Y-114478000D01*
X124347037Y-114301373D01*
X124398557Y-114131534D01*
X124482222Y-113975009D01*
X124511552Y-113939271D01*
X124594814Y-113837814D01*
X124696271Y-113754552D01*
X124732009Y-113725222D01*
X124888534Y-113641557D01*
X125058373Y-113590037D01*
X125124557Y-113583519D01*
X125190740Y-113577000D01*
X125279260Y-113577000D01*
X125345443Y-113583519D01*
X125345443Y-113583519D01*
G37*
G36*
X122805443Y-113583519D02*
G01*
X122871627Y-113590037D01*
X123041466Y-113641557D01*
X123197991Y-113725222D01*
X123233729Y-113754552D01*
X123335186Y-113837814D01*
X123418448Y-113939271D01*
X123447778Y-113975009D01*
X123531443Y-114131534D01*
X123582963Y-114301373D01*
X123600359Y-114478000D01*
X123582963Y-114654627D01*
X123531443Y-114824466D01*
X123447778Y-114980991D01*
X123418448Y-115016729D01*
X123335186Y-115118186D01*
X123241679Y-115194924D01*
X123197991Y-115230778D01*
X123197989Y-115230779D01*
X123066304Y-115301167D01*
X123041466Y-115314443D01*
X122871627Y-115365963D01*
X122805442Y-115372482D01*
X122739260Y-115379000D01*
X122650740Y-115379000D01*
X122584558Y-115372482D01*
X122518373Y-115365963D01*
X122348534Y-115314443D01*
X122323697Y-115301167D01*
X122192011Y-115230779D01*
X122192009Y-115230778D01*
X122148321Y-115194924D01*
X122054814Y-115118186D01*
X121971552Y-115016729D01*
X121942222Y-114980991D01*
X121858557Y-114824466D01*
X121807037Y-114654627D01*
X121789641Y-114478000D01*
X121807037Y-114301373D01*
X121858557Y-114131534D01*
X121942222Y-113975009D01*
X121971552Y-113939271D01*
X122054814Y-113837814D01*
X122156271Y-113754552D01*
X122192009Y-113725222D01*
X122348534Y-113641557D01*
X122518373Y-113590037D01*
X122584557Y-113583519D01*
X122650740Y-113577000D01*
X122739260Y-113577000D01*
X122805443Y-113583519D01*
X122805443Y-113583519D01*
G37*
G36*
X146324000Y-114471000D02*
G01*
X144222000Y-114471000D01*
X144222000Y-111169000D01*
X146324000Y-111169000D01*
X146324000Y-114471000D01*
X146324000Y-114471000D01*
G37*
G36*
X135124000Y-114471000D02*
G01*
X133022000Y-114471000D01*
X133022000Y-111169000D01*
X135124000Y-111169000D01*
X135124000Y-114471000D01*
X135124000Y-114471000D01*
G37*
G36*
X173179228Y-111713483D02*
G01*
X173367922Y-111770723D01*
X173541815Y-111863671D01*
X173694239Y-111988761D01*
X173819329Y-112141185D01*
X173912277Y-112315078D01*
X173969517Y-112503772D01*
X173988843Y-112700000D01*
X173969517Y-112896228D01*
X173912277Y-113084922D01*
X173819329Y-113258815D01*
X173694239Y-113411239D01*
X173541815Y-113536329D01*
X173367922Y-113629277D01*
X173179228Y-113686517D01*
X173032175Y-113701000D01*
X172433825Y-113701000D01*
X172286772Y-113686517D01*
X172098078Y-113629277D01*
X171924185Y-113536329D01*
X171771761Y-113411239D01*
X171646671Y-113258815D01*
X171553723Y-113084922D01*
X171496483Y-112896228D01*
X171477157Y-112700000D01*
X171496483Y-112503772D01*
X171553723Y-112315078D01*
X171646671Y-112141185D01*
X171771761Y-111988761D01*
X171924185Y-111863671D01*
X172098078Y-111770723D01*
X172286772Y-111713483D01*
X172433825Y-111699000D01*
X173032175Y-111699000D01*
X173179228Y-111713483D01*
X173179228Y-111713483D01*
G37*
G36*
X122805443Y-111043519D02*
G01*
X122871627Y-111050037D01*
X123041466Y-111101557D01*
X123197991Y-111185222D01*
X123233729Y-111214552D01*
X123335186Y-111297814D01*
X123418448Y-111399271D01*
X123447778Y-111435009D01*
X123531443Y-111591534D01*
X123582963Y-111761373D01*
X123600359Y-111938000D01*
X123582963Y-112114627D01*
X123531443Y-112284466D01*
X123447778Y-112440991D01*
X123418448Y-112476729D01*
X123335186Y-112578186D01*
X123233729Y-112661448D01*
X123197991Y-112690778D01*
X123041466Y-112774443D01*
X122871627Y-112825963D01*
X122805443Y-112832481D01*
X122739260Y-112839000D01*
X122650740Y-112839000D01*
X122584557Y-112832481D01*
X122518373Y-112825963D01*
X122348534Y-112774443D01*
X122192009Y-112690778D01*
X122156271Y-112661448D01*
X122054814Y-112578186D01*
X121971552Y-112476729D01*
X121942222Y-112440991D01*
X121858557Y-112284466D01*
X121807037Y-112114627D01*
X121789641Y-111938000D01*
X121807037Y-111761373D01*
X121858557Y-111591534D01*
X121942222Y-111435009D01*
X121971552Y-111399271D01*
X122054814Y-111297814D01*
X122156271Y-111214552D01*
X122192009Y-111185222D01*
X122348534Y-111101557D01*
X122518373Y-111050037D01*
X122584557Y-111043519D01*
X122650740Y-111037000D01*
X122739260Y-111037000D01*
X122805443Y-111043519D01*
X122805443Y-111043519D01*
G37*
G36*
X125345443Y-111043519D02*
G01*
X125411627Y-111050037D01*
X125581466Y-111101557D01*
X125737991Y-111185222D01*
X125773729Y-111214552D01*
X125875186Y-111297814D01*
X125958448Y-111399271D01*
X125987778Y-111435009D01*
X126071443Y-111591534D01*
X126122963Y-111761373D01*
X126140359Y-111938000D01*
X126122963Y-112114627D01*
X126071443Y-112284466D01*
X125987778Y-112440991D01*
X125958448Y-112476729D01*
X125875186Y-112578186D01*
X125773729Y-112661448D01*
X125737991Y-112690778D01*
X125581466Y-112774443D01*
X125411627Y-112825963D01*
X125345443Y-112832481D01*
X125279260Y-112839000D01*
X125190740Y-112839000D01*
X125124557Y-112832481D01*
X125058373Y-112825963D01*
X124888534Y-112774443D01*
X124732009Y-112690778D01*
X124696271Y-112661448D01*
X124594814Y-112578186D01*
X124511552Y-112476729D01*
X124482222Y-112440991D01*
X124398557Y-112284466D01*
X124347037Y-112114627D01*
X124329641Y-111938000D01*
X124347037Y-111761373D01*
X124398557Y-111591534D01*
X124482222Y-111435009D01*
X124511552Y-111399271D01*
X124594814Y-111297814D01*
X124696271Y-111214552D01*
X124732009Y-111185222D01*
X124888534Y-111101557D01*
X125058373Y-111050037D01*
X125124557Y-111043519D01*
X125190740Y-111037000D01*
X125279260Y-111037000D01*
X125345443Y-111043519D01*
X125345443Y-111043519D01*
G37*
G36*
X165093564Y-108640389D02*
G01*
X165284833Y-108719615D01*
X165284835Y-108719616D01*
X165456973Y-108834635D01*
X165603365Y-108981027D01*
X165699793Y-109125341D01*
X165718385Y-109153167D01*
X165797611Y-109344436D01*
X165838000Y-109547484D01*
X165838000Y-109754516D01*
X165797611Y-109957564D01*
X165756324Y-110057239D01*
X165718384Y-110148835D01*
X165603365Y-110320973D01*
X165456973Y-110467365D01*
X165284835Y-110582384D01*
X165284834Y-110582385D01*
X165284833Y-110582385D01*
X165093564Y-110661611D01*
X164890516Y-110702000D01*
X164683484Y-110702000D01*
X164480436Y-110661611D01*
X164289167Y-110582385D01*
X164289166Y-110582385D01*
X164289165Y-110582384D01*
X164117027Y-110467365D01*
X163970635Y-110320973D01*
X163855616Y-110148835D01*
X163817676Y-110057239D01*
X163776389Y-109957564D01*
X163736000Y-109754516D01*
X163736000Y-109547484D01*
X163776389Y-109344436D01*
X163855615Y-109153167D01*
X163874208Y-109125341D01*
X163970635Y-108981027D01*
X164117027Y-108834635D01*
X164289165Y-108719616D01*
X164289167Y-108719615D01*
X164480436Y-108640389D01*
X164683484Y-108600000D01*
X164890516Y-108600000D01*
X165093564Y-108640389D01*
X165093564Y-108640389D01*
G37*
G36*
X160593564Y-108640389D02*
G01*
X160784833Y-108719615D01*
X160784835Y-108719616D01*
X160956973Y-108834635D01*
X161103365Y-108981027D01*
X161199793Y-109125341D01*
X161218385Y-109153167D01*
X161297611Y-109344436D01*
X161338000Y-109547484D01*
X161338000Y-109754516D01*
X161297611Y-109957564D01*
X161256324Y-110057239D01*
X161218384Y-110148835D01*
X161103365Y-110320973D01*
X160956973Y-110467365D01*
X160784835Y-110582384D01*
X160784834Y-110582385D01*
X160784833Y-110582385D01*
X160593564Y-110661611D01*
X160390516Y-110702000D01*
X160183484Y-110702000D01*
X159980436Y-110661611D01*
X159789167Y-110582385D01*
X159789166Y-110582385D01*
X159789165Y-110582384D01*
X159617027Y-110467365D01*
X159470635Y-110320973D01*
X159355616Y-110148835D01*
X159317676Y-110057239D01*
X159276389Y-109957564D01*
X159236000Y-109754516D01*
X159236000Y-109547484D01*
X159276389Y-109344436D01*
X159355615Y-109153167D01*
X159374208Y-109125341D01*
X159470635Y-108981027D01*
X159617027Y-108834635D01*
X159789165Y-108719616D01*
X159789167Y-108719615D01*
X159980436Y-108640389D01*
X160183484Y-108600000D01*
X160390516Y-108600000D01*
X160593564Y-108640389D01*
X160593564Y-108640389D01*
G37*
G36*
X173399823Y-108891313D02*
G01*
X173560242Y-108939976D01*
X173692906Y-109010886D01*
X173708078Y-109018996D01*
X173837659Y-109125341D01*
X173944004Y-109254922D01*
X173944005Y-109254924D01*
X174023024Y-109402758D01*
X174071687Y-109563177D01*
X174088117Y-109730000D01*
X174071687Y-109896823D01*
X174023024Y-110057242D01*
X173974066Y-110148835D01*
X173944004Y-110205078D01*
X173837659Y-110334659D01*
X173708078Y-110441004D01*
X173708076Y-110441005D01*
X173560242Y-110520024D01*
X173399823Y-110568687D01*
X173274804Y-110581000D01*
X172191196Y-110581000D01*
X172066177Y-110568687D01*
X171905758Y-110520024D01*
X171757924Y-110441005D01*
X171757922Y-110441004D01*
X171628341Y-110334659D01*
X171521996Y-110205078D01*
X171491934Y-110148835D01*
X171442976Y-110057242D01*
X171394313Y-109896823D01*
X171377883Y-109730000D01*
X171394313Y-109563177D01*
X171442976Y-109402758D01*
X171521995Y-109254924D01*
X171521996Y-109254922D01*
X171628341Y-109125341D01*
X171757922Y-109018996D01*
X171773094Y-109010886D01*
X171905758Y-108939976D01*
X172066177Y-108891313D01*
X172191196Y-108879000D01*
X173274804Y-108879000D01*
X173399823Y-108891313D01*
X173399823Y-108891313D01*
G37*
G36*
X159762142Y-105694242D02*
G01*
X159910101Y-105755529D01*
X160043255Y-105844499D01*
X160156501Y-105957745D01*
X160245471Y-106090899D01*
X160306758Y-106238858D01*
X160338000Y-106395925D01*
X160338000Y-106556075D01*
X160306758Y-106713142D01*
X160245471Y-106861101D01*
X160156501Y-106994255D01*
X160043255Y-107107501D01*
X159910101Y-107196471D01*
X159762142Y-107257758D01*
X159605075Y-107289000D01*
X159444925Y-107289000D01*
X159287858Y-107257758D01*
X159139899Y-107196471D01*
X159006745Y-107107501D01*
X158893499Y-106994255D01*
X158804529Y-106861101D01*
X158743242Y-106713142D01*
X158712000Y-106556075D01*
X158712000Y-106395925D01*
X158743242Y-106238858D01*
X158804529Y-106090899D01*
X158893499Y-105957745D01*
X159006745Y-105844499D01*
X159139899Y-105755529D01*
X159287858Y-105694242D01*
X159444925Y-105663000D01*
X159605075Y-105663000D01*
X159762142Y-105694242D01*
X159762142Y-105694242D01*
G37*
G36*
X166307000Y-107289000D02*
G01*
X164681000Y-107289000D01*
X164681000Y-105663000D01*
X166307000Y-105663000D01*
X166307000Y-107289000D01*
X166307000Y-107289000D01*
G37*
G36*
X137479564Y-104809389D02*
G01*
X137670833Y-104888615D01*
X137670835Y-104888616D01*
X137842973Y-105003635D01*
X137989365Y-105150027D01*
X138104385Y-105322167D01*
X138183611Y-105513436D01*
X138224000Y-105716484D01*
X138224000Y-105923516D01*
X138183611Y-106126564D01*
X138137097Y-106238858D01*
X138104384Y-106317835D01*
X137989365Y-106489973D01*
X137842973Y-106636365D01*
X137670835Y-106751384D01*
X137670834Y-106751385D01*
X137670833Y-106751385D01*
X137479564Y-106830611D01*
X137276516Y-106871000D01*
X137069484Y-106871000D01*
X136866436Y-106830611D01*
X136675167Y-106751385D01*
X136675166Y-106751385D01*
X136675165Y-106751384D01*
X136503027Y-106636365D01*
X136356635Y-106489973D01*
X136241616Y-106317835D01*
X136208903Y-106238858D01*
X136162389Y-106126564D01*
X136122000Y-105923516D01*
X136122000Y-105716484D01*
X136162389Y-105513436D01*
X136241615Y-105322167D01*
X136356635Y-105150027D01*
X136503027Y-105003635D01*
X136675165Y-104888616D01*
X136675167Y-104888615D01*
X136866436Y-104809389D01*
X137069484Y-104769000D01*
X137276516Y-104769000D01*
X137479564Y-104809389D01*
X137479564Y-104809389D01*
G37*
G36*
X142479564Y-104809389D02*
G01*
X142670833Y-104888615D01*
X142670835Y-104888616D01*
X142842973Y-105003635D01*
X142989365Y-105150027D01*
X143104385Y-105322167D01*
X143183611Y-105513436D01*
X143224000Y-105716484D01*
X143224000Y-105923516D01*
X143183611Y-106126564D01*
X143137097Y-106238858D01*
X143104384Y-106317835D01*
X142989365Y-106489973D01*
X142842973Y-106636365D01*
X142670835Y-106751384D01*
X142670834Y-106751385D01*
X142670833Y-106751385D01*
X142479564Y-106830611D01*
X142276516Y-106871000D01*
X142069484Y-106871000D01*
X141866436Y-106830611D01*
X141675167Y-106751385D01*
X141675166Y-106751385D01*
X141675165Y-106751384D01*
X141503027Y-106636365D01*
X141356635Y-106489973D01*
X141241616Y-106317835D01*
X141208903Y-106238858D01*
X141162389Y-106126564D01*
X141122000Y-105923516D01*
X141122000Y-105716484D01*
X141162389Y-105513436D01*
X141241615Y-105322167D01*
X141356635Y-105150027D01*
X141503027Y-105003635D01*
X141675165Y-104888616D01*
X141675167Y-104888615D01*
X141866436Y-104809389D01*
X142069484Y-104769000D01*
X142276516Y-104769000D01*
X142479564Y-104809389D01*
X142479564Y-104809389D01*
G37*
G36*
X165093564Y-102140389D02*
G01*
X165284338Y-102219410D01*
X165284835Y-102219616D01*
X165301872Y-102231000D01*
X165456973Y-102334635D01*
X165603365Y-102481027D01*
X165718385Y-102653167D01*
X165797611Y-102844436D01*
X165838000Y-103047484D01*
X165838000Y-103254516D01*
X165797611Y-103457564D01*
X165718385Y-103648833D01*
X165718384Y-103648835D01*
X165603365Y-103820973D01*
X165456973Y-103967365D01*
X165284835Y-104082384D01*
X165284834Y-104082385D01*
X165284833Y-104082385D01*
X165093564Y-104161611D01*
X164890516Y-104202000D01*
X164683484Y-104202000D01*
X164480436Y-104161611D01*
X164289167Y-104082385D01*
X164289166Y-104082385D01*
X164289165Y-104082384D01*
X164117027Y-103967365D01*
X163970635Y-103820973D01*
X163855616Y-103648835D01*
X163855615Y-103648833D01*
X163776389Y-103457564D01*
X163736000Y-103254516D01*
X163736000Y-103047484D01*
X163776389Y-102844436D01*
X163855615Y-102653167D01*
X163970635Y-102481027D01*
X164117027Y-102334635D01*
X164272128Y-102231000D01*
X164289165Y-102219616D01*
X164289662Y-102219410D01*
X164480436Y-102140389D01*
X164683484Y-102100000D01*
X164890516Y-102100000D01*
X165093564Y-102140389D01*
X165093564Y-102140389D01*
G37*
G36*
X160593564Y-102140389D02*
G01*
X160784338Y-102219410D01*
X160784835Y-102219616D01*
X160801872Y-102231000D01*
X160956973Y-102334635D01*
X161103365Y-102481027D01*
X161218385Y-102653167D01*
X161297611Y-102844436D01*
X161338000Y-103047484D01*
X161338000Y-103254516D01*
X161297611Y-103457564D01*
X161218385Y-103648833D01*
X161218384Y-103648835D01*
X161103365Y-103820973D01*
X160956973Y-103967365D01*
X160784835Y-104082384D01*
X160784834Y-104082385D01*
X160784833Y-104082385D01*
X160593564Y-104161611D01*
X160390516Y-104202000D01*
X160183484Y-104202000D01*
X159980436Y-104161611D01*
X159789167Y-104082385D01*
X159789166Y-104082385D01*
X159789165Y-104082384D01*
X159617027Y-103967365D01*
X159470635Y-103820973D01*
X159355616Y-103648835D01*
X159355615Y-103648833D01*
X159276389Y-103457564D01*
X159236000Y-103254516D01*
X159236000Y-103047484D01*
X159276389Y-102844436D01*
X159355615Y-102653167D01*
X159470635Y-102481027D01*
X159617027Y-102334635D01*
X159772128Y-102231000D01*
X159789165Y-102219616D01*
X159789662Y-102219410D01*
X159980436Y-102140389D01*
X160183484Y-102100000D01*
X160390516Y-102100000D01*
X160593564Y-102140389D01*
X160593564Y-102140389D01*
G37*
G36*
X173361571Y-100632863D02*
G01*
X173440023Y-100640590D01*
X173540682Y-100671125D01*
X173591013Y-100686392D01*
X173730165Y-100760771D01*
X173852133Y-100860867D01*
X173952229Y-100982835D01*
X174026608Y-101121987D01*
X174026608Y-101121988D01*
X174072410Y-101272977D01*
X174087875Y-101430000D01*
X174072410Y-101587023D01*
X174041875Y-101687682D01*
X174026608Y-101738013D01*
X173952229Y-101877165D01*
X173852133Y-101999133D01*
X173730165Y-102099229D01*
X173591013Y-102173608D01*
X173540682Y-102188875D01*
X173440023Y-102219410D01*
X173361571Y-102227137D01*
X173322346Y-102231000D01*
X172143654Y-102231000D01*
X172104429Y-102227137D01*
X172025977Y-102219410D01*
X171925318Y-102188875D01*
X171874987Y-102173608D01*
X171735835Y-102099229D01*
X171613867Y-101999133D01*
X171513771Y-101877165D01*
X171439392Y-101738013D01*
X171424125Y-101687682D01*
X171393590Y-101587023D01*
X171378125Y-101430000D01*
X171393590Y-101272977D01*
X171439392Y-101121988D01*
X171439392Y-101121987D01*
X171513771Y-100982835D01*
X171613867Y-100860867D01*
X171735835Y-100760771D01*
X171874987Y-100686392D01*
X171925318Y-100671125D01*
X172025977Y-100640590D01*
X172104429Y-100632863D01*
X172143654Y-100629000D01*
X173322346Y-100629000D01*
X173361571Y-100632863D01*
X173361571Y-100632863D01*
G37*
G36*
X173361571Y-97772863D02*
G01*
X173440023Y-97780590D01*
X173540682Y-97811125D01*
X173591013Y-97826392D01*
X173730165Y-97900771D01*
X173852133Y-98000867D01*
X173952229Y-98122835D01*
X174026608Y-98261987D01*
X174026608Y-98261988D01*
X174072410Y-98412977D01*
X174087875Y-98570000D01*
X174072410Y-98727023D01*
X174041875Y-98827682D01*
X174026608Y-98878013D01*
X173952229Y-99017165D01*
X173852133Y-99139133D01*
X173730165Y-99239229D01*
X173591013Y-99313608D01*
X173540682Y-99328875D01*
X173440023Y-99359410D01*
X173361571Y-99367137D01*
X173322346Y-99371000D01*
X172143654Y-99371000D01*
X172104429Y-99367137D01*
X172025977Y-99359410D01*
X171925318Y-99328875D01*
X171874987Y-99313608D01*
X171735835Y-99239229D01*
X171613867Y-99139133D01*
X171513771Y-99017165D01*
X171439392Y-98878013D01*
X171424125Y-98827682D01*
X171393590Y-98727023D01*
X171378125Y-98570000D01*
X171393590Y-98412977D01*
X171439392Y-98261988D01*
X171439392Y-98261987D01*
X171513771Y-98122835D01*
X171613867Y-98000867D01*
X171735835Y-97900771D01*
X171874987Y-97826392D01*
X171925318Y-97811125D01*
X172025977Y-97780590D01*
X172104429Y-97772863D01*
X172143654Y-97769000D01*
X173322346Y-97769000D01*
X173361571Y-97772863D01*
X173361571Y-97772863D01*
G37*
G36*
X165138564Y-95941389D02*
G01*
X165329833Y-96020615D01*
X165329835Y-96020616D01*
X165501973Y-96135635D01*
X165648365Y-96282027D01*
X165763385Y-96454167D01*
X165842611Y-96645436D01*
X165883000Y-96848484D01*
X165883000Y-97055516D01*
X165842611Y-97258564D01*
X165763385Y-97449833D01*
X165763384Y-97449835D01*
X165648365Y-97621973D01*
X165501973Y-97768365D01*
X165329835Y-97883384D01*
X165329834Y-97883385D01*
X165329833Y-97883385D01*
X165138564Y-97962611D01*
X164935516Y-98003000D01*
X164728484Y-98003000D01*
X164525436Y-97962611D01*
X164334167Y-97883385D01*
X164334166Y-97883385D01*
X164334165Y-97883384D01*
X164162027Y-97768365D01*
X164015635Y-97621973D01*
X163900616Y-97449835D01*
X163900615Y-97449833D01*
X163821389Y-97258564D01*
X163781000Y-97055516D01*
X163781000Y-96848484D01*
X163821389Y-96645436D01*
X163900615Y-96454167D01*
X164015635Y-96282027D01*
X164162027Y-96135635D01*
X164334165Y-96020616D01*
X164334167Y-96020615D01*
X164525436Y-95941389D01*
X164728484Y-95901000D01*
X164935516Y-95901000D01*
X165138564Y-95941389D01*
X165138564Y-95941389D01*
G37*
G36*
X160638564Y-95941389D02*
G01*
X160829833Y-96020615D01*
X160829835Y-96020616D01*
X161001973Y-96135635D01*
X161148365Y-96282027D01*
X161263385Y-96454167D01*
X161342611Y-96645436D01*
X161383000Y-96848484D01*
X161383000Y-97055516D01*
X161342611Y-97258564D01*
X161263385Y-97449833D01*
X161263384Y-97449835D01*
X161148365Y-97621973D01*
X161001973Y-97768365D01*
X160829835Y-97883384D01*
X160829834Y-97883385D01*
X160829833Y-97883385D01*
X160638564Y-97962611D01*
X160435516Y-98003000D01*
X160228484Y-98003000D01*
X160025436Y-97962611D01*
X159834167Y-97883385D01*
X159834166Y-97883385D01*
X159834165Y-97883384D01*
X159662027Y-97768365D01*
X159515635Y-97621973D01*
X159400616Y-97449835D01*
X159400615Y-97449833D01*
X159321389Y-97258564D01*
X159281000Y-97055516D01*
X159281000Y-96848484D01*
X159321389Y-96645436D01*
X159400615Y-96454167D01*
X159515635Y-96282027D01*
X159662027Y-96135635D01*
X159834165Y-96020616D01*
X159834167Y-96020615D01*
X160025436Y-95941389D01*
X160228484Y-95901000D01*
X160435516Y-95901000D01*
X160638564Y-95941389D01*
X160638564Y-95941389D01*
G37*
G36*
X150558000Y-97570000D02*
G01*
X148932000Y-97570000D01*
X148932000Y-95944000D01*
X150558000Y-95944000D01*
X150558000Y-97570000D01*
X150558000Y-97570000D01*
G37*
G36*
X140393000Y-97570000D02*
G01*
X138767000Y-97570000D01*
X138767000Y-95944000D01*
X140393000Y-95944000D01*
X140393000Y-97570000D01*
X140393000Y-97570000D01*
G37*
G36*
X130243000Y-97570000D02*
G01*
X128617000Y-97570000D01*
X128617000Y-95944000D01*
X130243000Y-95944000D01*
X130243000Y-97570000D01*
X130243000Y-97570000D01*
G37*
G36*
X153376564Y-95039389D02*
G01*
X153567833Y-95118615D01*
X153567835Y-95118616D01*
X153739973Y-95233635D01*
X153886365Y-95380027D01*
X154001385Y-95552167D01*
X154080611Y-95743436D01*
X154121000Y-95946484D01*
X154121000Y-96153516D01*
X154080611Y-96356564D01*
X154001385Y-96547833D01*
X154001384Y-96547835D01*
X153886365Y-96719973D01*
X153739973Y-96866365D01*
X153567835Y-96981384D01*
X153567834Y-96981385D01*
X153567833Y-96981385D01*
X153376564Y-97060611D01*
X153173516Y-97101000D01*
X152966484Y-97101000D01*
X152763436Y-97060611D01*
X152572167Y-96981385D01*
X152572166Y-96981385D01*
X152572165Y-96981384D01*
X152400027Y-96866365D01*
X152253635Y-96719973D01*
X152138616Y-96547835D01*
X152138615Y-96547833D01*
X152059389Y-96356564D01*
X152019000Y-96153516D01*
X152019000Y-95946484D01*
X152059389Y-95743436D01*
X152138615Y-95552167D01*
X152253635Y-95380027D01*
X152400027Y-95233635D01*
X152572165Y-95118616D01*
X152572167Y-95118615D01*
X152763436Y-95039389D01*
X152966484Y-94999000D01*
X153173516Y-94999000D01*
X153376564Y-95039389D01*
X153376564Y-95039389D01*
G37*
G36*
X133061564Y-95039389D02*
G01*
X133252833Y-95118615D01*
X133252835Y-95118616D01*
X133424973Y-95233635D01*
X133571365Y-95380027D01*
X133686385Y-95552167D01*
X133765611Y-95743436D01*
X133806000Y-95946484D01*
X133806000Y-96153516D01*
X133765611Y-96356564D01*
X133686385Y-96547833D01*
X133686384Y-96547835D01*
X133571365Y-96719973D01*
X133424973Y-96866365D01*
X133252835Y-96981384D01*
X133252834Y-96981385D01*
X133252833Y-96981385D01*
X133061564Y-97060611D01*
X132858516Y-97101000D01*
X132651484Y-97101000D01*
X132448436Y-97060611D01*
X132257167Y-96981385D01*
X132257166Y-96981385D01*
X132257165Y-96981384D01*
X132085027Y-96866365D01*
X131938635Y-96719973D01*
X131823616Y-96547835D01*
X131823615Y-96547833D01*
X131744389Y-96356564D01*
X131704000Y-96153516D01*
X131704000Y-95946484D01*
X131744389Y-95743436D01*
X131823615Y-95552167D01*
X131938635Y-95380027D01*
X132085027Y-95233635D01*
X132257165Y-95118616D01*
X132257167Y-95118615D01*
X132448436Y-95039389D01*
X132651484Y-94999000D01*
X132858516Y-94999000D01*
X133061564Y-95039389D01*
X133061564Y-95039389D01*
G37*
G36*
X126561564Y-95039389D02*
G01*
X126752833Y-95118615D01*
X126752835Y-95118616D01*
X126924973Y-95233635D01*
X127071365Y-95380027D01*
X127186385Y-95552167D01*
X127265611Y-95743436D01*
X127306000Y-95946484D01*
X127306000Y-96153516D01*
X127265611Y-96356564D01*
X127186385Y-96547833D01*
X127186384Y-96547835D01*
X127071365Y-96719973D01*
X126924973Y-96866365D01*
X126752835Y-96981384D01*
X126752834Y-96981385D01*
X126752833Y-96981385D01*
X126561564Y-97060611D01*
X126358516Y-97101000D01*
X126151484Y-97101000D01*
X125948436Y-97060611D01*
X125757167Y-96981385D01*
X125757166Y-96981385D01*
X125757165Y-96981384D01*
X125585027Y-96866365D01*
X125438635Y-96719973D01*
X125323616Y-96547835D01*
X125323615Y-96547833D01*
X125244389Y-96356564D01*
X125204000Y-96153516D01*
X125204000Y-95946484D01*
X125244389Y-95743436D01*
X125323615Y-95552167D01*
X125438635Y-95380027D01*
X125585027Y-95233635D01*
X125757165Y-95118616D01*
X125757167Y-95118615D01*
X125948436Y-95039389D01*
X126151484Y-94999000D01*
X126358516Y-94999000D01*
X126561564Y-95039389D01*
X126561564Y-95039389D01*
G37*
G36*
X146876564Y-95039389D02*
G01*
X147067833Y-95118615D01*
X147067835Y-95118616D01*
X147239973Y-95233635D01*
X147386365Y-95380027D01*
X147501385Y-95552167D01*
X147580611Y-95743436D01*
X147621000Y-95946484D01*
X147621000Y-96153516D01*
X147580611Y-96356564D01*
X147501385Y-96547833D01*
X147501384Y-96547835D01*
X147386365Y-96719973D01*
X147239973Y-96866365D01*
X147067835Y-96981384D01*
X147067834Y-96981385D01*
X147067833Y-96981385D01*
X146876564Y-97060611D01*
X146673516Y-97101000D01*
X146466484Y-97101000D01*
X146263436Y-97060611D01*
X146072167Y-96981385D01*
X146072166Y-96981385D01*
X146072165Y-96981384D01*
X145900027Y-96866365D01*
X145753635Y-96719973D01*
X145638616Y-96547835D01*
X145638615Y-96547833D01*
X145559389Y-96356564D01*
X145519000Y-96153516D01*
X145519000Y-95946484D01*
X145559389Y-95743436D01*
X145638615Y-95552167D01*
X145753635Y-95380027D01*
X145900027Y-95233635D01*
X146072165Y-95118616D01*
X146072167Y-95118615D01*
X146263436Y-95039389D01*
X146466484Y-94999000D01*
X146673516Y-94999000D01*
X146876564Y-95039389D01*
X146876564Y-95039389D01*
G37*
G36*
X143211564Y-95039389D02*
G01*
X143402833Y-95118615D01*
X143402835Y-95118616D01*
X143574973Y-95233635D01*
X143721365Y-95380027D01*
X143836385Y-95552167D01*
X143915611Y-95743436D01*
X143956000Y-95946484D01*
X143956000Y-96153516D01*
X143915611Y-96356564D01*
X143836385Y-96547833D01*
X143836384Y-96547835D01*
X143721365Y-96719973D01*
X143574973Y-96866365D01*
X143402835Y-96981384D01*
X143402834Y-96981385D01*
X143402833Y-96981385D01*
X143211564Y-97060611D01*
X143008516Y-97101000D01*
X142801484Y-97101000D01*
X142598436Y-97060611D01*
X142407167Y-96981385D01*
X142407166Y-96981385D01*
X142407165Y-96981384D01*
X142235027Y-96866365D01*
X142088635Y-96719973D01*
X141973616Y-96547835D01*
X141973615Y-96547833D01*
X141894389Y-96356564D01*
X141854000Y-96153516D01*
X141854000Y-95946484D01*
X141894389Y-95743436D01*
X141973615Y-95552167D01*
X142088635Y-95380027D01*
X142235027Y-95233635D01*
X142407165Y-95118616D01*
X142407167Y-95118615D01*
X142598436Y-95039389D01*
X142801484Y-94999000D01*
X143008516Y-94999000D01*
X143211564Y-95039389D01*
X143211564Y-95039389D01*
G37*
G36*
X136711564Y-95039389D02*
G01*
X136902833Y-95118615D01*
X136902835Y-95118616D01*
X137074973Y-95233635D01*
X137221365Y-95380027D01*
X137336385Y-95552167D01*
X137415611Y-95743436D01*
X137456000Y-95946484D01*
X137456000Y-96153516D01*
X137415611Y-96356564D01*
X137336385Y-96547833D01*
X137336384Y-96547835D01*
X137221365Y-96719973D01*
X137074973Y-96866365D01*
X136902835Y-96981384D01*
X136902834Y-96981385D01*
X136902833Y-96981385D01*
X136711564Y-97060611D01*
X136508516Y-97101000D01*
X136301484Y-97101000D01*
X136098436Y-97060611D01*
X135907167Y-96981385D01*
X135907166Y-96981385D01*
X135907165Y-96981384D01*
X135735027Y-96866365D01*
X135588635Y-96719973D01*
X135473616Y-96547835D01*
X135473615Y-96547833D01*
X135394389Y-96356564D01*
X135354000Y-96153516D01*
X135354000Y-95946484D01*
X135394389Y-95743436D01*
X135473615Y-95552167D01*
X135588635Y-95380027D01*
X135735027Y-95233635D01*
X135907165Y-95118616D01*
X135907167Y-95118615D01*
X136098436Y-95039389D01*
X136301484Y-94999000D01*
X136508516Y-94999000D01*
X136711564Y-95039389D01*
X136711564Y-95039389D01*
G37*
G36*
X159807142Y-92995242D02*
G01*
X159955101Y-93056529D01*
X160088255Y-93145499D01*
X160201501Y-93258745D01*
X160290471Y-93391899D01*
X160351758Y-93539858D01*
X160383000Y-93696925D01*
X160383000Y-93857075D01*
X160351758Y-94014142D01*
X160290471Y-94162101D01*
X160201501Y-94295255D01*
X160088255Y-94408501D01*
X159955101Y-94497471D01*
X159807142Y-94558758D01*
X159650075Y-94590000D01*
X159489925Y-94590000D01*
X159332858Y-94558758D01*
X159184899Y-94497471D01*
X159051745Y-94408501D01*
X158938499Y-94295255D01*
X158849529Y-94162101D01*
X158788242Y-94014142D01*
X158757000Y-93857075D01*
X158757000Y-93696925D01*
X158788242Y-93539858D01*
X158849529Y-93391899D01*
X158938499Y-93258745D01*
X159051745Y-93145499D01*
X159184899Y-93056529D01*
X159332858Y-92995242D01*
X159489925Y-92964000D01*
X159650075Y-92964000D01*
X159807142Y-92995242D01*
X159807142Y-92995242D01*
G37*
G36*
X166352000Y-94590000D02*
G01*
X164726000Y-94590000D01*
X164726000Y-92964000D01*
X166352000Y-92964000D01*
X166352000Y-94590000D01*
X166352000Y-94590000D01*
G37*
G36*
X153376564Y-90539389D02*
G01*
X153567833Y-90618615D01*
X153567835Y-90618616D01*
X153701495Y-90707925D01*
X153739973Y-90733635D01*
X153886365Y-90880027D01*
X154001385Y-91052167D01*
X154080611Y-91243436D01*
X154121000Y-91446484D01*
X154121000Y-91653516D01*
X154080611Y-91856564D01*
X154001385Y-92047833D01*
X154001384Y-92047835D01*
X153886365Y-92219973D01*
X153739973Y-92366365D01*
X153567835Y-92481384D01*
X153567834Y-92481385D01*
X153567833Y-92481385D01*
X153376564Y-92560611D01*
X153173516Y-92601000D01*
X152966484Y-92601000D01*
X152763436Y-92560611D01*
X152572167Y-92481385D01*
X152572166Y-92481385D01*
X152572165Y-92481384D01*
X152400027Y-92366365D01*
X152253635Y-92219973D01*
X152138616Y-92047835D01*
X152138615Y-92047833D01*
X152059389Y-91856564D01*
X152019000Y-91653516D01*
X152019000Y-91446484D01*
X152059389Y-91243436D01*
X152138615Y-91052167D01*
X152253635Y-90880027D01*
X152400027Y-90733635D01*
X152438505Y-90707925D01*
X152572165Y-90618616D01*
X152572167Y-90618615D01*
X152763436Y-90539389D01*
X152966484Y-90499000D01*
X153173516Y-90499000D01*
X153376564Y-90539389D01*
X153376564Y-90539389D01*
G37*
G36*
X146876564Y-90539389D02*
G01*
X147067833Y-90618615D01*
X147067835Y-90618616D01*
X147201495Y-90707925D01*
X147239973Y-90733635D01*
X147386365Y-90880027D01*
X147501385Y-91052167D01*
X147580611Y-91243436D01*
X147621000Y-91446484D01*
X147621000Y-91653516D01*
X147580611Y-91856564D01*
X147501385Y-92047833D01*
X147501384Y-92047835D01*
X147386365Y-92219973D01*
X147239973Y-92366365D01*
X147067835Y-92481384D01*
X147067834Y-92481385D01*
X147067833Y-92481385D01*
X146876564Y-92560611D01*
X146673516Y-92601000D01*
X146466484Y-92601000D01*
X146263436Y-92560611D01*
X146072167Y-92481385D01*
X146072166Y-92481385D01*
X146072165Y-92481384D01*
X145900027Y-92366365D01*
X145753635Y-92219973D01*
X145638616Y-92047835D01*
X145638615Y-92047833D01*
X145559389Y-91856564D01*
X145519000Y-91653516D01*
X145519000Y-91446484D01*
X145559389Y-91243436D01*
X145638615Y-91052167D01*
X145753635Y-90880027D01*
X145900027Y-90733635D01*
X145938505Y-90707925D01*
X146072165Y-90618616D01*
X146072167Y-90618615D01*
X146263436Y-90539389D01*
X146466484Y-90499000D01*
X146673516Y-90499000D01*
X146876564Y-90539389D01*
X146876564Y-90539389D01*
G37*
G36*
X143211564Y-90539389D02*
G01*
X143402833Y-90618615D01*
X143402835Y-90618616D01*
X143536495Y-90707925D01*
X143574973Y-90733635D01*
X143721365Y-90880027D01*
X143836385Y-91052167D01*
X143915611Y-91243436D01*
X143956000Y-91446484D01*
X143956000Y-91653516D01*
X143915611Y-91856564D01*
X143836385Y-92047833D01*
X143836384Y-92047835D01*
X143721365Y-92219973D01*
X143574973Y-92366365D01*
X143402835Y-92481384D01*
X143402834Y-92481385D01*
X143402833Y-92481385D01*
X143211564Y-92560611D01*
X143008516Y-92601000D01*
X142801484Y-92601000D01*
X142598436Y-92560611D01*
X142407167Y-92481385D01*
X142407166Y-92481385D01*
X142407165Y-92481384D01*
X142235027Y-92366365D01*
X142088635Y-92219973D01*
X141973616Y-92047835D01*
X141973615Y-92047833D01*
X141894389Y-91856564D01*
X141854000Y-91653516D01*
X141854000Y-91446484D01*
X141894389Y-91243436D01*
X141973615Y-91052167D01*
X142088635Y-90880027D01*
X142235027Y-90733635D01*
X142273505Y-90707925D01*
X142407165Y-90618616D01*
X142407167Y-90618615D01*
X142598436Y-90539389D01*
X142801484Y-90499000D01*
X143008516Y-90499000D01*
X143211564Y-90539389D01*
X143211564Y-90539389D01*
G37*
G36*
X136711564Y-90539389D02*
G01*
X136902833Y-90618615D01*
X136902835Y-90618616D01*
X137036495Y-90707925D01*
X137074973Y-90733635D01*
X137221365Y-90880027D01*
X137336385Y-91052167D01*
X137415611Y-91243436D01*
X137456000Y-91446484D01*
X137456000Y-91653516D01*
X137415611Y-91856564D01*
X137336385Y-92047833D01*
X137336384Y-92047835D01*
X137221365Y-92219973D01*
X137074973Y-92366365D01*
X136902835Y-92481384D01*
X136902834Y-92481385D01*
X136902833Y-92481385D01*
X136711564Y-92560611D01*
X136508516Y-92601000D01*
X136301484Y-92601000D01*
X136098436Y-92560611D01*
X135907167Y-92481385D01*
X135907166Y-92481385D01*
X135907165Y-92481384D01*
X135735027Y-92366365D01*
X135588635Y-92219973D01*
X135473616Y-92047835D01*
X135473615Y-92047833D01*
X135394389Y-91856564D01*
X135354000Y-91653516D01*
X135354000Y-91446484D01*
X135394389Y-91243436D01*
X135473615Y-91052167D01*
X135588635Y-90880027D01*
X135735027Y-90733635D01*
X135773505Y-90707925D01*
X135907165Y-90618616D01*
X135907167Y-90618615D01*
X136098436Y-90539389D01*
X136301484Y-90499000D01*
X136508516Y-90499000D01*
X136711564Y-90539389D01*
X136711564Y-90539389D01*
G37*
G36*
X133061564Y-90539389D02*
G01*
X133252833Y-90618615D01*
X133252835Y-90618616D01*
X133386495Y-90707925D01*
X133424973Y-90733635D01*
X133571365Y-90880027D01*
X133686385Y-91052167D01*
X133765611Y-91243436D01*
X133806000Y-91446484D01*
X133806000Y-91653516D01*
X133765611Y-91856564D01*
X133686385Y-92047833D01*
X133686384Y-92047835D01*
X133571365Y-92219973D01*
X133424973Y-92366365D01*
X133252835Y-92481384D01*
X133252834Y-92481385D01*
X133252833Y-92481385D01*
X133061564Y-92560611D01*
X132858516Y-92601000D01*
X132651484Y-92601000D01*
X132448436Y-92560611D01*
X132257167Y-92481385D01*
X132257166Y-92481385D01*
X132257165Y-92481384D01*
X132085027Y-92366365D01*
X131938635Y-92219973D01*
X131823616Y-92047835D01*
X131823615Y-92047833D01*
X131744389Y-91856564D01*
X131704000Y-91653516D01*
X131704000Y-91446484D01*
X131744389Y-91243436D01*
X131823615Y-91052167D01*
X131938635Y-90880027D01*
X132085027Y-90733635D01*
X132123505Y-90707925D01*
X132257165Y-90618616D01*
X132257167Y-90618615D01*
X132448436Y-90539389D01*
X132651484Y-90499000D01*
X132858516Y-90499000D01*
X133061564Y-90539389D01*
X133061564Y-90539389D01*
G37*
G36*
X126561564Y-90539389D02*
G01*
X126752833Y-90618615D01*
X126752835Y-90618616D01*
X126886495Y-90707925D01*
X126924973Y-90733635D01*
X127071365Y-90880027D01*
X127186385Y-91052167D01*
X127265611Y-91243436D01*
X127306000Y-91446484D01*
X127306000Y-91653516D01*
X127265611Y-91856564D01*
X127186385Y-92047833D01*
X127186384Y-92047835D01*
X127071365Y-92219973D01*
X126924973Y-92366365D01*
X126752835Y-92481384D01*
X126752834Y-92481385D01*
X126752833Y-92481385D01*
X126561564Y-92560611D01*
X126358516Y-92601000D01*
X126151484Y-92601000D01*
X125948436Y-92560611D01*
X125757167Y-92481385D01*
X125757166Y-92481385D01*
X125757165Y-92481384D01*
X125585027Y-92366365D01*
X125438635Y-92219973D01*
X125323616Y-92047835D01*
X125323615Y-92047833D01*
X125244389Y-91856564D01*
X125204000Y-91653516D01*
X125204000Y-91446484D01*
X125244389Y-91243436D01*
X125323615Y-91052167D01*
X125438635Y-90880027D01*
X125585027Y-90733635D01*
X125623505Y-90707925D01*
X125757165Y-90618616D01*
X125757167Y-90618615D01*
X125948436Y-90539389D01*
X126151484Y-90499000D01*
X126358516Y-90499000D01*
X126561564Y-90539389D01*
X126561564Y-90539389D01*
G37*
G36*
X129667142Y-90006242D02*
G01*
X129815101Y-90067529D01*
X129948255Y-90156499D01*
X130061501Y-90269745D01*
X130150471Y-90402899D01*
X130211758Y-90550858D01*
X130243000Y-90707925D01*
X130243000Y-90868075D01*
X130211758Y-91025142D01*
X130150471Y-91173101D01*
X130061501Y-91306255D01*
X129948255Y-91419501D01*
X129815101Y-91508471D01*
X129667142Y-91569758D01*
X129510075Y-91601000D01*
X129349925Y-91601000D01*
X129192858Y-91569758D01*
X129044899Y-91508471D01*
X128911745Y-91419501D01*
X128798499Y-91306255D01*
X128709529Y-91173101D01*
X128648242Y-91025142D01*
X128617000Y-90868075D01*
X128617000Y-90707925D01*
X128648242Y-90550858D01*
X128709529Y-90402899D01*
X128798499Y-90269745D01*
X128911745Y-90156499D01*
X129044899Y-90067529D01*
X129192858Y-90006242D01*
X129349925Y-89975000D01*
X129510075Y-89975000D01*
X129667142Y-90006242D01*
X129667142Y-90006242D01*
G37*
G36*
X149982142Y-90006242D02*
G01*
X150130101Y-90067529D01*
X150263255Y-90156499D01*
X150376501Y-90269745D01*
X150465471Y-90402899D01*
X150526758Y-90550858D01*
X150558000Y-90707925D01*
X150558000Y-90868075D01*
X150526758Y-91025142D01*
X150465471Y-91173101D01*
X150376501Y-91306255D01*
X150263255Y-91419501D01*
X150130101Y-91508471D01*
X149982142Y-91569758D01*
X149825075Y-91601000D01*
X149664925Y-91601000D01*
X149507858Y-91569758D01*
X149359899Y-91508471D01*
X149226745Y-91419501D01*
X149113499Y-91306255D01*
X149024529Y-91173101D01*
X148963242Y-91025142D01*
X148932000Y-90868075D01*
X148932000Y-90707925D01*
X148963242Y-90550858D01*
X149024529Y-90402899D01*
X149113499Y-90269745D01*
X149226745Y-90156499D01*
X149359899Y-90067529D01*
X149507858Y-90006242D01*
X149664925Y-89975000D01*
X149825075Y-89975000D01*
X149982142Y-90006242D01*
X149982142Y-90006242D01*
G37*
G36*
X139817142Y-90006242D02*
G01*
X139965101Y-90067529D01*
X140098255Y-90156499D01*
X140211501Y-90269745D01*
X140300471Y-90402899D01*
X140361758Y-90550858D01*
X140393000Y-90707925D01*
X140393000Y-90868075D01*
X140361758Y-91025142D01*
X140300471Y-91173101D01*
X140211501Y-91306255D01*
X140098255Y-91419501D01*
X139965101Y-91508471D01*
X139817142Y-91569758D01*
X139660075Y-91601000D01*
X139499925Y-91601000D01*
X139342858Y-91569758D01*
X139194899Y-91508471D01*
X139061745Y-91419501D01*
X138948499Y-91306255D01*
X138859529Y-91173101D01*
X138798242Y-91025142D01*
X138767000Y-90868075D01*
X138767000Y-90707925D01*
X138798242Y-90550858D01*
X138859529Y-90402899D01*
X138948499Y-90269745D01*
X139061745Y-90156499D01*
X139194899Y-90067529D01*
X139342858Y-90006242D01*
X139499925Y-89975000D01*
X139660075Y-89975000D01*
X139817142Y-90006242D01*
X139817142Y-90006242D01*
G37*
G36*
X160638564Y-89441389D02*
G01*
X160829833Y-89520615D01*
X160829835Y-89520616D01*
X161001973Y-89635635D01*
X161148365Y-89782027D01*
X161156983Y-89794924D01*
X161263385Y-89954167D01*
X161342611Y-90145436D01*
X161383000Y-90348484D01*
X161383000Y-90555516D01*
X161342611Y-90758564D01*
X161263385Y-90949833D01*
X161263384Y-90949835D01*
X161148365Y-91121973D01*
X161001973Y-91268365D01*
X160829835Y-91383384D01*
X160829834Y-91383385D01*
X160829833Y-91383385D01*
X160638564Y-91462611D01*
X160435516Y-91503000D01*
X160228484Y-91503000D01*
X160025436Y-91462611D01*
X159834167Y-91383385D01*
X159834166Y-91383385D01*
X159834165Y-91383384D01*
X159662027Y-91268365D01*
X159515635Y-91121973D01*
X159400616Y-90949835D01*
X159400615Y-90949833D01*
X159321389Y-90758564D01*
X159281000Y-90555516D01*
X159281000Y-90348484D01*
X159321389Y-90145436D01*
X159400615Y-89954167D01*
X159507018Y-89794924D01*
X159515635Y-89782027D01*
X159662027Y-89635635D01*
X159834165Y-89520616D01*
X159834167Y-89520615D01*
X160025436Y-89441389D01*
X160228484Y-89401000D01*
X160435516Y-89401000D01*
X160638564Y-89441389D01*
X160638564Y-89441389D01*
G37*
G36*
X165138564Y-89441389D02*
G01*
X165329833Y-89520615D01*
X165329835Y-89520616D01*
X165501973Y-89635635D01*
X165648365Y-89782027D01*
X165656983Y-89794924D01*
X165763385Y-89954167D01*
X165842611Y-90145436D01*
X165883000Y-90348484D01*
X165883000Y-90555516D01*
X165842611Y-90758564D01*
X165763385Y-90949833D01*
X165763384Y-90949835D01*
X165648365Y-91121973D01*
X165501973Y-91268365D01*
X165329835Y-91383384D01*
X165329834Y-91383385D01*
X165329833Y-91383385D01*
X165138564Y-91462611D01*
X164935516Y-91503000D01*
X164728484Y-91503000D01*
X164525436Y-91462611D01*
X164334167Y-91383385D01*
X164334166Y-91383385D01*
X164334165Y-91383384D01*
X164162027Y-91268365D01*
X164015635Y-91121973D01*
X163900616Y-90949835D01*
X163900615Y-90949833D01*
X163821389Y-90758564D01*
X163781000Y-90555516D01*
X163781000Y-90348484D01*
X163821389Y-90145436D01*
X163900615Y-89954167D01*
X164007018Y-89794924D01*
X164015635Y-89782027D01*
X164162027Y-89635635D01*
X164334165Y-89520616D01*
X164334167Y-89520615D01*
X164525436Y-89441389D01*
X164728484Y-89401000D01*
X164935516Y-89401000D01*
X165138564Y-89441389D01*
X165138564Y-89441389D01*
G37*
G36*
X173399823Y-89431313D02*
G01*
X173560242Y-89479976D01*
X173636272Y-89520615D01*
X173708078Y-89558996D01*
X173837659Y-89665341D01*
X173944004Y-89794922D01*
X173944005Y-89794924D01*
X174023024Y-89942758D01*
X174071687Y-90103177D01*
X174088117Y-90270000D01*
X174071687Y-90436823D01*
X174023024Y-90597242D01*
X174011599Y-90618616D01*
X173944004Y-90745078D01*
X173837659Y-90874659D01*
X173708078Y-90981004D01*
X173708076Y-90981005D01*
X173560242Y-91060024D01*
X173399823Y-91108687D01*
X173274804Y-91121000D01*
X172191196Y-91121000D01*
X172066177Y-91108687D01*
X171905758Y-91060024D01*
X171757924Y-90981005D01*
X171757922Y-90981004D01*
X171628341Y-90874659D01*
X171521996Y-90745078D01*
X171454401Y-90618616D01*
X171442976Y-90597242D01*
X171394313Y-90436823D01*
X171377883Y-90270000D01*
X171394313Y-90103177D01*
X171442976Y-89942758D01*
X171521995Y-89794924D01*
X171521996Y-89794922D01*
X171628341Y-89665341D01*
X171757922Y-89558996D01*
X171829728Y-89520615D01*
X171905758Y-89479976D01*
X172066177Y-89431313D01*
X172191196Y-89419000D01*
X173274804Y-89419000D01*
X173399823Y-89431313D01*
X173399823Y-89431313D01*
G37*
G36*
X122805442Y-87675518D02*
G01*
X122871627Y-87682037D01*
X123041466Y-87733557D01*
X123197991Y-87817222D01*
X123233729Y-87846552D01*
X123335186Y-87929814D01*
X123418448Y-88031271D01*
X123447778Y-88067009D01*
X123531443Y-88223534D01*
X123582963Y-88393373D01*
X123600359Y-88570000D01*
X123582963Y-88746627D01*
X123531443Y-88916466D01*
X123447778Y-89072991D01*
X123418448Y-89108729D01*
X123335186Y-89210186D01*
X123233729Y-89293448D01*
X123197991Y-89322778D01*
X123041466Y-89406443D01*
X122871627Y-89457963D01*
X122805443Y-89464481D01*
X122739260Y-89471000D01*
X122650740Y-89471000D01*
X122584557Y-89464481D01*
X122518373Y-89457963D01*
X122348534Y-89406443D01*
X122192009Y-89322778D01*
X122156271Y-89293448D01*
X122054814Y-89210186D01*
X121971552Y-89108729D01*
X121942222Y-89072991D01*
X121858557Y-88916466D01*
X121807037Y-88746627D01*
X121789641Y-88570000D01*
X121807037Y-88393373D01*
X121858557Y-88223534D01*
X121942222Y-88067009D01*
X121971552Y-88031271D01*
X122054814Y-87929814D01*
X122156271Y-87846552D01*
X122192009Y-87817222D01*
X122348534Y-87733557D01*
X122518373Y-87682037D01*
X122584558Y-87675518D01*
X122650740Y-87669000D01*
X122739260Y-87669000D01*
X122805442Y-87675518D01*
X122805442Y-87675518D01*
G37*
G36*
X173179228Y-86313483D02*
G01*
X173367922Y-86370723D01*
X173541815Y-86463671D01*
X173694239Y-86588761D01*
X173819329Y-86741185D01*
X173912277Y-86915078D01*
X173969517Y-87103772D01*
X173988843Y-87300000D01*
X173969517Y-87496228D01*
X173912277Y-87684922D01*
X173819329Y-87858815D01*
X173694239Y-88011239D01*
X173541815Y-88136329D01*
X173367922Y-88229277D01*
X173179228Y-88286517D01*
X173032175Y-88301000D01*
X172433825Y-88301000D01*
X172286772Y-88286517D01*
X172098078Y-88229277D01*
X171924185Y-88136329D01*
X171771761Y-88011239D01*
X171646671Y-87858815D01*
X171553723Y-87684922D01*
X171496483Y-87496228D01*
X171477157Y-87300000D01*
X171496483Y-87103772D01*
X171553723Y-86915078D01*
X171646671Y-86741185D01*
X171771761Y-86588761D01*
X171924185Y-86463671D01*
X172098078Y-86370723D01*
X172286772Y-86313483D01*
X172433825Y-86299000D01*
X173032175Y-86299000D01*
X173179228Y-86313483D01*
X173179228Y-86313483D01*
G37*
G36*
X122805443Y-85135519D02*
G01*
X122871627Y-85142037D01*
X123041466Y-85193557D01*
X123197991Y-85277222D01*
X123233729Y-85306552D01*
X123335186Y-85389814D01*
X123418448Y-85491271D01*
X123447778Y-85527009D01*
X123531443Y-85683534D01*
X123582963Y-85853373D01*
X123600359Y-86030000D01*
X123582963Y-86206627D01*
X123531443Y-86376466D01*
X123447778Y-86532991D01*
X123418448Y-86568729D01*
X123335186Y-86670186D01*
X123248673Y-86741184D01*
X123197991Y-86782778D01*
X123041466Y-86866443D01*
X122871627Y-86917963D01*
X122805442Y-86924482D01*
X122739260Y-86931000D01*
X122650740Y-86931000D01*
X122584558Y-86924482D01*
X122518373Y-86917963D01*
X122348534Y-86866443D01*
X122192009Y-86782778D01*
X122141327Y-86741184D01*
X122054814Y-86670186D01*
X121971552Y-86568729D01*
X121942222Y-86532991D01*
X121858557Y-86376466D01*
X121807037Y-86206627D01*
X121789641Y-86030000D01*
X121807037Y-85853373D01*
X121858557Y-85683534D01*
X121942222Y-85527009D01*
X121971552Y-85491271D01*
X122054814Y-85389814D01*
X122156271Y-85306552D01*
X122192009Y-85277222D01*
X122348534Y-85193557D01*
X122518373Y-85142037D01*
X122584557Y-85135519D01*
X122650740Y-85129000D01*
X122739260Y-85129000D01*
X122805443Y-85135519D01*
X122805443Y-85135519D01*
G37*
G36*
X160561564Y-83245389D02*
G01*
X160725692Y-83313373D01*
X160752835Y-83324616D01*
X160924973Y-83439635D01*
X161071365Y-83586027D01*
X161164452Y-83725341D01*
X161186385Y-83758167D01*
X161265611Y-83949436D01*
X161306000Y-84152484D01*
X161306000Y-84359516D01*
X161265611Y-84562564D01*
X161226395Y-84657239D01*
X161186384Y-84753835D01*
X161071365Y-84925973D01*
X160924973Y-85072365D01*
X160752835Y-85187384D01*
X160752834Y-85187385D01*
X160752833Y-85187385D01*
X160561564Y-85266611D01*
X160358516Y-85307000D01*
X160151484Y-85307000D01*
X159948436Y-85266611D01*
X159757167Y-85187385D01*
X159757166Y-85187385D01*
X159757165Y-85187384D01*
X159585027Y-85072365D01*
X159438635Y-84925973D01*
X159323616Y-84753835D01*
X159283605Y-84657239D01*
X159244389Y-84562564D01*
X159204000Y-84359516D01*
X159204000Y-84152484D01*
X159244389Y-83949436D01*
X159323615Y-83758167D01*
X159345549Y-83725341D01*
X159438635Y-83586027D01*
X159585027Y-83439635D01*
X159757165Y-83324616D01*
X159784308Y-83313373D01*
X159948436Y-83245389D01*
X160151484Y-83205000D01*
X160358516Y-83205000D01*
X160561564Y-83245389D01*
X160561564Y-83245389D01*
G37*
G36*
X165061564Y-83245389D02*
G01*
X165225692Y-83313373D01*
X165252835Y-83324616D01*
X165424973Y-83439635D01*
X165571365Y-83586027D01*
X165664452Y-83725341D01*
X165686385Y-83758167D01*
X165765611Y-83949436D01*
X165806000Y-84152484D01*
X165806000Y-84359516D01*
X165765611Y-84562564D01*
X165726395Y-84657239D01*
X165686384Y-84753835D01*
X165571365Y-84925973D01*
X165424973Y-85072365D01*
X165252835Y-85187384D01*
X165252834Y-85187385D01*
X165252833Y-85187385D01*
X165061564Y-85266611D01*
X164858516Y-85307000D01*
X164651484Y-85307000D01*
X164448436Y-85266611D01*
X164257167Y-85187385D01*
X164257166Y-85187385D01*
X164257165Y-85187384D01*
X164085027Y-85072365D01*
X163938635Y-84925973D01*
X163823616Y-84753835D01*
X163783605Y-84657239D01*
X163744389Y-84562564D01*
X163704000Y-84359516D01*
X163704000Y-84152484D01*
X163744389Y-83949436D01*
X163823615Y-83758167D01*
X163845549Y-83725341D01*
X163938635Y-83586027D01*
X164085027Y-83439635D01*
X164257165Y-83324616D01*
X164284308Y-83313373D01*
X164448436Y-83245389D01*
X164651484Y-83205000D01*
X164858516Y-83205000D01*
X165061564Y-83245389D01*
X165061564Y-83245389D01*
G37*
G36*
X173399823Y-83491313D02*
G01*
X173560242Y-83539976D01*
X173646397Y-83586027D01*
X173708078Y-83618996D01*
X173837659Y-83725341D01*
X173944004Y-83854922D01*
X173944005Y-83854924D01*
X174023024Y-84002758D01*
X174071687Y-84163177D01*
X174088117Y-84330000D01*
X174071687Y-84496823D01*
X174023024Y-84657242D01*
X173971395Y-84753833D01*
X173944004Y-84805078D01*
X173837659Y-84934659D01*
X173708078Y-85041004D01*
X173708076Y-85041005D01*
X173560242Y-85120024D01*
X173399823Y-85168687D01*
X173274804Y-85181000D01*
X172191196Y-85181000D01*
X172066177Y-85168687D01*
X171905758Y-85120024D01*
X171757924Y-85041005D01*
X171757922Y-85041004D01*
X171628341Y-84934659D01*
X171521996Y-84805078D01*
X171494605Y-84753833D01*
X171442976Y-84657242D01*
X171394313Y-84496823D01*
X171377883Y-84330000D01*
X171394313Y-84163177D01*
X171442976Y-84002758D01*
X171521995Y-83854924D01*
X171521996Y-83854922D01*
X171628341Y-83725341D01*
X171757922Y-83618996D01*
X171819603Y-83586027D01*
X171905758Y-83539976D01*
X172066177Y-83491313D01*
X172191196Y-83479000D01*
X173274804Y-83479000D01*
X173399823Y-83491313D01*
X173399823Y-83491313D01*
G37*
G36*
X122805443Y-82595519D02*
G01*
X122871627Y-82602037D01*
X123041466Y-82653557D01*
X123197991Y-82737222D01*
X123233729Y-82766552D01*
X123335186Y-82849814D01*
X123418448Y-82951271D01*
X123447778Y-82987009D01*
X123531443Y-83143534D01*
X123582963Y-83313373D01*
X123600359Y-83490000D01*
X123582963Y-83666627D01*
X123531443Y-83836466D01*
X123447778Y-83992991D01*
X123418448Y-84028729D01*
X123335186Y-84130186D01*
X123233729Y-84213448D01*
X123197991Y-84242778D01*
X123041466Y-84326443D01*
X122871627Y-84377963D01*
X122805443Y-84384481D01*
X122739260Y-84391000D01*
X122650740Y-84391000D01*
X122584557Y-84384481D01*
X122518373Y-84377963D01*
X122348534Y-84326443D01*
X122192009Y-84242778D01*
X122156271Y-84213448D01*
X122054814Y-84130186D01*
X121971552Y-84028729D01*
X121942222Y-83992991D01*
X121858557Y-83836466D01*
X121807037Y-83666627D01*
X121789641Y-83490000D01*
X121807037Y-83313373D01*
X121858557Y-83143534D01*
X121942222Y-82987009D01*
X121971552Y-82951271D01*
X122054814Y-82849814D01*
X122156271Y-82766552D01*
X122192009Y-82737222D01*
X122348534Y-82653557D01*
X122518373Y-82602037D01*
X122584557Y-82595519D01*
X122650740Y-82589000D01*
X122739260Y-82589000D01*
X122805443Y-82595519D01*
X122805443Y-82595519D01*
G37*
G36*
X159730142Y-80299242D02*
G01*
X159878101Y-80360529D01*
X160011255Y-80449499D01*
X160124501Y-80562745D01*
X160213471Y-80695899D01*
X160274758Y-80843858D01*
X160306000Y-81000925D01*
X160306000Y-81161075D01*
X160274758Y-81318142D01*
X160213471Y-81466101D01*
X160124501Y-81599255D01*
X160011255Y-81712501D01*
X159878101Y-81801471D01*
X159730142Y-81862758D01*
X159573075Y-81894000D01*
X159412925Y-81894000D01*
X159255858Y-81862758D01*
X159107899Y-81801471D01*
X158974745Y-81712501D01*
X158861499Y-81599255D01*
X158772529Y-81466101D01*
X158711242Y-81318142D01*
X158680000Y-81161075D01*
X158680000Y-81000925D01*
X158711242Y-80843858D01*
X158772529Y-80695899D01*
X158861499Y-80562745D01*
X158974745Y-80449499D01*
X159107899Y-80360529D01*
X159255858Y-80299242D01*
X159412925Y-80268000D01*
X159573075Y-80268000D01*
X159730142Y-80299242D01*
X159730142Y-80299242D01*
G37*
G36*
X166275000Y-81894000D02*
G01*
X164649000Y-81894000D01*
X164649000Y-80268000D01*
X166275000Y-80268000D01*
X166275000Y-81894000D01*
X166275000Y-81894000D01*
G37*
G36*
X122805442Y-80055518D02*
G01*
X122871627Y-80062037D01*
X123041466Y-80113557D01*
X123197991Y-80197222D01*
X123233729Y-80226552D01*
X123335186Y-80309814D01*
X123418448Y-80411271D01*
X123447778Y-80447009D01*
X123531443Y-80603534D01*
X123582963Y-80773373D01*
X123600359Y-80950000D01*
X123582963Y-81126627D01*
X123531443Y-81296466D01*
X123447778Y-81452991D01*
X123418448Y-81488729D01*
X123335186Y-81590186D01*
X123233729Y-81673448D01*
X123197991Y-81702778D01*
X123041466Y-81786443D01*
X122871627Y-81837963D01*
X122805442Y-81844482D01*
X122739260Y-81851000D01*
X122650740Y-81851000D01*
X122584558Y-81844482D01*
X122518373Y-81837963D01*
X122348534Y-81786443D01*
X122192009Y-81702778D01*
X122156271Y-81673448D01*
X122054814Y-81590186D01*
X121971552Y-81488729D01*
X121942222Y-81452991D01*
X121858557Y-81296466D01*
X121807037Y-81126627D01*
X121789641Y-80950000D01*
X121807037Y-80773373D01*
X121858557Y-80603534D01*
X121942222Y-80447009D01*
X121971552Y-80411271D01*
X122054814Y-80309814D01*
X122156271Y-80226552D01*
X122192009Y-80197222D01*
X122348534Y-80113557D01*
X122518373Y-80062037D01*
X122584558Y-80055518D01*
X122650740Y-80049000D01*
X122739260Y-80049000D01*
X122805442Y-80055518D01*
X122805442Y-80055518D01*
G37*
G36*
X122805442Y-77515518D02*
G01*
X122871627Y-77522037D01*
X123041466Y-77573557D01*
X123197991Y-77657222D01*
X123233729Y-77686552D01*
X123335186Y-77769814D01*
X123408800Y-77859514D01*
X123447778Y-77907009D01*
X123531443Y-78063534D01*
X123582963Y-78233373D01*
X123600359Y-78410000D01*
X123582963Y-78586627D01*
X123531443Y-78756466D01*
X123447778Y-78912991D01*
X123418448Y-78948729D01*
X123335186Y-79050186D01*
X123233729Y-79133448D01*
X123197991Y-79162778D01*
X123041466Y-79246443D01*
X122871627Y-79297963D01*
X122805443Y-79304481D01*
X122739260Y-79311000D01*
X122650740Y-79311000D01*
X122584557Y-79304481D01*
X122518373Y-79297963D01*
X122348534Y-79246443D01*
X122192009Y-79162778D01*
X122156271Y-79133448D01*
X122054814Y-79050186D01*
X121971552Y-78948729D01*
X121942222Y-78912991D01*
X121858557Y-78756466D01*
X121807037Y-78586627D01*
X121789641Y-78410000D01*
X121807037Y-78233373D01*
X121858557Y-78063534D01*
X121942222Y-77907009D01*
X121981200Y-77859514D01*
X122054814Y-77769814D01*
X122156271Y-77686552D01*
X122192009Y-77657222D01*
X122348534Y-77573557D01*
X122518373Y-77522037D01*
X122584558Y-77515518D01*
X122650740Y-77509000D01*
X122739260Y-77509000D01*
X122805442Y-77515518D01*
X122805442Y-77515518D01*
G37*
G36*
X160561564Y-76745389D02*
G01*
X160740267Y-76819410D01*
X160752835Y-76824616D01*
X160762389Y-76831000D01*
X160924973Y-76939635D01*
X161071365Y-77086027D01*
X161186385Y-77258167D01*
X161265611Y-77449436D01*
X161306000Y-77652484D01*
X161306000Y-77859516D01*
X161265611Y-78062564D01*
X161265209Y-78063534D01*
X161186384Y-78253835D01*
X161071365Y-78425973D01*
X160924973Y-78572365D01*
X160752835Y-78687384D01*
X160752834Y-78687385D01*
X160752833Y-78687385D01*
X160561564Y-78766611D01*
X160358516Y-78807000D01*
X160151484Y-78807000D01*
X159948436Y-78766611D01*
X159757167Y-78687385D01*
X159757166Y-78687385D01*
X159757165Y-78687384D01*
X159585027Y-78572365D01*
X159438635Y-78425973D01*
X159323616Y-78253835D01*
X159244791Y-78063534D01*
X159244389Y-78062564D01*
X159204000Y-77859516D01*
X159204000Y-77652484D01*
X159244389Y-77449436D01*
X159323615Y-77258167D01*
X159438635Y-77086027D01*
X159585027Y-76939635D01*
X159747611Y-76831000D01*
X159757165Y-76824616D01*
X159769733Y-76819410D01*
X159948436Y-76745389D01*
X160151484Y-76705000D01*
X160358516Y-76705000D01*
X160561564Y-76745389D01*
X160561564Y-76745389D01*
G37*
G36*
X165061564Y-76745389D02*
G01*
X165240267Y-76819410D01*
X165252835Y-76824616D01*
X165262389Y-76831000D01*
X165424973Y-76939635D01*
X165571365Y-77086027D01*
X165686385Y-77258167D01*
X165765611Y-77449436D01*
X165806000Y-77652484D01*
X165806000Y-77859516D01*
X165765611Y-78062564D01*
X165765209Y-78063534D01*
X165686384Y-78253835D01*
X165571365Y-78425973D01*
X165424973Y-78572365D01*
X165252835Y-78687384D01*
X165252834Y-78687385D01*
X165252833Y-78687385D01*
X165061564Y-78766611D01*
X164858516Y-78807000D01*
X164651484Y-78807000D01*
X164448436Y-78766611D01*
X164257167Y-78687385D01*
X164257166Y-78687385D01*
X164257165Y-78687384D01*
X164085027Y-78572365D01*
X163938635Y-78425973D01*
X163823616Y-78253835D01*
X163744791Y-78063534D01*
X163744389Y-78062564D01*
X163704000Y-77859516D01*
X163704000Y-77652484D01*
X163744389Y-77449436D01*
X163823615Y-77258167D01*
X163938635Y-77086027D01*
X164085027Y-76939635D01*
X164247611Y-76831000D01*
X164257165Y-76824616D01*
X164269733Y-76819410D01*
X164448436Y-76745389D01*
X164651484Y-76705000D01*
X164858516Y-76705000D01*
X165061564Y-76745389D01*
X165061564Y-76745389D01*
G37*
G36*
X173361571Y-75232863D02*
G01*
X173440023Y-75240590D01*
X173540682Y-75271125D01*
X173591013Y-75286392D01*
X173730165Y-75360771D01*
X173852133Y-75460867D01*
X173952229Y-75582835D01*
X174026608Y-75721987D01*
X174026608Y-75721988D01*
X174072410Y-75872977D01*
X174087875Y-76030000D01*
X174072410Y-76187023D01*
X174041875Y-76287682D01*
X174026608Y-76338013D01*
X173952229Y-76477165D01*
X173852133Y-76599133D01*
X173730165Y-76699229D01*
X173591013Y-76773608D01*
X173540682Y-76788875D01*
X173440023Y-76819410D01*
X173387164Y-76824616D01*
X173322346Y-76831000D01*
X172143654Y-76831000D01*
X172078836Y-76824616D01*
X172025977Y-76819410D01*
X171925318Y-76788875D01*
X171874987Y-76773608D01*
X171735835Y-76699229D01*
X171613867Y-76599133D01*
X171513771Y-76477165D01*
X171439392Y-76338013D01*
X171424125Y-76287682D01*
X171393590Y-76187023D01*
X171378125Y-76030000D01*
X171393590Y-75872977D01*
X171439392Y-75721988D01*
X171439392Y-75721987D01*
X171513771Y-75582835D01*
X171613867Y-75460867D01*
X171735835Y-75360771D01*
X171874987Y-75286392D01*
X171925318Y-75271125D01*
X172025977Y-75240590D01*
X172104429Y-75232863D01*
X172143654Y-75229000D01*
X173322346Y-75229000D01*
X173361571Y-75232863D01*
X173361571Y-75232863D01*
G37*
G36*
X123596000Y-76771000D02*
G01*
X121794000Y-76771000D01*
X121794000Y-74969000D01*
X123596000Y-74969000D01*
X123596000Y-76771000D01*
X123596000Y-76771000D01*
G37*
G36*
X173361571Y-72372863D02*
G01*
X173440023Y-72380590D01*
X173540682Y-72411125D01*
X173591013Y-72426392D01*
X173730165Y-72500771D01*
X173852133Y-72600867D01*
X173952229Y-72722835D01*
X174026608Y-72861987D01*
X174026608Y-72861988D01*
X174072410Y-73012977D01*
X174087875Y-73170000D01*
X174072410Y-73327023D01*
X174041875Y-73427682D01*
X174026608Y-73478013D01*
X173952229Y-73617165D01*
X173852133Y-73739133D01*
X173730165Y-73839229D01*
X173591013Y-73913608D01*
X173540682Y-73928875D01*
X173440023Y-73959410D01*
X173361571Y-73967137D01*
X173322346Y-73971000D01*
X172143654Y-73971000D01*
X172104429Y-73967137D01*
X172025977Y-73959410D01*
X171925318Y-73928875D01*
X171874987Y-73913608D01*
X171735835Y-73839229D01*
X171613867Y-73739133D01*
X171513771Y-73617165D01*
X171439392Y-73478013D01*
X171424125Y-73427682D01*
X171393590Y-73327023D01*
X171378125Y-73170000D01*
X171393590Y-73012977D01*
X171439392Y-72861988D01*
X171439392Y-72861987D01*
X171513771Y-72722835D01*
X171613867Y-72600867D01*
X171735835Y-72500771D01*
X171874987Y-72426392D01*
X171925318Y-72411125D01*
X172025977Y-72380590D01*
X172104429Y-72372863D01*
X172143654Y-72369000D01*
X173322346Y-72369000D01*
X173361571Y-72372863D01*
X173361571Y-72372863D01*
G37*
G36*
X160638564Y-70541389D02*
G01*
X160829833Y-70620615D01*
X160829835Y-70620616D01*
X161001973Y-70735635D01*
X161148365Y-70882027D01*
X161263385Y-71054167D01*
X161342611Y-71245436D01*
X161383000Y-71448484D01*
X161383000Y-71655516D01*
X161342611Y-71858564D01*
X161263385Y-72049833D01*
X161263384Y-72049835D01*
X161148365Y-72221973D01*
X161001973Y-72368365D01*
X160829835Y-72483384D01*
X160829834Y-72483385D01*
X160829833Y-72483385D01*
X160638564Y-72562611D01*
X160435516Y-72603000D01*
X160228484Y-72603000D01*
X160025436Y-72562611D01*
X159834167Y-72483385D01*
X159834166Y-72483385D01*
X159834165Y-72483384D01*
X159662027Y-72368365D01*
X159515635Y-72221973D01*
X159400616Y-72049835D01*
X159400615Y-72049833D01*
X159321389Y-71858564D01*
X159281000Y-71655516D01*
X159281000Y-71448484D01*
X159321389Y-71245436D01*
X159400615Y-71054167D01*
X159515635Y-70882027D01*
X159662027Y-70735635D01*
X159834165Y-70620616D01*
X159834167Y-70620615D01*
X160025436Y-70541389D01*
X160228484Y-70501000D01*
X160435516Y-70501000D01*
X160638564Y-70541389D01*
X160638564Y-70541389D01*
G37*
G36*
X165138564Y-70541389D02*
G01*
X165329833Y-70620615D01*
X165329835Y-70620616D01*
X165501973Y-70735635D01*
X165648365Y-70882027D01*
X165763385Y-71054167D01*
X165842611Y-71245436D01*
X165883000Y-71448484D01*
X165883000Y-71655516D01*
X165842611Y-71858564D01*
X165763385Y-72049833D01*
X165763384Y-72049835D01*
X165648365Y-72221973D01*
X165501973Y-72368365D01*
X165329835Y-72483384D01*
X165329834Y-72483385D01*
X165329833Y-72483385D01*
X165138564Y-72562611D01*
X164935516Y-72603000D01*
X164728484Y-72603000D01*
X164525436Y-72562611D01*
X164334167Y-72483385D01*
X164334166Y-72483385D01*
X164334165Y-72483384D01*
X164162027Y-72368365D01*
X164015635Y-72221973D01*
X163900616Y-72049835D01*
X163900615Y-72049833D01*
X163821389Y-71858564D01*
X163781000Y-71655516D01*
X163781000Y-71448484D01*
X163821389Y-71245436D01*
X163900615Y-71054167D01*
X164015635Y-70882027D01*
X164162027Y-70735635D01*
X164334165Y-70620616D01*
X164334167Y-70620615D01*
X164525436Y-70541389D01*
X164728484Y-70501000D01*
X164935516Y-70501000D01*
X165138564Y-70541389D01*
X165138564Y-70541389D01*
G37*
G36*
X122805442Y-68625518D02*
G01*
X122871627Y-68632037D01*
X123041466Y-68683557D01*
X123197991Y-68767222D01*
X123233729Y-68796552D01*
X123335186Y-68879814D01*
X123418448Y-68981271D01*
X123447778Y-69017009D01*
X123447779Y-69017011D01*
X123523545Y-69158757D01*
X123531443Y-69173534D01*
X123582963Y-69343373D01*
X123600359Y-69520000D01*
X123582963Y-69696627D01*
X123531443Y-69866466D01*
X123447778Y-70022991D01*
X123418448Y-70058729D01*
X123335186Y-70160186D01*
X123233729Y-70243448D01*
X123197991Y-70272778D01*
X123041466Y-70356443D01*
X122871627Y-70407963D01*
X122805442Y-70414482D01*
X122739260Y-70421000D01*
X122650740Y-70421000D01*
X122584558Y-70414482D01*
X122518373Y-70407963D01*
X122348534Y-70356443D01*
X122192009Y-70272778D01*
X122156271Y-70243448D01*
X122054814Y-70160186D01*
X121971552Y-70058729D01*
X121942222Y-70022991D01*
X121858557Y-69866466D01*
X121807037Y-69696627D01*
X121789641Y-69520000D01*
X121807037Y-69343373D01*
X121858557Y-69173534D01*
X121866456Y-69158757D01*
X121942221Y-69017011D01*
X121942222Y-69017009D01*
X121971552Y-68981271D01*
X122054814Y-68879814D01*
X122156271Y-68796552D01*
X122192009Y-68767222D01*
X122348534Y-68683557D01*
X122518373Y-68632037D01*
X122584558Y-68625518D01*
X122650740Y-68619000D01*
X122739260Y-68619000D01*
X122805442Y-68625518D01*
X122805442Y-68625518D01*
G37*
G36*
X159807142Y-67595242D02*
G01*
X159955101Y-67656529D01*
X160088255Y-67745499D01*
X160201501Y-67858745D01*
X160290471Y-67991899D01*
X160351758Y-68139858D01*
X160383000Y-68296925D01*
X160383000Y-68457075D01*
X160351758Y-68614142D01*
X160290471Y-68762101D01*
X160201501Y-68895255D01*
X160088255Y-69008501D01*
X159955101Y-69097471D01*
X159807142Y-69158758D01*
X159650075Y-69190000D01*
X159489925Y-69190000D01*
X159332858Y-69158758D01*
X159184899Y-69097471D01*
X159051745Y-69008501D01*
X158938499Y-68895255D01*
X158849529Y-68762101D01*
X158788242Y-68614142D01*
X158757000Y-68457075D01*
X158757000Y-68296925D01*
X158788242Y-68139858D01*
X158849529Y-67991899D01*
X158938499Y-67858745D01*
X159051745Y-67745499D01*
X159184899Y-67656529D01*
X159332858Y-67595242D01*
X159489925Y-67564000D01*
X159650075Y-67564000D01*
X159807142Y-67595242D01*
X159807142Y-67595242D01*
G37*
G36*
X166352000Y-69190000D02*
G01*
X164726000Y-69190000D01*
X164726000Y-67564000D01*
X166352000Y-67564000D01*
X166352000Y-69190000D01*
X166352000Y-69190000D01*
G37*
G36*
X122805442Y-66085518D02*
G01*
X122871627Y-66092037D01*
X123041466Y-66143557D01*
X123197991Y-66227222D01*
X123233729Y-66256552D01*
X123335186Y-66339814D01*
X123418448Y-66441271D01*
X123447778Y-66477009D01*
X123531443Y-66633534D01*
X123582963Y-66803373D01*
X123600359Y-66980000D01*
X123582963Y-67156627D01*
X123531443Y-67326466D01*
X123447778Y-67482991D01*
X123418448Y-67518729D01*
X123335186Y-67620186D01*
X123233729Y-67703448D01*
X123197991Y-67732778D01*
X123041466Y-67816443D01*
X122871627Y-67867963D01*
X122805443Y-67874481D01*
X122739260Y-67881000D01*
X122650740Y-67881000D01*
X122584557Y-67874481D01*
X122518373Y-67867963D01*
X122348534Y-67816443D01*
X122192009Y-67732778D01*
X122156271Y-67703448D01*
X122054814Y-67620186D01*
X121971552Y-67518729D01*
X121942222Y-67482991D01*
X121858557Y-67326466D01*
X121807037Y-67156627D01*
X121789641Y-66980000D01*
X121807037Y-66803373D01*
X121858557Y-66633534D01*
X121942222Y-66477009D01*
X121971552Y-66441271D01*
X122054814Y-66339814D01*
X122156271Y-66256552D01*
X122192009Y-66227222D01*
X122348534Y-66143557D01*
X122518373Y-66092037D01*
X122584558Y-66085518D01*
X122650740Y-66079000D01*
X122739260Y-66079000D01*
X122805442Y-66085518D01*
X122805442Y-66085518D01*
G37*
G36*
X128774443Y-64815519D02*
G01*
X128840627Y-64822037D01*
X129010466Y-64873557D01*
X129166991Y-64957222D01*
X129202729Y-64986552D01*
X129304186Y-65069814D01*
X129387448Y-65171271D01*
X129416778Y-65207009D01*
X129416779Y-65207011D01*
X129497787Y-65358564D01*
X129500443Y-65363534D01*
X129551963Y-65533373D01*
X129569359Y-65710000D01*
X129551963Y-65886627D01*
X129500443Y-66056466D01*
X129416778Y-66212991D01*
X129387448Y-66248729D01*
X129304186Y-66350186D01*
X129202729Y-66433448D01*
X129166991Y-66462778D01*
X129010466Y-66546443D01*
X128840627Y-66597963D01*
X128774443Y-66604481D01*
X128708260Y-66611000D01*
X128619740Y-66611000D01*
X128553557Y-66604481D01*
X128487373Y-66597963D01*
X128317534Y-66546443D01*
X128161009Y-66462778D01*
X128125271Y-66433448D01*
X128023814Y-66350186D01*
X127940552Y-66248729D01*
X127911222Y-66212991D01*
X127827557Y-66056466D01*
X127776037Y-65886627D01*
X127758641Y-65710000D01*
X127776037Y-65533373D01*
X127827557Y-65363534D01*
X127830214Y-65358564D01*
X127911221Y-65207011D01*
X127911222Y-65207009D01*
X127940552Y-65171271D01*
X128023814Y-65069814D01*
X128125271Y-64986552D01*
X128161009Y-64957222D01*
X128317534Y-64873557D01*
X128487373Y-64822037D01*
X128553557Y-64815519D01*
X128619740Y-64809000D01*
X128708260Y-64809000D01*
X128774443Y-64815519D01*
X128774443Y-64815519D01*
G37*
G36*
X165138564Y-64041389D02*
G01*
X165329833Y-64120615D01*
X165329835Y-64120616D01*
X165501973Y-64235635D01*
X165648365Y-64382027D01*
X165656983Y-64394924D01*
X165763385Y-64554167D01*
X165842611Y-64745436D01*
X165883000Y-64948484D01*
X165883000Y-65155516D01*
X165842611Y-65358564D01*
X165840553Y-65363532D01*
X165763384Y-65549835D01*
X165648365Y-65721973D01*
X165501973Y-65868365D01*
X165329835Y-65983384D01*
X165329834Y-65983385D01*
X165329833Y-65983385D01*
X165138564Y-66062611D01*
X164935516Y-66103000D01*
X164728484Y-66103000D01*
X164525436Y-66062611D01*
X164334167Y-65983385D01*
X164334166Y-65983385D01*
X164334165Y-65983384D01*
X164162027Y-65868365D01*
X164015635Y-65721973D01*
X163900616Y-65549835D01*
X163823447Y-65363532D01*
X163821389Y-65358564D01*
X163781000Y-65155516D01*
X163781000Y-64948484D01*
X163821389Y-64745436D01*
X163900615Y-64554167D01*
X164007018Y-64394924D01*
X164015635Y-64382027D01*
X164162027Y-64235635D01*
X164334165Y-64120616D01*
X164334167Y-64120615D01*
X164525436Y-64041389D01*
X164728484Y-64001000D01*
X164935516Y-64001000D01*
X165138564Y-64041389D01*
X165138564Y-64041389D01*
G37*
G36*
X160638564Y-64041389D02*
G01*
X160829833Y-64120615D01*
X160829835Y-64120616D01*
X161001973Y-64235635D01*
X161148365Y-64382027D01*
X161156983Y-64394924D01*
X161263385Y-64554167D01*
X161342611Y-64745436D01*
X161383000Y-64948484D01*
X161383000Y-65155516D01*
X161342611Y-65358564D01*
X161340553Y-65363532D01*
X161263384Y-65549835D01*
X161148365Y-65721973D01*
X161001973Y-65868365D01*
X160829835Y-65983384D01*
X160829834Y-65983385D01*
X160829833Y-65983385D01*
X160638564Y-66062611D01*
X160435516Y-66103000D01*
X160228484Y-66103000D01*
X160025436Y-66062611D01*
X159834167Y-65983385D01*
X159834166Y-65983385D01*
X159834165Y-65983384D01*
X159662027Y-65868365D01*
X159515635Y-65721973D01*
X159400616Y-65549835D01*
X159323447Y-65363532D01*
X159321389Y-65358564D01*
X159281000Y-65155516D01*
X159281000Y-64948484D01*
X159321389Y-64745436D01*
X159400615Y-64554167D01*
X159507018Y-64394924D01*
X159515635Y-64382027D01*
X159662027Y-64235635D01*
X159834165Y-64120616D01*
X159834167Y-64120615D01*
X160025436Y-64041389D01*
X160228484Y-64001000D01*
X160435516Y-64001000D01*
X160638564Y-64041389D01*
X160638564Y-64041389D01*
G37*
G36*
X173399823Y-64031313D02*
G01*
X173560242Y-64079976D01*
X173636272Y-64120615D01*
X173708078Y-64158996D01*
X173837659Y-64265341D01*
X173944004Y-64394922D01*
X173944005Y-64394924D01*
X174023024Y-64542758D01*
X174071687Y-64703177D01*
X174088117Y-64870000D01*
X174071687Y-65036823D01*
X174023024Y-65197242D01*
X173980690Y-65276443D01*
X173944004Y-65345078D01*
X173837659Y-65474659D01*
X173708078Y-65581004D01*
X173708076Y-65581005D01*
X173560242Y-65660024D01*
X173399823Y-65708687D01*
X173274804Y-65721000D01*
X172191196Y-65721000D01*
X172066177Y-65708687D01*
X171905758Y-65660024D01*
X171757924Y-65581005D01*
X171757922Y-65581004D01*
X171628341Y-65474659D01*
X171521996Y-65345078D01*
X171485310Y-65276443D01*
X171442976Y-65197242D01*
X171394313Y-65036823D01*
X171377883Y-64870000D01*
X171394313Y-64703177D01*
X171442976Y-64542758D01*
X171521995Y-64394924D01*
X171521996Y-64394922D01*
X171628341Y-64265341D01*
X171757922Y-64158996D01*
X171829728Y-64120615D01*
X171905758Y-64079976D01*
X172066177Y-64031313D01*
X172191196Y-64019000D01*
X173274804Y-64019000D01*
X173399823Y-64031313D01*
X173399823Y-64031313D01*
G37*
G36*
X122805443Y-63545519D02*
G01*
X122871627Y-63552037D01*
X123041466Y-63603557D01*
X123197991Y-63687222D01*
X123233729Y-63716552D01*
X123335186Y-63799814D01*
X123418448Y-63901271D01*
X123447778Y-63937009D01*
X123531443Y-64093534D01*
X123582963Y-64263373D01*
X123600359Y-64440000D01*
X123582963Y-64616627D01*
X123531443Y-64786466D01*
X123447778Y-64942991D01*
X123418448Y-64978729D01*
X123335186Y-65080186D01*
X123243397Y-65155514D01*
X123197991Y-65192778D01*
X123041466Y-65276443D01*
X122871627Y-65327963D01*
X122805442Y-65334482D01*
X122739260Y-65341000D01*
X122650740Y-65341000D01*
X122584558Y-65334482D01*
X122518373Y-65327963D01*
X122348534Y-65276443D01*
X122192009Y-65192778D01*
X122146603Y-65155514D01*
X122054814Y-65080186D01*
X121971552Y-64978729D01*
X121942222Y-64942991D01*
X121858557Y-64786466D01*
X121807037Y-64616627D01*
X121789641Y-64440000D01*
X121807037Y-64263373D01*
X121858557Y-64093534D01*
X121942222Y-63937009D01*
X121971552Y-63901271D01*
X122054814Y-63799814D01*
X122156271Y-63716552D01*
X122192009Y-63687222D01*
X122348534Y-63603557D01*
X122518373Y-63552037D01*
X122584557Y-63545519D01*
X122650740Y-63539000D01*
X122739260Y-63539000D01*
X122805443Y-63545519D01*
X122805443Y-63545519D01*
G37*
G36*
X128774443Y-62275519D02*
G01*
X128840627Y-62282037D01*
X129010466Y-62333557D01*
X129166991Y-62417222D01*
X129202729Y-62446552D01*
X129304186Y-62529814D01*
X129387448Y-62631271D01*
X129416778Y-62667009D01*
X129500443Y-62823534D01*
X129551963Y-62993373D01*
X129569359Y-63170000D01*
X129551963Y-63346627D01*
X129500443Y-63516466D01*
X129416778Y-63672991D01*
X129387448Y-63708729D01*
X129304186Y-63810186D01*
X129202729Y-63893448D01*
X129166991Y-63922778D01*
X129010466Y-64006443D01*
X128840627Y-64057963D01*
X128774443Y-64064481D01*
X128708260Y-64071000D01*
X128619740Y-64071000D01*
X128553557Y-64064481D01*
X128487373Y-64057963D01*
X128317534Y-64006443D01*
X128161009Y-63922778D01*
X128125271Y-63893448D01*
X128023814Y-63810186D01*
X127940552Y-63708729D01*
X127911222Y-63672991D01*
X127827557Y-63516466D01*
X127776037Y-63346627D01*
X127758641Y-63170000D01*
X127776037Y-62993373D01*
X127827557Y-62823534D01*
X127911222Y-62667009D01*
X127940552Y-62631271D01*
X128023814Y-62529814D01*
X128125271Y-62446552D01*
X128161009Y-62417222D01*
X128317534Y-62333557D01*
X128487373Y-62282037D01*
X128553557Y-62275519D01*
X128619740Y-62269000D01*
X128708260Y-62269000D01*
X128774443Y-62275519D01*
X128774443Y-62275519D01*
G37*
G36*
X173179228Y-60913483D02*
G01*
X173367922Y-60970723D01*
X173541815Y-61063671D01*
X173694239Y-61188761D01*
X173819329Y-61341185D01*
X173912277Y-61515078D01*
X173969517Y-61703772D01*
X173988843Y-61900000D01*
X173969517Y-62096228D01*
X173912277Y-62284922D01*
X173819329Y-62458815D01*
X173694239Y-62611239D01*
X173541815Y-62736329D01*
X173367922Y-62829277D01*
X173179228Y-62886517D01*
X173032175Y-62901000D01*
X172433825Y-62901000D01*
X172286772Y-62886517D01*
X172098078Y-62829277D01*
X171924185Y-62736329D01*
X171771761Y-62611239D01*
X171646671Y-62458815D01*
X171553723Y-62284922D01*
X171496483Y-62096228D01*
X171477157Y-61900000D01*
X171496483Y-61703772D01*
X171553723Y-61515078D01*
X171646671Y-61341185D01*
X171771761Y-61188761D01*
X171924185Y-61063671D01*
X172098078Y-60970723D01*
X172286772Y-60913483D01*
X172433825Y-60899000D01*
X173032175Y-60899000D01*
X173179228Y-60913483D01*
X173179228Y-60913483D01*
G37*
G36*
X122805443Y-61005519D02*
G01*
X122871627Y-61012037D01*
X123041466Y-61063557D01*
X123197991Y-61147222D01*
X123233729Y-61176552D01*
X123335186Y-61259814D01*
X123401964Y-61341185D01*
X123447778Y-61397009D01*
X123531443Y-61553534D01*
X123582963Y-61723373D01*
X123600359Y-61900000D01*
X123582963Y-62076627D01*
X123531443Y-62246466D01*
X123447778Y-62402991D01*
X123418448Y-62438729D01*
X123335186Y-62540186D01*
X123248606Y-62611239D01*
X123197991Y-62652778D01*
X123041466Y-62736443D01*
X122871627Y-62787963D01*
X122805442Y-62794482D01*
X122739260Y-62801000D01*
X122650740Y-62801000D01*
X122584558Y-62794482D01*
X122518373Y-62787963D01*
X122348534Y-62736443D01*
X122192009Y-62652778D01*
X122141394Y-62611239D01*
X122054814Y-62540186D01*
X121971552Y-62438729D01*
X121942222Y-62402991D01*
X121858557Y-62246466D01*
X121807037Y-62076627D01*
X121789641Y-61900000D01*
X121807037Y-61723373D01*
X121858557Y-61553534D01*
X121942222Y-61397009D01*
X121988036Y-61341185D01*
X122054814Y-61259814D01*
X122156271Y-61176552D01*
X122192009Y-61147222D01*
X122348534Y-61063557D01*
X122518373Y-61012037D01*
X122584557Y-61005519D01*
X122650740Y-60999000D01*
X122739260Y-60999000D01*
X122805443Y-61005519D01*
X122805443Y-61005519D01*
G37*
G36*
X129565000Y-61531000D02*
G01*
X127763000Y-61531000D01*
X127763000Y-59729000D01*
X129565000Y-59729000D01*
X129565000Y-61531000D01*
X129565000Y-61531000D01*
G37*
G36*
X123596000Y-60261000D02*
G01*
X121794000Y-60261000D01*
X121794000Y-58459000D01*
X123596000Y-58459000D01*
X123596000Y-60261000D01*
X123596000Y-60261000D01*
G37*
G36*
X160638564Y-57845389D02*
G01*
X160829833Y-57924615D01*
X160829835Y-57924616D01*
X161001973Y-58039635D01*
X161148365Y-58186027D01*
X161241452Y-58325341D01*
X161263385Y-58358167D01*
X161342611Y-58549436D01*
X161383000Y-58752484D01*
X161383000Y-58959516D01*
X161342611Y-59162564D01*
X161303395Y-59257239D01*
X161263384Y-59353835D01*
X161148365Y-59525973D01*
X161001973Y-59672365D01*
X160829835Y-59787384D01*
X160829834Y-59787385D01*
X160829833Y-59787385D01*
X160638564Y-59866611D01*
X160435516Y-59907000D01*
X160228484Y-59907000D01*
X160025436Y-59866611D01*
X159834167Y-59787385D01*
X159834166Y-59787385D01*
X159834165Y-59787384D01*
X159662027Y-59672365D01*
X159515635Y-59525973D01*
X159400616Y-59353835D01*
X159360605Y-59257239D01*
X159321389Y-59162564D01*
X159281000Y-58959516D01*
X159281000Y-58752484D01*
X159321389Y-58549436D01*
X159400615Y-58358167D01*
X159422549Y-58325341D01*
X159515635Y-58186027D01*
X159662027Y-58039635D01*
X159834165Y-57924616D01*
X159834167Y-57924615D01*
X160025436Y-57845389D01*
X160228484Y-57805000D01*
X160435516Y-57805000D01*
X160638564Y-57845389D01*
X160638564Y-57845389D01*
G37*
G36*
X165138564Y-57845389D02*
G01*
X165329833Y-57924615D01*
X165329835Y-57924616D01*
X165501973Y-58039635D01*
X165648365Y-58186027D01*
X165741452Y-58325341D01*
X165763385Y-58358167D01*
X165842611Y-58549436D01*
X165883000Y-58752484D01*
X165883000Y-58959516D01*
X165842611Y-59162564D01*
X165803395Y-59257239D01*
X165763384Y-59353835D01*
X165648365Y-59525973D01*
X165501973Y-59672365D01*
X165329835Y-59787384D01*
X165329834Y-59787385D01*
X165329833Y-59787385D01*
X165138564Y-59866611D01*
X164935516Y-59907000D01*
X164728484Y-59907000D01*
X164525436Y-59866611D01*
X164334167Y-59787385D01*
X164334166Y-59787385D01*
X164334165Y-59787384D01*
X164162027Y-59672365D01*
X164015635Y-59525973D01*
X163900616Y-59353835D01*
X163860605Y-59257239D01*
X163821389Y-59162564D01*
X163781000Y-58959516D01*
X163781000Y-58752484D01*
X163821389Y-58549436D01*
X163900615Y-58358167D01*
X163922549Y-58325341D01*
X164015635Y-58186027D01*
X164162027Y-58039635D01*
X164334165Y-57924616D01*
X164334167Y-57924615D01*
X164525436Y-57845389D01*
X164728484Y-57805000D01*
X164935516Y-57805000D01*
X165138564Y-57845389D01*
X165138564Y-57845389D01*
G37*
G36*
X173399823Y-58091313D02*
G01*
X173560242Y-58139976D01*
X173646397Y-58186027D01*
X173708078Y-58218996D01*
X173837659Y-58325341D01*
X173944004Y-58454922D01*
X173944005Y-58454924D01*
X174023024Y-58602758D01*
X174071687Y-58763177D01*
X174088117Y-58930000D01*
X174071687Y-59096823D01*
X174023024Y-59257242D01*
X173971395Y-59353833D01*
X173944004Y-59405078D01*
X173837659Y-59534659D01*
X173708078Y-59641004D01*
X173708076Y-59641005D01*
X173560242Y-59720024D01*
X173399823Y-59768687D01*
X173274804Y-59781000D01*
X172191196Y-59781000D01*
X172066177Y-59768687D01*
X171905758Y-59720024D01*
X171757924Y-59641005D01*
X171757922Y-59641004D01*
X171628341Y-59534659D01*
X171521996Y-59405078D01*
X171494605Y-59353833D01*
X171442976Y-59257242D01*
X171394313Y-59096823D01*
X171377883Y-58930000D01*
X171394313Y-58763177D01*
X171442976Y-58602758D01*
X171521995Y-58454924D01*
X171521996Y-58454922D01*
X171628341Y-58325341D01*
X171757922Y-58218996D01*
X171819603Y-58186027D01*
X171905758Y-58139976D01*
X172066177Y-58091313D01*
X172191196Y-58079000D01*
X173274804Y-58079000D01*
X173399823Y-58091313D01*
X173399823Y-58091313D01*
G37*
G36*
X166352000Y-56494000D02*
G01*
X164726000Y-56494000D01*
X164726000Y-54868000D01*
X166352000Y-54868000D01*
X166352000Y-56494000D01*
X166352000Y-56494000D01*
G37*
G36*
X159807142Y-54899242D02*
G01*
X159955101Y-54960529D01*
X160088255Y-55049499D01*
X160201501Y-55162745D01*
X160290471Y-55295899D01*
X160351758Y-55443858D01*
X160383000Y-55600925D01*
X160383000Y-55761075D01*
X160351758Y-55918142D01*
X160290471Y-56066101D01*
X160201501Y-56199255D01*
X160088255Y-56312501D01*
X159955101Y-56401471D01*
X159807142Y-56462758D01*
X159650075Y-56494000D01*
X159489925Y-56494000D01*
X159332858Y-56462758D01*
X159184899Y-56401471D01*
X159051745Y-56312501D01*
X158938499Y-56199255D01*
X158849529Y-56066101D01*
X158788242Y-55918142D01*
X158757000Y-55761075D01*
X158757000Y-55600925D01*
X158788242Y-55443858D01*
X158849529Y-55295899D01*
X158938499Y-55162745D01*
X159051745Y-55049499D01*
X159184899Y-54960529D01*
X159332858Y-54899242D01*
X159489925Y-54868000D01*
X159650075Y-54868000D01*
X159807142Y-54899242D01*
X159807142Y-54899242D01*
G37*
G36*
X165138564Y-51345389D02*
G01*
X165308812Y-51415908D01*
X165329835Y-51424616D01*
X165501973Y-51539635D01*
X165648365Y-51686027D01*
X165739366Y-51822219D01*
X165763385Y-51858167D01*
X165842611Y-52049436D01*
X165883000Y-52252484D01*
X165883000Y-52459516D01*
X165842611Y-52662564D01*
X165763385Y-52853833D01*
X165763384Y-52853835D01*
X165648365Y-53025973D01*
X165501973Y-53172365D01*
X165329835Y-53287384D01*
X165329834Y-53287385D01*
X165329833Y-53287385D01*
X165138564Y-53366611D01*
X164935516Y-53407000D01*
X164728484Y-53407000D01*
X164525436Y-53366611D01*
X164334167Y-53287385D01*
X164334166Y-53287385D01*
X164334165Y-53287384D01*
X164162027Y-53172365D01*
X164015635Y-53025973D01*
X163900616Y-52853835D01*
X163900615Y-52853833D01*
X163821389Y-52662564D01*
X163781000Y-52459516D01*
X163781000Y-52252484D01*
X163821389Y-52049436D01*
X163900615Y-51858167D01*
X163924635Y-51822219D01*
X164015635Y-51686027D01*
X164162027Y-51539635D01*
X164334165Y-51424616D01*
X164355188Y-51415908D01*
X164525436Y-51345389D01*
X164728484Y-51305000D01*
X164935516Y-51305000D01*
X165138564Y-51345389D01*
X165138564Y-51345389D01*
G37*
G36*
X160638564Y-51345389D02*
G01*
X160808812Y-51415908D01*
X160829835Y-51424616D01*
X161001973Y-51539635D01*
X161148365Y-51686027D01*
X161239366Y-51822219D01*
X161263385Y-51858167D01*
X161342611Y-52049436D01*
X161383000Y-52252484D01*
X161383000Y-52459516D01*
X161342611Y-52662564D01*
X161263385Y-52853833D01*
X161263384Y-52853835D01*
X161148365Y-53025973D01*
X161001973Y-53172365D01*
X160829835Y-53287384D01*
X160829834Y-53287385D01*
X160829833Y-53287385D01*
X160638564Y-53366611D01*
X160435516Y-53407000D01*
X160228484Y-53407000D01*
X160025436Y-53366611D01*
X159834167Y-53287385D01*
X159834166Y-53287385D01*
X159834165Y-53287384D01*
X159662027Y-53172365D01*
X159515635Y-53025973D01*
X159400616Y-52853835D01*
X159400615Y-52853833D01*
X159321389Y-52662564D01*
X159281000Y-52459516D01*
X159281000Y-52252484D01*
X159321389Y-52049436D01*
X159400615Y-51858167D01*
X159424635Y-51822219D01*
X159515635Y-51686027D01*
X159662027Y-51539635D01*
X159834165Y-51424616D01*
X159855188Y-51415908D01*
X160025436Y-51345389D01*
X160228484Y-51305000D01*
X160435516Y-51305000D01*
X160638564Y-51345389D01*
X160638564Y-51345389D01*
G37*
G36*
X144964602Y-50174958D02*
G01*
X145030787Y-50181477D01*
X145200626Y-50232997D01*
X145357151Y-50316662D01*
X145392889Y-50345992D01*
X145494346Y-50429254D01*
X145577608Y-50530711D01*
X145606938Y-50566449D01*
X145690603Y-50722974D01*
X145742123Y-50892813D01*
X145759519Y-51069440D01*
X145742123Y-51246067D01*
X145690603Y-51415906D01*
X145606938Y-51572431D01*
X145577608Y-51608169D01*
X145494346Y-51709626D01*
X145392889Y-51792888D01*
X145357151Y-51822218D01*
X145200626Y-51905883D01*
X145030787Y-51957403D01*
X144964603Y-51963921D01*
X144898420Y-51970440D01*
X144809900Y-51970440D01*
X144743717Y-51963921D01*
X144677533Y-51957403D01*
X144507694Y-51905883D01*
X144351169Y-51822218D01*
X144315431Y-51792888D01*
X144213974Y-51709626D01*
X144130712Y-51608169D01*
X144101382Y-51572431D01*
X144017717Y-51415906D01*
X143966197Y-51246067D01*
X143948801Y-51069440D01*
X143966197Y-50892813D01*
X144017717Y-50722974D01*
X144101382Y-50566449D01*
X144130712Y-50530711D01*
X144213974Y-50429254D01*
X144315431Y-50345992D01*
X144351169Y-50316662D01*
X144507694Y-50232997D01*
X144677533Y-50181477D01*
X144743717Y-50174959D01*
X144809900Y-50168440D01*
X144898420Y-50168440D01*
X144964602Y-50174958D01*
X144964602Y-50174958D01*
G37*
G36*
X142424602Y-50174958D02*
G01*
X142490787Y-50181477D01*
X142660626Y-50232997D01*
X142817151Y-50316662D01*
X142852889Y-50345992D01*
X142954346Y-50429254D01*
X143037608Y-50530711D01*
X143066938Y-50566449D01*
X143150603Y-50722974D01*
X143202123Y-50892813D01*
X143219519Y-51069440D01*
X143202123Y-51246067D01*
X143150603Y-51415906D01*
X143066938Y-51572431D01*
X143037608Y-51608169D01*
X142954346Y-51709626D01*
X142852889Y-51792888D01*
X142817151Y-51822218D01*
X142660626Y-51905883D01*
X142490787Y-51957403D01*
X142424603Y-51963921D01*
X142358420Y-51970440D01*
X142269900Y-51970440D01*
X142203717Y-51963921D01*
X142137533Y-51957403D01*
X141967694Y-51905883D01*
X141811169Y-51822218D01*
X141775431Y-51792888D01*
X141673974Y-51709626D01*
X141590712Y-51608169D01*
X141561382Y-51572431D01*
X141477717Y-51415906D01*
X141426197Y-51246067D01*
X141408801Y-51069440D01*
X141426197Y-50892813D01*
X141477717Y-50722974D01*
X141561382Y-50566449D01*
X141590712Y-50530711D01*
X141673974Y-50429254D01*
X141775431Y-50345992D01*
X141811169Y-50316662D01*
X141967694Y-50232997D01*
X142137533Y-50181477D01*
X142203717Y-50174959D01*
X142269900Y-50168440D01*
X142358420Y-50168440D01*
X142424602Y-50174958D01*
X142424602Y-50174958D01*
G37*
G36*
X147504602Y-50174958D02*
G01*
X147570787Y-50181477D01*
X147740626Y-50232997D01*
X147897151Y-50316662D01*
X147932889Y-50345992D01*
X148034346Y-50429254D01*
X148117608Y-50530711D01*
X148146938Y-50566449D01*
X148230603Y-50722974D01*
X148282123Y-50892813D01*
X148299519Y-51069440D01*
X148282123Y-51246067D01*
X148230603Y-51415906D01*
X148146938Y-51572431D01*
X148117608Y-51608169D01*
X148034346Y-51709626D01*
X147932889Y-51792888D01*
X147897151Y-51822218D01*
X147740626Y-51905883D01*
X147570787Y-51957403D01*
X147504603Y-51963921D01*
X147438420Y-51970440D01*
X147349900Y-51970440D01*
X147283717Y-51963921D01*
X147217533Y-51957403D01*
X147047694Y-51905883D01*
X146891169Y-51822218D01*
X146855431Y-51792888D01*
X146753974Y-51709626D01*
X146670712Y-51608169D01*
X146641382Y-51572431D01*
X146557717Y-51415906D01*
X146506197Y-51246067D01*
X146488801Y-51069440D01*
X146506197Y-50892813D01*
X146557717Y-50722974D01*
X146641382Y-50566449D01*
X146670712Y-50530711D01*
X146753974Y-50429254D01*
X146855431Y-50345992D01*
X146891169Y-50316662D01*
X147047694Y-50232997D01*
X147217533Y-50181477D01*
X147283717Y-50174959D01*
X147349900Y-50168440D01*
X147438420Y-50168440D01*
X147504602Y-50174958D01*
X147504602Y-50174958D01*
G37*
G36*
X137344602Y-50174958D02*
G01*
X137410787Y-50181477D01*
X137580626Y-50232997D01*
X137737151Y-50316662D01*
X137772889Y-50345992D01*
X137874346Y-50429254D01*
X137957608Y-50530711D01*
X137986938Y-50566449D01*
X138070603Y-50722974D01*
X138122123Y-50892813D01*
X138139519Y-51069440D01*
X138122123Y-51246067D01*
X138070603Y-51415906D01*
X137986938Y-51572431D01*
X137957608Y-51608169D01*
X137874346Y-51709626D01*
X137772889Y-51792888D01*
X137737151Y-51822218D01*
X137580626Y-51905883D01*
X137410787Y-51957403D01*
X137344603Y-51963921D01*
X137278420Y-51970440D01*
X137189900Y-51970440D01*
X137123717Y-51963921D01*
X137057533Y-51957403D01*
X136887694Y-51905883D01*
X136731169Y-51822218D01*
X136695431Y-51792888D01*
X136593974Y-51709626D01*
X136510712Y-51608169D01*
X136481382Y-51572431D01*
X136397717Y-51415906D01*
X136346197Y-51246067D01*
X136328801Y-51069440D01*
X136346197Y-50892813D01*
X136397717Y-50722974D01*
X136481382Y-50566449D01*
X136510712Y-50530711D01*
X136593974Y-50429254D01*
X136695431Y-50345992D01*
X136731169Y-50316662D01*
X136887694Y-50232997D01*
X137057533Y-50181477D01*
X137123717Y-50174959D01*
X137189900Y-50168440D01*
X137278420Y-50168440D01*
X137344602Y-50174958D01*
X137344602Y-50174958D01*
G37*
G36*
X134804602Y-50174958D02*
G01*
X134870787Y-50181477D01*
X135040626Y-50232997D01*
X135197151Y-50316662D01*
X135232889Y-50345992D01*
X135334346Y-50429254D01*
X135417608Y-50530711D01*
X135446938Y-50566449D01*
X135530603Y-50722974D01*
X135582123Y-50892813D01*
X135599519Y-51069440D01*
X135582123Y-51246067D01*
X135530603Y-51415906D01*
X135446938Y-51572431D01*
X135417608Y-51608169D01*
X135334346Y-51709626D01*
X135232889Y-51792888D01*
X135197151Y-51822218D01*
X135040626Y-51905883D01*
X134870787Y-51957403D01*
X134804603Y-51963921D01*
X134738420Y-51970440D01*
X134649900Y-51970440D01*
X134583717Y-51963921D01*
X134517533Y-51957403D01*
X134347694Y-51905883D01*
X134191169Y-51822218D01*
X134155431Y-51792888D01*
X134053974Y-51709626D01*
X133970712Y-51608169D01*
X133941382Y-51572431D01*
X133857717Y-51415906D01*
X133806197Y-51246067D01*
X133788801Y-51069440D01*
X133806197Y-50892813D01*
X133857717Y-50722974D01*
X133941382Y-50566449D01*
X133970712Y-50530711D01*
X134053974Y-50429254D01*
X134155431Y-50345992D01*
X134191169Y-50316662D01*
X134347694Y-50232997D01*
X134517533Y-50181477D01*
X134583717Y-50174959D01*
X134649900Y-50168440D01*
X134738420Y-50168440D01*
X134804602Y-50174958D01*
X134804602Y-50174958D01*
G37*
G36*
X133055160Y-51970440D02*
G01*
X131253160Y-51970440D01*
X131253160Y-50168440D01*
X133055160Y-50168440D01*
X133055160Y-51970440D01*
X133055160Y-51970440D01*
G37*
G36*
X139884602Y-50174958D02*
G01*
X139950787Y-50181477D01*
X140120626Y-50232997D01*
X140277151Y-50316662D01*
X140312889Y-50345992D01*
X140414346Y-50429254D01*
X140497608Y-50530711D01*
X140526938Y-50566449D01*
X140610603Y-50722974D01*
X140662123Y-50892813D01*
X140679519Y-51069440D01*
X140662123Y-51246067D01*
X140610603Y-51415906D01*
X140526938Y-51572431D01*
X140497608Y-51608169D01*
X140414346Y-51709626D01*
X140312889Y-51792888D01*
X140277151Y-51822218D01*
X140120626Y-51905883D01*
X139950787Y-51957403D01*
X139884603Y-51963921D01*
X139818420Y-51970440D01*
X139729900Y-51970440D01*
X139663717Y-51963921D01*
X139597533Y-51957403D01*
X139427694Y-51905883D01*
X139271169Y-51822218D01*
X139235431Y-51792888D01*
X139133974Y-51709626D01*
X139050712Y-51608169D01*
X139021382Y-51572431D01*
X138937717Y-51415906D01*
X138886197Y-51246067D01*
X138868801Y-51069440D01*
X138886197Y-50892813D01*
X138937717Y-50722974D01*
X139021382Y-50566449D01*
X139050712Y-50530711D01*
X139133974Y-50429254D01*
X139235431Y-50345992D01*
X139271169Y-50316662D01*
X139427694Y-50232997D01*
X139597533Y-50181477D01*
X139663717Y-50174959D01*
X139729900Y-50168440D01*
X139818420Y-50168440D01*
X139884602Y-50174958D01*
X139884602Y-50174958D01*
G37*
G36*
X173361571Y-49832863D02*
G01*
X173440023Y-49840590D01*
X173540682Y-49871125D01*
X173591013Y-49886392D01*
X173730165Y-49960771D01*
X173852133Y-50060867D01*
X173952229Y-50182835D01*
X174026608Y-50321987D01*
X174026608Y-50321988D01*
X174072410Y-50472977D01*
X174087875Y-50630000D01*
X174072410Y-50787023D01*
X174041875Y-50887682D01*
X174026608Y-50938013D01*
X173952229Y-51077165D01*
X173852133Y-51199133D01*
X173730165Y-51299229D01*
X173591013Y-51373608D01*
X173540682Y-51388875D01*
X173440023Y-51419410D01*
X173387164Y-51424616D01*
X173322346Y-51431000D01*
X172143654Y-51431000D01*
X172078836Y-51424616D01*
X172025977Y-51419410D01*
X171925318Y-51388875D01*
X171874987Y-51373608D01*
X171735835Y-51299229D01*
X171613867Y-51199133D01*
X171513771Y-51077165D01*
X171439392Y-50938013D01*
X171424125Y-50887682D01*
X171393590Y-50787023D01*
X171378125Y-50630000D01*
X171393590Y-50472977D01*
X171439392Y-50321988D01*
X171439392Y-50321987D01*
X171513771Y-50182835D01*
X171613867Y-50060867D01*
X171735835Y-49960771D01*
X171874987Y-49886392D01*
X171925318Y-49871125D01*
X172025977Y-49840590D01*
X172104429Y-49832863D01*
X172143654Y-49829000D01*
X173322346Y-49829000D01*
X173361571Y-49832863D01*
X173361571Y-49832863D01*
G37*
M02*
