M48
; DRILL file {KiCad (5.1.0-0)} date 2019 May 28, Tuesday 00:09:08
; FORMAT={-:-/ absolute / inch / decimal}
; #@! TF.CreationDate,2019-05-28T00:09:08+08:00
; #@! TF.GenerationSoftware,Kicad,Pcbnew,(5.1.0-0)
; #@! TF.FileFunction,Plated,1,4,PTH
FMAT,2
INCH
T1C0.0157
T2C0.0197
T3C0.0236
T4C0.0295
T5C0.0300
T6C0.0354
T7C0.0394
T8C0.0433
T9C0.0591
%
G90
G05
T1
X4.8055Y-3.677
X4.8055Y-3.737
X4.8055Y-3.797
X4.8055Y-3.857
X4.8055Y-3.917
X4.8055Y-3.977
X4.8055Y-4.037
X4.8055Y-4.097
X4.8055Y-4.157
X4.8055Y-4.217
X4.8055Y-4.277
X4.8705Y-3.677
X4.8705Y-3.737
X4.8705Y-3.797
X4.8705Y-3.857
X4.8705Y-3.917
X4.8705Y-3.977
X4.8705Y-4.157
X4.8705Y-4.217
X4.8705Y-4.277
X4.8966Y-1.9745
X4.9305Y-3.447
X4.9355Y-3.917
X4.9355Y-3.977
X4.9355Y-4.037
X4.9355Y-4.097
X4.9355Y-4.157
X4.9355Y-4.217
X4.9355Y-4.277
X5.0005Y-3.977
X5.0005Y-4.037
X5.0005Y-4.097
X5.0005Y-4.157
X5.0005Y-4.217
X5.0005Y-4.277
X5.0155Y-2.907
X5.0305Y-3.387
X5.0516Y-3.2737
X5.0889Y-5.0793
X5.1427Y-5.5125
X5.1705Y-3.387
X5.1805Y-2.947
X5.2Y-2.7392
X5.2105Y-2.592
X5.2255Y-3.152
X5.228Y-2.701
X5.2405Y-3.387
X5.2455Y-5.252
X5.2455Y-5.392
X5.2511Y-4.2196
X5.2545Y-4.6548
X5.2855Y-2.372
X5.2855Y-2.587
X5.316Y-2.8644
X5.3198Y-5.4723
X5.3256Y-3.0634
X5.341Y-2.7862
X5.3608Y-2.9421
X5.3882Y-2.7275
X5.3972Y-2.9771
X5.3997Y-3.3017
X5.4024Y-2.9232
X5.4319Y-2.7681
X5.5018Y-3.0063
X5.5055Y-4.4219
X5.5233Y-3.0477
X5.5257Y-2.8521
X5.5339Y-4.885
X5.5455Y-2.662
X5.549Y-2.4246
X5.5511Y-2.9415
X5.5645Y-2.1995
X5.5654Y-2.8521
X5.5846Y-2.9193
X5.6165Y-2.4246
X5.6795Y-5.3938
X5.6801Y-3.0453
X5.7218Y-5.764
X5.7415Y-5.3936
X5.7858Y-2.2163
X5.8096Y-4.6069
X5.8395Y-5.1309
X5.8396Y-5.0191
X5.8397Y-5.248
X5.8763Y-3.0512
X5.902Y-5.6525
X5.9115Y-2.3953
X5.9165Y-3.1662
X5.9605Y-2.572
X5.9941Y-3.2606
X5.9961Y-3.3001
X5.9971Y-3.2212
X6.019Y-3.1139
X6.0307Y-2.6592
X6.1153Y-4.2697
X6.1165Y-5.1494
X6.1215Y-5.6288
X6.1772Y-3.3309
X6.2252Y-3.124
X6.3643Y-3.1625
X6.3771Y-3.4225
X6.3776Y-3.5629
X6.4241Y-3.6552
X6.5336Y-5.131
X6.7397Y-4.2674
X6.7441Y-2.8209
X6.7441Y-3.0418
X6.7441Y-4.9257
X6.7448Y-2.3838
X6.7648Y-5.0866
T2
X5.2455Y-5.492
X5.3895Y-2.5237
X5.4555Y-2.522
X5.5005Y-3.192
X5.5355Y-2.522
X5.5805Y-3.192
X5.7906Y-3.072
X5.8005Y-2.677
X5.8505Y-2.742
X5.8705Y-3.437
X6.0005Y-3.3442
T4
X5.1805Y-4.067
X5.4155Y-4.487
X5.8305Y-4.437
X5.9205Y-3.112
X5.9205Y-3.992
X5.9505Y-4.117
X6.0455Y-3.437
T5
X5.8955Y-3.5743
X5.8955Y-3.8093
X6.2823Y-2.1922
X6.5173Y-2.1922
X6.2805Y-4.692
X6.5155Y-4.692
X6.2793Y-3.1922
X6.5143Y-3.1922
X5.4953Y-3.5743
X6.2805Y-5.1918
X6.5155Y-5.1918
X6.2805Y-5.692
X6.5155Y-5.692
X6.2805Y-4.192
X6.5155Y-4.192
X6.2823Y-3.692
X6.2823Y-2.692
X6.5173Y-2.692
X5.0957Y-3.5743
X5.0957Y-3.8093
X5.4953Y-3.8093
X6.5173Y-3.692
T7
X4.8305Y-2.337
X4.8305Y-2.437
X4.8305Y-2.537
X4.8305Y-2.637
X4.8305Y-2.737
X5.2029Y-2.0106
X5.3029Y-2.0106
X5.4029Y-2.0106
X5.5029Y-2.0106
X5.6029Y-2.0106
X5.7029Y-2.0106
X5.0655Y-2.387
X5.0655Y-2.487
X5.0655Y-2.587
X4.8305Y-2.987
X4.8305Y-3.087
X4.8305Y-3.187
X4.8305Y-3.287
X4.8305Y-3.387
X4.8305Y-3.487
X4.8305Y-4.407
X4.8305Y-4.507
X4.8305Y-4.607
X4.8305Y-4.707
X4.8305Y-4.807
X4.9305Y-4.407
X5.4005Y-4.1661
X5.4005Y-4.737
X5.4989Y-4.737
X5.5974Y-4.1661
X5.5974Y-4.737
X4.9305Y-4.507
X4.9305Y-4.607
X4.9305Y-4.707
X4.9305Y-4.807
X5.8029Y-2.0106
T8
X5.2266Y-3.7815
X6.0264Y-3.6043
X6.3123Y-2.0613
X6.3123Y-2.3172
X6.4894Y-2.0613
X6.4894Y-2.3172
X6.3105Y-4.5611
X6.3105Y-4.817
X6.4877Y-4.5611
X6.4877Y-4.817
X6.3093Y-3.0613
X5.6262Y-3.6043
X6.3105Y-5.0609
X6.3105Y-5.3168
X6.4877Y-5.0609
X6.4877Y-5.3168
X4.9707Y-3.6043
X4.9707Y-3.7815
X5.2266Y-3.6043
X5.7705Y-3.6043
X5.7705Y-3.7815
X6.0264Y-3.7815
X5.3703Y-3.6043
X5.3703Y-3.7815
X6.0875Y-4.8149
X6.3123Y-2.5611
X6.4894Y-2.5611
X5.9104Y-4.559
X5.9104Y-4.8149
X6.0875Y-4.559
X6.3093Y-3.3172
X6.4864Y-3.0613
X6.4864Y-3.3172
X6.3105Y-5.5611
X6.3105Y-5.817
X6.4877Y-5.5611
X6.4877Y-5.817
X6.3105Y-4.0611
X6.3105Y-4.317
X6.4877Y-4.0611
X6.4877Y-4.317
X6.3123Y-3.5611
X6.3123Y-3.817
X6.4894Y-3.5611
X6.4894Y-3.817
X6.3123Y-2.817
X6.4894Y-2.817
X5.6262Y-3.7815
T2
G00X6.8222Y-3.8807
M15
G01X6.7789Y-3.8807
M16
G05
G00X6.7789Y-1.9933
M15
G01X6.8222Y-1.9933
M16
G05
G00X6.8222Y-2.8807
M15
G01X6.7789Y-2.8807
M16
G05
G00X6.8222Y-5.8807
M15
G01X6.7789Y-5.8807
M16
G05
G00X5.4789Y-4.9983
M15
G01X5.5222Y-4.9983
M16
G05
G00X6.7789Y-2.9933
M15
G01X6.8222Y-2.9933
M16
G05
G00X6.7789Y-4.9933
M15
G01X6.8222Y-4.9933
M16
G05
G00X6.7789Y-3.9933
M15
G01X6.8222Y-3.9933
M16
G05
G00X6.8222Y-4.8807
M15
G01X6.7789Y-4.8807
M16
G05
G00X5.9789Y-4.9983
M15
G01X6.0222Y-4.9983
M16
G05
G00X4.9789Y-4.9983
M15
G01X5.0222Y-4.9983
M16
G05
G00X6.0222Y-5.8807
M15
G01X5.9789Y-5.8807
M16
G05
G00X5.0222Y-5.8807
M15
G01X4.9789Y-5.8807
M16
G05
G00X5.5222Y-5.8807
M15
G01X5.4789Y-5.8807
M16
G05
T3
G00X4.9808Y-5.3251
M15
G01X5.0202Y-5.3251
M16
G05
G00X6.8202Y-3.5539
M15
G01X6.7808Y-3.5539
M16
G05
G00X6.8202Y-2.5539
M15
G01X6.7808Y-2.5539
M16
G05
G00X6.8202Y-5.5539
M15
G01X6.7808Y-5.5539
M16
G05
G00X6.8202Y-4.5539
M15
G01X6.7808Y-4.5539
M16
G05
G00X6.0202Y-5.5539
M15
G01X5.9808Y-5.5539
M16
G05
G00X5.0202Y-5.5539
M15
G01X4.9808Y-5.5539
M16
G05
G00X5.4808Y-5.3251
M15
G01X5.5202Y-5.3251
M16
G05
G00X6.7808Y-3.3201
M15
G01X6.8202Y-3.3201
M16
G05
G00X5.9808Y-5.3251
M15
G01X6.0202Y-5.3251
M16
G05
G00X6.7808Y-5.3201
M15
G01X6.8202Y-5.3201
M16
G05
G00X5.5202Y-5.5539
M15
G01X5.4808Y-5.5539
M16
G05
G00X6.7808Y-2.3201
M15
G01X6.8202Y-2.3201
M16
G05
G00X6.7808Y-4.3201
M15
G01X6.8202Y-4.3201
M16
G05
T6
G00X6.8104Y-3.437
M15
G01X6.7907Y-3.437
M16
G05
G00X6.8104Y-2.437
M15
G01X6.7907Y-2.437
M16
G05
G00X6.8104Y-5.437
M15
G01X6.7907Y-5.437
M16
G05
G00X6.8104Y-4.437
M15
G01X6.7907Y-4.437
M16
G05
G00X6.0104Y-5.437
M15
G01X5.9907Y-5.437
M16
G05
G00X5.0104Y-5.437
M15
G01X4.9907Y-5.437
M16
G05
G00X5.5104Y-5.437
M15
G01X5.4907Y-5.437
M16
G05
T9
G00X5.2785Y-4.4673
M15
G01X5.2785Y-4.4161
M16
G05
G00X5.7194Y-4.4673
M15
G01X5.7194Y-4.4161
M16
G05
T0
M30
